<?xml version="1.0" encoding="UTF-8"?>
<svg width="51px" height="16px" viewBox="0 0 51 16" version="1.1" xmlns="http://www.w3.org/2000/svg" xmlns:xlink="http://www.w3.org/1999/xlink">
    <!-- Generator: sketchtool 51 (57462) - http://www.bohemiancoding.com/sketch -->
    <title>AC016CB6-91EA-4DCC-8B82-CD904F0E1240</title>
    <desc>Created with sketchtool.</desc>
    <defs></defs>
    <g id="Page-1" stroke="none" stroke-width="1" fill="none" fill-rule="evenodd">
        <g id="search-empty-alerts" transform="translate(-1149.000000, -828.000000)">
            <rect fill="#FAFAFA" x="0" y="0" width="1280" height="900"></rect>
            <g id="footer" transform="translate(0.000000, 720.000000)">
                <g id="CC-BY-SA" transform="translate(1149.000000, 108.000000)">
                    <rect id="Background" x="0" y="0" width="51" height="16"></rect>
                    <g id="CC-BY-SA-Andere_Wikis_(v)" fill="#7D7D7D">
                        <path d="M8.06168215,15.9897267 C3.6260895,15.9897267 0.0298594848,12.4172222 0.0298594848,8.00973326 C0.0298594848,3.60224433 3.6260895,0.029739777 8.06168215,0.029739777 C12.4972748,0.029739777 16.0935048,3.60224433 16.0935048,8.00973326 C16.0935048,12.4172222 12.4972748,15.9897267 8.06168215,15.9897267 Z M8.06168215,15.0975334 C12.0030677,15.0975334 15.1977203,11.923957 15.1977203,8.00973326 C15.1977203,4.09550953 12.0030677,0.921933086 8.06168215,0.921933086 C4.1202966,0.921933086 0.925644028,4.09550953 0.925644028,8.00973326 C0.925644028,11.923957 4.1202966,15.0975334 8.06168215,15.0975334 Z" id="path4147" fill-rule="nonzero"></path>
                        <path d="M25.4276679,15.9958829 C20.9920753,15.9958829 17.3958453,12.4233783 17.3958453,8.01588939 C17.3958453,3.60840047 20.9920753,0.0358959108 25.4276679,0.0358959108 C29.8632606,0.0358959108 33.4594906,3.60840047 33.4594906,8.01588939 C33.4594906,12.4233783 29.8632606,15.9958829 25.4276679,15.9958829 Z M25.4276679,15.1036896 C29.3690535,15.1036896 32.563706,11.9301131 32.563706,8.01588939 C32.563706,4.10166567 29.3690535,0.928089219 25.4276679,0.928089219 C21.4862824,0.928089219 18.2916298,4.10166567 18.2916298,8.01588939 C18.2916298,11.9301131 21.4862824,15.1036896 25.4276679,15.1036896 Z" id="ellipse4149" fill-rule="nonzero"></path>
                        <path d="M42.9242799,15.9958829 C38.4886872,15.9958829 34.8924572,12.4233783 34.8924572,8.01588939 C34.8924572,3.60840047 38.4886872,0.0358959108 42.9242799,0.0358959108 C47.3598725,0.0358959108 50.9561025,3.60840047 50.9561025,8.01588939 C50.9561025,12.4233783 47.3598725,15.9958829 42.9242799,15.9958829 Z M42.9242799,15.1036896 C46.8656654,15.1036896 50.060318,11.9301131 50.060318,8.01588939 C50.060318,4.10166567 46.8656654,0.928089219 42.9242799,0.928089219 C38.9828943,0.928089219 35.7882417,4.10166567 35.7882417,8.01588939 C35.7882417,11.9301131 38.9828943,15.1036896 42.9242799,15.1036896 Z" id="ellipse4151" fill-rule="nonzero"></path>
                        <path d="M24.0982262,13.629913 L24.1167721,9.441919 L23.1522196,9.42921072 L23.1510828,5.73887328 C23.1577478,5.52737338 23.2621297,5.33580226 23.5568256,5.35322924 L27.3802676,5.32549768 C27.6340004,5.37366047 27.8629106,5.45396361 27.8428356,5.8566501 L27.8242897,9.49733516 L26.8179957,9.50772843 L26.8179957,13.6691721 L24.0982262,13.629913 Z M25.4320038,5.05640258 C24.5799361,5.05640258 23.8831905,4.38547234 23.8831905,3.55017544 C23.8831905,2.71487853 24.5799361,2.04394829 25.4320038,2.04394829 C26.2840716,2.04394829 26.9808172,2.71487853 26.9808172,3.55017544 C26.9808172,4.38547234 26.2840716,5.05640258 25.4320038,5.05640258 Z" id="Combined-Shape"></path>
                        <path d="M39.1768901,6.32639848 C39.9360819,4.31037231 41.8741019,3.09015062 43.8884483,3.49257745 C46.0050651,3.91543589 47.4794565,5.9906953 47.4029506,8.3259655 C47.3262512,10.6671406 45.7112814,12.6224804 43.5633734,12.8659139 C41.3965519,13.1114911 39.4443617,11.5327595 38.9590745,9.23449392 L40.7941083,8.85012044 C41.0891209,10.247267 42.1946738,11.1413251 43.3513627,11.0102315 C44.526965,10.8769944 45.4810469,9.7218308 45.5287724,8.26505676 C45.5766913,6.80237763 44.6926856,5.55810754 43.5196629,5.32376064 C42.4708869,5.11423583 41.4151306,5.76467253 40.9538719,6.92685909 L41.5492295,7.12803657 L39.4550094,7.94820762 L38.5273835,6.10692349 L39.1768901,6.32639848 Z" id="Combined-Shape" fill-rule="nonzero"></path>
                        <g id="text5237" transform="translate(2.771329, 5.264447)">
                            <path d="M0.791247187,0.680065056 C1.22864417,0.239581131 1.78510199,0.0193424721 2.46063733,0.0193424721 C3.36459109,0.0193424721 4.02553662,0.314607487 4.44349374,0.905146375 C4.67434215,1.23671944 4.79826943,1.56949763 4.81527932,1.90349094 L3.69263267,1.90349094 C3.61973317,1.64694536 3.52618022,1.45332895 3.41197101,1.32263592 C3.20785242,1.09029275 2.90532404,0.974122909 2.50437681,0.974122909 C2.09613962,0.974122909 1.77417167,1.1380918 1.5384633,1.4660345 C1.30275492,1.79397721 1.1849025,2.25805152 1.1849025,2.85827138 C1.1849025,3.45849123 1.30943728,3.90804432 1.55851056,4.20694412 C1.80758384,4.50584393 2.12408441,4.65529159 2.50802176,4.65529159 C2.90167905,4.65529159 3.20177748,4.52702072 3.40832605,4.27047514 C3.52253527,4.13252138 3.61730319,3.92559385 3.69263267,3.64968634 L4.80434445,3.64968634 C4.70714512,4.2329645 4.45868306,4.70732469 4.05895081,5.07278113 C3.65921857,5.43823758 3.14710728,5.62096306 2.52260159,5.62096306 C1.74986692,5.62096306 1.14238022,5.37410214 0.700123271,4.88037291 C0.257866321,4.38422343 0.0367411629,3.70414582 0.0367411629,2.84011966 C0.0367411629,1.9059065 0.288240656,1.1858955 0.791247187,0.680065056 Z M6.18213805,0.680065056 C6.61953504,0.239581131 7.17599285,0.0193424721 7.85152819,0.0193424721 C8.75548196,0.0193424721 9.41642749,0.314607487 9.83438461,0.905146375 C10.065233,1.23671944 10.1891603,1.56949763 10.2061702,1.90349094 L9.08352354,1.90349094 C9.01062404,1.64694536 8.91707109,1.45332895 8.80286188,1.32263592 C8.59874328,1.09029275 8.29621491,0.974122909 7.89526767,0.974122909 C7.48703049,0.974122909 7.16506254,1.1380918 6.92935417,1.4660345 C6.69364579,1.79397721 6.57579337,2.25805152 6.57579337,2.85827138 C6.57579337,3.45849123 6.70032814,3.90804432 6.94940143,4.20694412 C7.19847471,4.50584393 7.51497528,4.65529159 7.89891263,4.65529159 C8.29256992,4.65529159 8.59266834,4.52702072 8.79921692,4.27047514 C8.91342613,4.13252138 9.00819406,3.92559385 9.08352354,3.64968634 L10.1952353,3.64968634 C10.098036,4.2329645 9.84957392,4.70732469 9.44984168,5.07278113 C9.05010944,5.43823758 8.53799815,5.62096306 7.91349246,5.62096306 C7.14075779,5.62096306 6.53327109,5.37410214 6.09101414,4.88037291 C5.64875719,4.38422343 5.42763203,3.70414582 5.42763203,2.84011966 C5.42763203,1.9059065 5.67913152,1.1858955 6.18213805,0.680065056 Z" id="tspan5239"></path>
                        </g>
                    </g>
                </g>
            </g>
        </g>
    </g>
</svg>