<?xml version="1.0" encoding="UTF-8"?>
<svg width="77px" height="44px" viewBox="0 0 77 44" version="1.1" xmlns="http://www.w3.org/2000/svg" xmlns:xlink="http://www.w3.org/1999/xlink">
    <!-- Generator: sketchtool 51.2 (57519) - http://www.bohemiancoding.com/sketch -->
    <title>7FEFEA2B-5E7D-4164-8128-D36DAFE242DF</title>
    <desc>Created with sketchtool.</desc>
    <defs>
        <path d="M55.727185,10.7761046 L51.8744453,12.1783871 L52.1480614,12.9301412 L56.0008011,11.5278587 L56.9584574,14.1589979 L54.7971645,14.9456442 L55.0707806,15.6973983 L57.2320736,14.910752 L57.5740937,15.8504446 L55.3576449,16.657166 C54.8950776,16.8255267 54.3836095,16.5870252 54.2152487,16.1244579 L53.5624364,14.3308708 L55.7237294,13.5442245 L55.4501132,12.7924704 L52.9129432,13.7159247 C52.7053521,13.7914817 52.5983172,14.0210187 52.6738742,14.2286098 L53.4634946,16.398074 C53.7829694,17.2758236 54.7535114,17.7283948 55.631261,17.4089201 L57.8477098,16.6021987 L61.6534247,27.0583144 C59.8068723,28.4336331 58.9657434,30.8575224 59.734836,32.9705869 C60.702602,35.629502 63.6433044,37.0001341 66.303036,36.0320709 C68.5064966,35.2300768 69.8602435,33.0497838 69.6570745,30.7674282 L74.1418711,29.1350957 C74.3494622,29.0595387 74.4564971,28.8300018 74.3809401,28.6224106 L73.7653038,26.9309639 C73.6897468,26.7233728 73.4602099,26.6163379 73.2526187,26.6918949 L68.7937989,28.3147726 C67.7323722,26.6858563 65.925164,25.8110011 64.0577588,26.0622769 L57.6915575,8.57128259 C57.6160005,8.36369143 57.3864636,8.2566566 57.1788724,8.3322136 L55.4874258,8.94784984 C55.2798346,9.02340685 55.1727998,9.25294379 55.2483568,9.46053495 L55.727185,10.7761046 Z M60.7835398,22.3292817 L61.7232323,21.9872616 L63.4201611,26.6495351 C63.4881642,26.836372 63.6830764,26.9448984 63.8777149,26.9042994 C65.6241413,26.5400182 67.3537543,27.3762082 68.2747572,29.0000601 C68.3710957,29.1699177 68.5759993,29.2453874 68.7594988,29.1785991 L73.1503578,27.5804571 L73.4923779,28.5201497 L69.0850001,30.124304 C68.9055873,30.1896049 68.7973364,30.3726002 68.826503,30.5612863 C69.1392332,32.584418 67.9778939,34.5711303 66.0294199,35.2803168 C63.7848105,36.0972878 61.3032202,34.9406434 60.4865901,32.6969707 C59.8136007,30.8479475 60.626746,28.6813923 62.3541847,27.5436961 C62.508925,27.4417837 62.5734215,27.2469412 62.5100501,27.0728299 L60.7835398,22.3292817 Z M60.5099237,21.5775276 L56.1369189,9.56279588 L57.0766115,9.22077576 L61.4496162,21.2355075 L60.5099237,21.5775276 Z M48.5,0 L76.5,0 C76.7761424,-5.07265313e-17 77,0.223857625 77,0.5 L77,43.5000546 C77,43.7761969 76.7761424,44.0000546 76.5,44.0000546 L48.5,44.0000546 C48.2238576,44.0000546 48,43.7761969 48,43.5000546 L48,0.5 C48,0.223857625 48.2238576,5.07265313e-17 48.5,0 Z M37.7515,10.8295546 C40.666,10.8295546 40.9415,11.1340546 40.9415,13.3960546 L40.9415,18.5000546 L39.5205,18.5000546 L39.5205,13.2800546 C39.5205,12.8160546 39.5205,12.4680546 39.4915,12.0765546 C39.0855,12.0185546 38.491,12.0040546 37.795,12.0040546 C37.1135,12.0040546 36.374,12.0330546 35.5765,12.0910546 L35.475,10.9310546 C36.2435,10.8730546 36.9105,10.8295546 37.7515,10.8295546 Z M31.415,10.8295546 C33.8075,10.8295546 34.4455,11.1920546 34.4455,14.3385546 C34.4455,17.5430546 33.8075,18.5000546 30.835,18.5000546 L29.066,18.5000546 L29.066,17.3110546 L30.6465,17.3110546 C32.749,17.3110546 32.9955,16.9920546 32.9955,14.3385546 C32.9955,13.4395546 32.981,12.6855546 32.865,12.0765546 C32.401,12.0040546 31.937,11.9895546 31.4295,11.9895546 C30.719,11.9895546 29.8345,12.0185546 29.0805,12.0910546 L28.9935,10.9310546 C29.791,10.8440546 30.748,10.8295546 31.415,10.8295546 Z M26.4995,10.9020546 L27.935,10.9020546 C27.935,17.5430546 26.1515,18.5725546 23.0195,18.5725546 C22.28,18.5725546 21.1925,18.5145546 20.4095,18.3550546 C20.308,17.8475546 20.25,17.4270546 20.2065,17.0065546 L19.5105,10.9020546 L20.9315,10.9020546 L21.352,14.8315546 L21.4245,14.8460546 C22.28,14.6865546 22.7585,14.2515546 22.9325,13.0190546 L23.2225,10.9020546 L24.6,10.9020546 C24.4695,11.7575546 24.3245,12.6130546 24.1795,13.4830546 C23.9185,15.0780546 22.831,15.6000546 21.4535,15.7740546 L21.613,17.3255546 C22.077,17.3980546 22.4975,17.4125546 22.9905,17.4125546 C25.2525,17.4125546 26.4995,16.9630546 26.4995,10.9020546 Z M38.317,24.8875546 C40.9125,24.8875546 41.2605,25.2500546 41.2605,28.3385546 L41.2605,28.9040546 C41.2605,31.4270546 40.347,32.5000546 37.8095,32.5000546 L35.3155,32.5000546 L35.3155,31.3545546 L37.592,31.3545546 C39.5785,31.3545546 39.8395,30.7310546 39.8395,28.6720546 L39.8395,28.1355546 C39.8395,27.2800546 39.825,26.5695546 39.738,26.0910546 C39.4335,26.0475546 39.0275,26.0185546 38.2445,26.0185546 L36.3885,26.0185546 L36.3885,28.1790546 L37.8675,28.2225546 L37.8675,29.1795546 C37.36,29.2085546 36.8525,29.2230546 36.316,29.2230546 C35.446,29.2230546 35.069,29.0200546 35.069,27.8600546 L35.069,24.3220546 L36.229,24.2060546 L36.3595,24.8875546 L38.317,24.8875546 Z M29.791,24.8295546 C32.9085,24.8295546 33.329,25.1630546 33.329,27.4685546 L33.329,32.5000546 L31.9225,32.5000546 L31.9225,27.5700546 C31.9225,27.1060546 31.9225,26.6130546 31.8645,26.1055546 C31.328,26.0185546 30.6465,25.9895546 29.8925,25.9895546 C29.559,25.9895546 29.1385,25.9895546 28.689,26.0040546 L28.689,30.6730546 C28.689,31.8475546 28.2395,32.5435546 26.6155,32.5435546 C26.3255,32.5435546 25.9775,32.5000546 25.76,32.4420546 L25.76,31.3255546 C26.05,31.3545546 26.2095,31.3545546 26.398,31.3545546 C27.1085,31.3545546 27.2825,31.0790546 27.2825,30.4265546 L27.2825,26.0620546 C26.8475,26.0910546 26.4125,26.1055546 25.992,26.1345546 L25.876,24.9890546 C27.1085,24.8875546 28.515,24.8295546 29.791,24.8295546 Z M22.831,32.5000546 L22.831,26.0330546 L21.7725,26.0330546 L21.7,24.8875546 C22.0625,24.8730546 22.454,24.8730546 22.8165,24.8730546 C23.9185,24.8730546 24.2375,25.0760546 24.2375,26.1055546 L24.2375,32.5000546 L22.831,32.5000546 Z M16.5815,24.8295546 C19.9165,24.8295546 20.2935,25.0905546 20.2935,27.2075546 L20.2935,32.5000546 L18.887,32.5000546 L18.887,27.1060546 C18.887,26.7725546 18.887,26.4100546 18.8435,26.0910546 C18.307,26.0040546 17.5675,25.9895546 16.77,25.9895546 C16.364,25.9895546 15.8855,25.9895546 15.378,26.0040546 L15.378,32.5145546 L13.957,32.5145546 L13.957,29.1070546 C13.957,27.7730546 13.986,26.9175546 14.073,26.0475546 L13.145,26.0910546 L13.0435,24.9310546 C14.16,24.8585546 15.4215,24.8295546 16.5815,24.8295546 Z M0,44.0000546 L0,43.0000546 L42,43.0000546 L42,44.0000546 L0,44.0000546 Z M0,1.00005457 L0,5.45711382e-05 L42,5.45711382e-05 L42,1.00005457 L0,1.00005457 Z M61.3453668,32.3844016 C61.9887605,34.1521114 63.946321,35.0620479 65.7174112,34.4174237 C67.4885015,33.7727996 68.4031839,31.8174523 67.7597901,30.0497424 C67.1163964,28.2820326 65.158836,27.3720962 63.3877457,28.0167203 C61.6166554,28.6613444 60.701973,30.6166918 61.3453668,32.3844016 Z M62.0971209,32.1107855 C61.6049899,30.7586668 62.3050462,29.2621329 63.6613618,28.7684744 C65.0176774,28.2748159 66.5159051,28.9712398 67.0080361,30.3233585 C67.500167,31.6754773 66.8001107,33.1720111 65.4437951,33.6656696 C64.0874795,34.1593282 62.5892518,33.4629042 62.0971209,32.1107855 Z" id="path-1"></path>
    </defs>
    <g id="Page-1" stroke="none" stroke-width="1" fill="none" fill-rule="evenodd">
        <g id="hp:-government" transform="translate(-1177.000000, -26.000000)">
            <g id="HP--menu">
                <g id="Logo-Copy-2" transform="translate(1177.000000, 26.000000)">
                    <rect id="Background" x="0" y="0" width="77" height="44"></rect>
                    <mask id="mask-2" fill="white">
                        <use xlink:href="#path-1"></use>
                    </mask>
                    <use id="Combined-Shape" fill="#FFFFFF" xlink:href="#path-1"></use>
                </g>
            </g>
        </g>
    </g>
</svg>