<svg xmlns="http://www.w3.org/2000/svg" viewBox="0 0 33.93 33.93"><defs><style>.cls-1{fill:#0978AB;}</style></defs><title>logo</title><g id="Layer_2" data-name="Layer 2"><g id="Layer_4" data-name="Layer 4"><path class="cls-1" d="M12.44.62a.25.25,0,0,0-.14.39,5.76,5.76,0,0,0,3.29,2.22.48.48,0,0,1,.36.47c0,1.36,0,5.88,0,7.22a.47.47,0,0,1-.37.46,5.73,5.73,0,0,0-1.4.55.48.48,0,0,1-.6-.11L9,6.39a.48.48,0,0,1,0-.61,5.76,5.76,0,0,0,1.27-4,.25.25,0,0,0-.36-.21A17,17,0,0,0,3,7.35a.26.26,0,0,0,.16.39,5.76,5.76,0,0,0,4-.44.48.48,0,0,1,.58.13l4.62,5.5a.48.48,0,0,1,0,.6,5.75,5.75,0,0,0-.72,1.28.48.48,0,0,1-.53.29l-7-1.24a.48.48,0,0,1-.4-.45A5.76,5.76,0,0,0,2.06,9.59a.25.25,0,0,0-.41.07A16.89,16.89,0,0,0,0,17q0,.81.08,1.62a.25.25,0,0,0,.36.21,5.76,5.76,0,0,0,2.8-3,.48.48,0,0,1,.53-.28l7.43,1.31s0,.08,0,.12a5.74,5.74,0,0,0,.25,1.68.48.48,0,0,1-.22.56L5,22.79a.48.48,0,0,1-.59-.08,5.76,5.76,0,0,0-3.6-1.8.26.26,0,0,0-.28.31A16.93,16.93,0,0,0,5.07,29,.25.25,0,0,0,5.48,29a5.76,5.76,0,0,0,.2-4.18.48.48,0,0,1,.22-.56L12,20.69a.48.48,0,0,1,.6.09,5.76,5.76,0,0,0,2.93,1.78.49.49,0,0,1,.37.47v7.34a.5.5,0,0,1-.5.5H8a.22.22,0,0,0-.12.4A17.71,17.71,0,0,0,17,33.93a17.71,17.71,0,0,0,9.11-2.65.22.22,0,0,0-.12-.4H18.31a.5.5,0,0,1-.5-.5v-7.3a.48.48,0,0,1,.37-.48,5.75,5.75,0,0,0,3-1.75.48.48,0,0,1,.6-.08L28,24.32a.48.48,0,0,1,.23.56,5.76,5.76,0,0,0,.22,4.1.25.25,0,0,0,.41.07,16.93,16.93,0,0,0,4.53-7.83.25.25,0,0,0-.27-.32,5.76,5.76,0,0,0-3.67,1.86.48.48,0,0,1-.6.09l-6.17-3.56a.48.48,0,0,1-.23-.56A5.74,5.74,0,0,0,22.73,17c0-.05,0-.1,0-.15l7.42-1.31a.48.48,0,0,1,.53.29,5.76,5.76,0,0,0,2.81,3,.25.25,0,0,0,.36-.21q.08-.81.08-1.62a16.89,16.89,0,0,0-1.65-7.3.26.26,0,0,0-.42-.06,5.76,5.76,0,0,0-1.61,3.78.48.48,0,0,1-.4.45l-7,1.24a.48.48,0,0,1-.53-.29,5.75,5.75,0,0,0-.78-1.35.48.48,0,0,1,0-.6l4.59-5.47a.48.48,0,0,1,.59-.12,5.76,5.76,0,0,0,4.08.49.25.25,0,0,0,.14-.39A17,17,0,0,0,24,1.53a.25.25,0,0,0-.36.21,5.76,5.76,0,0,0,1.19,3.94.48.48,0,0,1,0,.6l-4.58,5.46a.48.48,0,0,1-.59.12,5.72,5.72,0,0,0-1.46-.53.48.48,0,0,1-.38-.47c0-1.36,0-5.77,0-7.13a.48.48,0,0,1,.37-.47A5.76,5.76,0,0,0,21.63,1a.25.25,0,0,0-.13-.4A18.31,18.31,0,0,0,17,0,18.32,18.32,0,0,0,12.44.62Z"/></g></g></svg>