<svg xmlns="http://www.w3.org/2000/svg" width="12" height="12" viewBox="0 0 12 12">
    <path fill="#000" fill-rule="evenodd" d="M6 0a6 6 0 1 1 0 12A6 6 0 0 1 6 0zm-.57 7.789l.088-.022.715-.275a.208.208 0 0 0 .094-.077.19.19 0 0 0 .038-.11.35.35 0 0 0-.022-.099 1.416 1.416 0 0 1-.11-.495c0-.154.055-.302.165-.446.11-.143.29-.331.539-.566l.209-.209c.25-.25.451-.502.605-.759.154-.257.231-.565.231-.924 0-.352-.082-.665-.248-.94a1.696 1.696 0 0 0-.698-.644 2.237 2.237 0 0 0-1.034-.231c-.682 0-1.32.246-1.914.737A.274.274 0 0 0 4 2.927c0 .059.015.106.044.143l.385.572c.044.066.099.099.165.099a.264.264 0 0 0 .154-.055c.198-.154.401-.275.61-.363.21-.088.413-.132.611-.132.227 0 .41.059.55.176.14.117.209.271.209.462a.764.764 0 0 1-.154.44c-.103.147-.286.345-.55.594-.381.352-.656.653-.825.902-.169.25-.253.546-.253.891 0 .323.084.653.253.99a.248.248 0 0 0 .231.143zm.286 2.585c.257 0 .473-.09.649-.27a.887.887 0 0 0 .264-.643.882.882 0 0 0-.264-.649.882.882 0 0 0-.649-.264.887.887 0 0 0-.644.264.873.873 0 0 0-.269.649c0 .25.09.464.27.643.18.18.394.27.643.27z" opacity=".4"/>
</svg>
