<?xml version="1.0" encoding="UTF-8" standalone="no"?>
<!-- Generator: Adobe Illustrator 15.0.0, SVG Export Plug-In . SVG Version: 6.00 Build 0)  -->
<svg xmlns:dc="http://purl.org/dc/elements/1.1/" xmlns:cc="http://creativecommons.org/ns#" xmlns:rdf="http://www.w3.org/1999/02/22-rdf-syntax-ns#" xmlns:svg="http://www.w3.org/2000/svg" xmlns="http://www.w3.org/2000/svg" xmlns:sodipodi="http://sodipodi.sourceforge.net/DTD/sodipodi-0.dtd" xmlns:inkscape="http://www.inkscape.org/namespaces/inkscape" version="1.1" id="Layer_1" x="0px" y="0px" width="234.78163" height="304.39944" viewBox="186.299 28.696 234.78164 304.39946" enable-background="new 186.299 28.696 227.133 297.701" xml:space="preserve" sodipodi:docname="COA_of_Herzliya.svg" inkscape:version="0.92.3 (2405546, 2018-03-11)"><metadata id="metadata33"><rdf:RDF><cc:Work rdf:about=""><dc:format>image/svg+xml</dc:format><dc:type rdf:resource="http://purl.org/dc/dcmitype/StillImage"/><dc:title/></cc:Work></rdf:RDF></metadata><defs id="defs31"/><sodipodi:namedview pagecolor="#ffffff" bordercolor="#666666" borderopacity="1" objecttolerance="10" gridtolerance="10" guidetolerance="10" inkscape:pageopacity="0" inkscape:pageshadow="2" inkscape:window-width="1920" inkscape:window-height="1005" id="namedview29" showgrid="false" inkscape:zoom="0.79274174" inkscape:cx="126.25739" inkscape:cy="171.1214" inkscape:window-x="-9" inkscape:window-y="-9" inkscape:window-maximized="1" inkscape:current-layer="Layer_1" fit-margin-top="0" fit-margin-left="0" fit-margin-right="0" fit-margin-bottom="0"/>
<desc id="desc2">Flag of Israel</desc>

<path inkscape:connector-curvature="0" style="fill:#005b96;fill-opacity:1;fill-rule:nonzero;stroke:none;stroke-width:1.02692759" d="m 303.69695,28.696 c -58.55029,0 -101.72869,17.761926 -110.96385,24.167901 -7.48836,5.219873 -9.15224,13.519389 -1.16582,25.998617 l 14.49683,21.506802 v 146.55232 c 0,0 3.8497,85.60892 97.63284,86.17167 93.78416,0.49909 97.58921,-86.17167 97.58921,-86.17167 V 100.36932 L 415.78451,78.862518 C 423.77092,66.38329 422.18918,58.083774 414.61869,52.863901 405.34245,46.457926 362.2267,28.696 303.69695,28.696 Z" id="path934"/><path inkscape:connector-curvature="0" id="path62" style="fill:#ffffff;fill-opacity:1;fill-rule:nonzero;stroke:none;stroke-width:1.02692759" d="m 319.75375,269.57157 c -4.24326,-3.97215 -9.85953,-6.46862 -16.05705,-6.71817 v 19.46748 c 0.85338,0.0626 1.74681,0.39537 2.39275,0.91602 z m 63.62535,-65.60118 -9.77635,10.19124 c 0,0 -3.53571,-11.68849 2.8713,-18.67674 6.32279,-6.86398 8.65185,-9.00717 8.65185,-9.00717 z m 0,19.03206 -9.77635,10.29496 c 0,0 -3.53571,-11.68953 2.8713,-18.61513 6.32279,-6.9677 8.65185,-9.0688 8.65185,-9.0688 z m 0,19.11421 -9.77635,10.33705 c 0,0 -3.53571,-11.68952 2.8713,-18.67776 6.32279,-6.92662 8.65185,-9.08933 8.65185,-9.08933 z m 0,19.1563 -9.77635,10.33603 c 0,0 -3.53571,-11.77168 2.8713,-18.67673 6.32279,-6.9256 8.65185,-9.1109 8.65185,-9.1109 z m -13.64478,-65.33005 v 76.70738 c 0,0 -1.37302,16.97204 -22.00604,21.75547 0,0 -3.61889,1.24771 -3.74417,3.9927 l -2.32908,-9.5453 c 0,0 23.44168,0.37483 25.58283,-15.76641 v -77.14384 h -0.62439 l -7.27886,-11.35783 2.95345,-14.91303 5.55362,-11.23049 6.86399,11.23049 2.93291,14.91303 -7.25936,11.35783 z M 336.68471,157.276 h -7.59208 l 3.7452,-6.9256 -3.7452,-6.76026 h 7.40516 l 2.87028,-5.40678 3.03662,5.40678 h 7.52841 l -3.70105,7.00878 3.70105,6.67708 h -7.36307 l -2.86925,5.49202 z m -12.29233,83.42658 -12.60452,-2.80865 -8.44443,2.288 -9.46312,-2.01792 -10.71188,1.56093 -8.75662,-2.1011 -10.79507,1.49727 -0.51962,-1.10189 11.31469,-2.4749 8.75662,1.58044 10.71188,-1.14297 9.46312,1.8495 8.44443,-2.22434 12.60452,2.22434 10.06595,-1.7047 0.2711,0.99817 z m 0,4.97135 -12.60452,-2.7039 -8.44443,2.16272 -9.46312,-1.95528 -10.71188,1.49727 -8.75662,-2.01792 -10.79507,1.45618 -0.51962,-1.06081 11.31469,-2.53651 8.75662,1.53833 10.71188,-1.10292 9.46312,1.89366 8.44443,-2.20379 12.60452,2.20379 10.06595,-1.76837 0.2711,0.97763 z m 0,5.03195 -12.60452,-2.76552 -8.44443,2.30956 -9.46312,-2.10211 -10.71188,1.5599 -8.75662,-2.01689 -10.79507,1.43564 -0.51962,-1.0413 11.31469,-2.55705 8.75662,1.58045 10.71188,-1.1019 9.46312,1.87106 8.44443,-2.288 12.60452,2.288 10.06595,-1.7468 0.2711,0.97764 z m 9.94066,38.79117 c 0,0.97763 -0.87289,1.76836 -1.82793,1.76836 h -1.62357 c -0.60178,0 -1.08238,-0.18793 -1.39355,-0.52065 -0.18792,1.64411 -0.51962,3.14138 -0.91602,4.61707 0.3964,-0.18485 0.91602,-0.18485 1.43565,0 l 1.58044,0.60281 c 0.91705,0.41693 1.35246,1.45721 0.95812,2.43382 l -1.28982,2.99554 c -0.37482,0.97661 -1.4572,1.43564 -2.37118,1.04028 l -1.54038,-0.64492 c -0.51861,-0.20846 -0.87289,-0.60382 -0.99817,-1.06183 -0.78971,1.39354 -1.62153,2.76654 -2.66181,3.93107 0.51963,-0.0607 1.04028,0.12426 1.35246,0.50012 l 1.18509,1.20665 c 0.72911,0.70857 0.72911,1.89364 0,2.61968 l -2.288,2.26951 c -0.70653,0.72604 -1.87107,0.72604 -2.62072,0 l -1.16454,-1.10395 c -0.39536,-0.37482 -0.51962,-0.91499 -0.51962,-1.43565 -1.22718,1.06083 -2.62073,1.91317 -3.93212,2.6618 0.39538,0.14788 0.79074,0.52066 1.04131,0.99921 l 0.66546,1.54141 c 0.33272,0.93553 -0.0626,2.05694 -1.06082,2.43074 l -2.97501,1.22923 c -0.91499,0.41489 -2.03845,-0.0616 -2.43383,-0.97865 l -0.64387,-1.53937 c -0.20745,-0.53914 -0.20745,-0.99817 0.0822,-1.45516 -1.53833,0.45699 -3.09927,0.72706 -4.71976,0.91602 0.39332,0.33272 0.5607,0.85132 0.5607,1.3083 v 1.68725 c 0,0.97455 -0.77019,1.82793 -1.7468,1.82793 h -3.32827 c -1.04028,0 -1.82998,-0.85338 -1.82998,-1.82793 v -1.68725 c 0,-0.45698 0.18689,-0.97558 0.58329,-1.3083 -1.56094,-0.18896 -3.14137,-0.45903 -4.7023,-0.91602 0.25057,0.45699 0.25057,0.91602 0.0841,1.45516 l -0.66545,1.53937 c -0.33375,0.91704 -1.43564,1.39354 -2.41327,0.97865 l -2.99556,-1.22923 c -0.95607,-0.3738 -1.39353,-1.49521 -0.99817,-2.43074 l 0.64492,-1.54141 c 0.18689,-0.47855 0.60383,-0.85133 1.06183,-0.99921 -1.37403,-0.74863 -2.746,-1.60097 -3.93313,-2.6618 0,0.52066 -0.18587,1.06083 -0.58124,1.43565 l -1.18611,1.10395 c -0.70651,0.72604 -1.89262,0.72604 -2.60018,0 l -2.3075,-2.26951 c -0.70756,-0.72604 -0.70756,-1.91111 0,-2.61968 l 1.20561,-1.20665 c 0.31116,-0.37586 0.91398,-0.5607 1.37301,-0.50012 -0.9992,-1.16453 -1.85053,-2.53753 -2.62073,-3.93107 -0.20846,0.45801 -0.54118,0.85337 -1.06081,1.06183 l -1.5599,0.64492 c -0.91602,0.39536 -1.97684,-0.0637 -2.37016,-1.04028 l -1.28981,-2.99554 c -0.33376,-0.97661 0.12323,-2.01689 1.03925,-2.43382 l 1.49726,-0.60281 c 0.5412,-0.18485 1.04028,-0.18485 1.51882,0 -0.47854,-1.47569 -0.72808,-2.97296 -0.91601,-4.61707 -0.39537,0.33272 -0.85133,0.52065 -1.37198,0.52065 h -1.64411 c -1.03925,0 -1.87107,-0.79073 -1.87107,-1.76836 v -3.32828 c 0,-0.97558 0.83182,-1.82895 1.87107,-1.82895 h 1.64411 c 0.52065,0 0.97661,0.27008 1.37198,0.6028 0.18793,-1.58146 0.43747,-3.14035 0.91601,-4.65917 -0.47854,0.20744 -0.97762,0.27009 -1.51882,0.0626 l -1.49726,-0.70755 c -0.91602,-0.33273 -1.37301,-1.45516 -1.03925,-2.4133 l 1.28981,-2.95343 c 0.39332,-0.95608 1.45414,-1.43461 2.37016,-1.04028 l 1.5599,0.6449 c 0.51963,0.2095 0.85235,0.60384 1.06081,1.12347 0.7702,-1.5178 1.62153,-2.74498 2.62073,-3.99372 -0.45903,0 -1.06185,-0.12426 -1.37301,-0.51861 l -1.20561,-1.24873 c -0.70756,-0.64389 -0.70756,-1.80945 0,-2.53755 l 2.3075,-2.37117 c 0.70756,-0.62334 1.89367,-0.62334 2.60018,0 l 1.18611,1.20562 c 0.39537,0.37483 0.58124,0.83283 0.58124,1.41408 1.18713,-1.03925 2.5591,-1.89263 3.93313,-2.66283 -0.458,-0.20641 -0.87494,-0.45596 -1.06183,-1.05876 l -0.64492,-1.51883 c -0.39536,-0.89343 0.0421,-2.01791 0.99817,-2.39171 l 2.99556,-1.24875 c 0.97763,-0.45697 2.07952,0 2.41327,0.97764 l 0.66545,1.58045 c 0.16637,0.458 0.16637,0.97865 -0.0841,1.43564 1.56093,-0.45699 3.14136,-0.72707 4.7023,-0.91499 -0.3964,-0.33171 -0.58329,-0.79074 -0.58329,-1.373 v -1.70574 c 0,-0.97661 0.7897,-1.82896 1.82998,-1.82896 h 3.32827 c 0.97661,0 1.7468,0.85235 1.7468,1.82896 v 1.70574 c 0,0.58226 -0.16738,1.04129 -0.5607,1.373 1.62049,0.18792 3.18143,0.458 4.71976,0.91499 -0.2896,-0.45699 -0.2896,-0.97764 -0.0822,-1.43564 l 0.64387,-1.58045 c 0.39538,-0.97764 1.51884,-1.43461 2.43383,-0.97764 l 2.97501,1.24875 c 0.99817,0.3738 1.39354,1.49828 1.06082,2.39171 l -0.66546,1.51883 c -0.25057,0.6028 -0.64593,0.85235 -1.04131,1.05876 1.31139,0.7702 2.70494,1.62358 3.93212,2.66283 0,-0.58125 0.12426,-1.03925 0.51962,-1.41408 l 1.16454,-1.20562 c 0.74965,-0.62334 1.91419,-0.62334 2.62072,0 l 2.288,2.37117 c 0.72911,0.7281 0.72911,1.89366 0,2.53755 l -1.18509,1.24873 c -0.31218,0.39435 -0.83283,0.51861 -1.35246,0.51861 1.04028,1.24874 1.8721,2.47592 2.66181,3.99372 0.12528,-0.51963 0.47956,-0.91397 0.99817,-1.12347 l 1.54038,-0.6449 c 0.91398,-0.39433 1.99636,0.0841 2.37118,1.04028 l 1.28982,2.95343 c 0.39434,0.95814 -0.0411,2.08057 -0.95812,2.4133 l -1.58044,0.70755 c -0.51963,0.20744 -1.03925,0.14479 -1.43565,-0.0626 0.3964,1.51882 0.7281,3.07771 0.91602,4.65917 0.31117,-0.33272 0.79177,-0.6028 1.39355,-0.6028 h 1.62357 c 0.95504,0 1.82793,0.85337 1.82793,1.82895 z m -74.938,8.90141 c -0.0626,-2.74499 -3.72261,-3.9927 -3.72261,-3.9927 -20.59297,-4.78343 -20.71724,-21.75547 -20.71724,-21.75547 h 1.24875 c 2.14115,16.20287 25.58179,16.20287 25.58179,16.20287 z M 234.95519,160.81274 c 0,0 10.56606,9.00615 0.20744,19.57119 h -0.41488 c -10.35861,-10.56504 0.20744,-19.57119 0.20744,-19.57119 m -1.49726,32.67581 -0.45698,0.229 c -14.10177,-4.24429 -9.21462,-17.24314 -9.21462,-17.24314 0,0 13.58215,2.74499 9.6716,17.01414 m 0,15.32792 -0.45698,0.2095 c -14.10177,-4.32748 -9.21462,-17.26471 -9.21462,-17.26471 0,0 13.58215,2.80762 9.6716,17.05521 m 0,15.28788 -0.45698,0.18793 c -14.10177,-4.22273 -9.21462,-17.24315 -9.21462,-17.24315 0,0 13.58215,2.82816 9.6716,17.05522 m 0,15.34948 -0.45698,0.20848 c -14.10177,-4.32646 -9.21462,-17.26267 -9.21462,-17.26267 0,0 13.58215,2.80763 9.6716,17.05419 m 0,15.30841 -0.45698,0.18793 c -14.10177,-4.24429 -9.21462,-17.26368 -9.21462,-17.26368 0,0 13.58215,2.82919 9.6716,17.07575 m 0,15.20469 -0.45698,0.24955 c -14.10177,-4.24326 -9.21462,-17.1805 -9.21462,-17.1805 0,0 13.58215,2.7039 9.6716,16.93095 m 3.36936,-76.24938 -0.31219,-0.229 c -3.97216,-14.26915 9.60896,-17.01414 9.60896,-17.01414 0,0 4.88919,12.99885 -9.29677,17.24314 m 0,15.30842 -0.31219,-0.2095 c -3.97216,-14.24759 9.60896,-17.05521 9.60896,-17.05521 0,0 4.88919,12.93723 -9.29677,17.26471 m 0,15.26631 -0.31219,-0.18793 c -3.97216,-14.22706 9.60896,-17.05522 9.60896,-17.05522 0,0 4.88919,13.02042 -9.29677,17.24315 m 0,15.37003 -0.31219,-0.20848 c -3.97216,-14.24656 9.60896,-17.05419 9.60896,-17.05419 0,0 4.88919,12.93621 -9.29677,17.26267 m 0,30.55417 -0.31219,-0.24955 c -3.97216,-14.22705 9.60896,-16.93095 9.60896,-16.93095 0,0 4.88919,12.93724 -9.29677,17.1805 m 0,-15.26631 -0.31219,-0.18793 c -3.97216,-14.24656 9.60896,-17.07575 9.60896,-17.07575 0,0 4.88919,13.01939 -9.29677,17.26368 m 18.36556,-124.94218 h -7.30043 l -2.95446,5.42937 -2.99453,-5.42937 h -7.50786 l 3.72261,-6.98824 -3.72261,-6.71816 h 7.32096 l 2.93291,-5.40781 3.01505,5.40781 h 7.48836 l -3.70208,6.92662 z m 39.60141,-19.90494 -3.72363,6.90609 3.72363,6.7387 h -7.30042 l -2.95344,5.49097 -2.99555,-5.49097 h -7.52841 l 3.65997,-6.92663 -3.65997,-6.71816 h 7.32097 l 2.95446,-5.51152 2.91032,5.51152 z m -1.35143,31.61499 h 7.27886 l 2.97501,-5.49097 3.0582,5.49097 h 7.52839 l -3.82633,6.92561 3.82633,6.73973 h -7.40312 l -2.8723,5.42936 -3.01508,-5.42936 h -7.54996 l 3.70207,-6.94614 z m 9.06777,87.08655 v -6.84139 c -16.53559,-1.97684 -28.09879,4.5534 -28.09879,4.5534 1.10189,-32.86168 18.94784,-39.51823 18.94784,-39.51823 h 9.54631 v -17.17948 h 1.22821 l 15.68222,4.76289 -15.68222,5.76106 v 6.65553 h 11.81379 c -5.1367,27.49702 7.77897,39.66405 7.77897,39.66405 -5.55363,-3.61889 -19.50957,-4.69922 -19.50957,-4.69922 v 6.84139 h 29.20171 l -4.4507,5.42835 -9.85851,-2.03743 -7.322,2.03743 -8.44443,-2.03743 -9.46312,2.03743 -10.71188,-2.03743 -8.75662,2.03743 -6.67709,-5.42835 z m -44.63438,-85.21445 h 7.32199 l 2.95242,-5.40678 2.99554,5.40678 h 7.57052 l -3.78423,7.00878 3.78423,6.67708 h -7.36307 l -2.95345,5.49202 -2.99554,-5.49202 h -7.52841 l 3.74417,-6.9256 z m 76.24937,-20.0292 h -7.2994 l -2.89182,5.42833 -3.0777,-5.42833 h -7.48836 l 3.64045,-6.92663 -3.64045,-6.7387 h 7.30043 l 3.01608,-5.49098 2.91237,5.49098 h 7.5284 l -3.65996,6.9256 z m 29.49337,90.60069 -9.89958,-10.19124 -1.66362,-17.49267 c 0,0 2.26643,2.14319 8.58922,9.00717 6.42651,6.98825 2.97398,18.67674 2.97398,18.67674 m 0,19.13578 -9.89958,-10.29496 -1.66362,-17.38897 c 0,0 2.26643,2.1011 8.58922,9.0688 6.42651,6.9256 2.97398,18.61513 2.97398,18.61513 m 0,38.31158 -9.89958,-10.33603 -1.66362,-17.4516 c 0,0 2.26643,2.1853 8.58922,9.1109 6.42651,6.90505 2.97398,18.67673 2.97398,18.67673 m 0,-19.15528 -9.89958,-10.33705 -1.66362,-17.43004 c 0,0 2.26643,2.16271 8.58922,9.08933 6.42651,6.98824 2.97398,18.67776 2.97398,18.67776 m 2.57964,-136.15212 h 7.52943 l -3.66099,6.92662 3.66099,6.77978 h -7.23778 l -3.03663,5.42937 -2.93393,-5.42937 h -7.63213 l 3.78525,-6.98824 -3.78525,-6.71816 h 7.36204 l 2.95448,-5.40781 z m -147.92419,-46.445251 5.69825,18.678762 -8.60904,2.5588 -5.1176,-16.598332 z m 150.46195,-3.016097 9.27545,0.251218 -4.76257,18.967571 -8.67373,-2.224838 z M 227.6702,54.374203 c 2.31393,-0.01294 4.47708,0.527964 6.4534,1.963095 2.6618,2.017914 4.03475,4.639095 5.15821,8.153242 l 5.40791,17.700963 -8.65266,2.618968 -5.40792,-17.719011 c -0.64492,-1.934732 -1.16447,-3.391418 -2.87019,-4.493313 -2.0785,-1.28982 -4.24379,-0.915588 -6.78132,-0.124852 l -13.51905,4.118738 -1.91496,-6.36464 14.76911,-4.493312 c 2.57913,-0.780466 5.04355,-1.346908 7.35747,-1.359878 z m 144.41472,-2.030791 14.97519,3.723117 c 5.21988,1.288793 9.67283,3.079837 11.50179,7.634262 1.29085,3.078728 1.10309,6.010012 0.24972,9.609393 l -4.4512,17.970237 -8.75646,-2.16317 4.43013,-18.012353 c 0.54015,-1.976836 0.72699,-3.473592 -0.10376,-5.240935 -1.12449,-2.287995 -3.22341,-3.079192 -5.75991,-3.703564 l -13.64541,-3.410221 z m -119.94144,-3.981851 4.77159,17.968729 -8.22244,4.273683 -5.29509,-19.991991 z m 87.8685,-2.152635 9.54773,1.954069 c 5.19932,1.165563 9.65098,2.995004 11.87635,7.42517 1.39354,2.973983 0.85138,5.845026 0.0617,9.380738 l -3.86903,18.074029 -8.73541,-1.892394 3.5366,-16.783343 c 0.58226,-2.433819 1.1021,-4.390793 0.37606,-6.283411 -0.89548,-2.349621 -3.24647,-3.140315 -5.8261,-3.659939 l -8.2766,-1.830724 z m -42.34573,-2.497118 11.37393,0.666394 8.75948,14.621683 c 0.85235,-0.249543 1.89167,-0.91606 2.30757,-1.559943 0.56173,-0.998174 0.4995,-2.932619 0.56111,-4.846821 l 0.39562,-7.571076 8.81965,0.4588 -0.39563,6.155548 c -0.1253,3.181422 -0.79066,5.596921 -2.09998,7.738064 -0.95813,1.643085 -3.45378,3.617816 -6.32404,4.388011 l 6.32404,9.02724 -0.25122,4.971675 -29.78342,-1.517832 0.31289,-6.656472 18.11465,0.914602 z m -27.98127,-8.257043 1.405,10.292342 18.28163,-2.43845 0.79577,5.463573 -6.20819,27.928624 -10.12538,1.389966 6.96034,-26.922254 -18.20038,2.43995 -2.32112,-16.884129 z M 301.92936,282.32088 V 262.8534 c -6.28172,0.24955 -11.89799,2.74602 -16.14022,6.71817 l 13.64375,13.66533 c 0.79074,-0.52065 1.5599,-0.85338 2.49647,-0.91602 m 2.8487,8.81926 c 0.51963,-0.33274 0.99817,-0.76918 1.31139,-1.31037 0.20743,-0.33272 0.33273,-0.72707 0.47752,-0.97661 0,-0.39435 0.12528,-0.66545 0.12528,-1.04027 0,-0.33376 -0.12528,-0.66648 -0.12528,-0.91602 -0.14479,-0.41488 -0.27009,-0.7281 -0.47752,-1.0598 -0.31322,-0.49908 -0.79176,-1.06082 -1.31139,-1.37197 -0.31116,-0.18895 -0.64389,-0.25058 -1.01872,-0.45801 -0.29164,-0.0421 -0.58226,-0.12529 -0.97762,-0.12529 -0.35327,0 -0.66648,0.0832 -0.97764,0.12529 -0.33272,0.20743 -0.66545,0.26906 -0.99817,0.45801 -0.52065,0.31115 -1.03927,0.87289 -1.37302,1.37197 -0.1869,0.3317 -0.33272,0.64492 -0.45697,1.0598 -0.0832,0.24954 -0.12529,0.58226 -0.12529,0.91602 0,0.37482 0.0421,0.64592 0.12529,1.04027 0.12425,0.24954 0.27007,0.64389 0.45697,0.97661 0.33375,0.54119 0.85237,0.97763 1.37302,1.31037 0.33272,0.27007 0.66545,0.37584 0.99817,0.45799 0.31116,0.1253 0.62437,0.1253 0.97764,0.1253 0.39536,0 0.68598,0 0.97762,-0.1253 0.37483,-0.0821 0.70756,-0.18792 1.01872,-0.45799 m 2.55807,-6.59288 c 0.54223,0.64593 0.85338,1.49622 0.97867,2.41328 h 19.40483 c -0.24955,-6.21908 -2.72445,-11.898 -6.65553,-16.14023 z m 0,6.59288 13.72797,13.70639 c 3.93108,-4.24121 6.40598,-9.85748 6.65553,-16.11866 H 308.3148 c -0.12529,0.89446 -0.43644,1.68416 -0.97867,2.41227 m -21.54699,14.97464 c 4.24223,3.97421 9.8585,6.44808 16.14022,6.7192 v -19.40689 c -0.93657,-0.20743 -1.70573,-0.53914 -2.49647,-0.97661 z m 17.90756,-12.68769 v 19.40689 c 6.19752,-0.27112 11.81379,-2.74499 16.05705,-6.7192 l -13.6643,-13.6643 c -0.64594,0.43747 -1.53937,0.76918 -2.39275,0.97661 m -5.51152,-8.87983 -13.70743,-13.72695 c -3.93108,4.24223 -6.40495,9.92115 -6.67605,16.14023 h 19.42742 c 0.12425,-0.91706 0.43644,-1.76735 0.95606,-2.41328 m -0.95606,4.18061 H 277.8017 c 0.2711,6.26118 2.74497,11.87745 6.67605,16.11866 l 13.70743,-13.70639 c -0.51962,-0.72811 -0.83181,-1.51781 -0.95606,-2.41227"/></svg>