<?xml version="1.0" encoding="UTF-8"?>
<svg width="83px" height="79px" viewBox="0 0 83 79" version="1.1" xmlns="http://www.w3.org/2000/svg" xmlns:xlink="http://www.w3.org/1999/xlink">
    <!-- Generator: sketchtool 51 (57462) - http://www.bohemiancoding.com/sketch -->
    <title>B06FABE1-4E09-426D-B1F1-8A6673A35A40</title>
    <desc>Created with sketchtool.</desc>
    <defs></defs>
    <g id="Page-1" stroke="none" stroke-width="1" fill="none" fill-rule="evenodd">
        <g id="hp:-suppliers" transform="translate(-1168.000000, -8.000000)">
            <g id="HP--menu" transform="translate(-2.000000, 0.000000)">
                <g id="open_procure_logo" transform="translate(1170.000000, 6.708990)">
                    <rect id="Background" x="1" y="0" width="82" height="82"></rect>
                    <path d="M15.0242543,66 L15.26,66 C15.3800006,66 15.4799996,65.9600004 15.56,65.88 C15.6400004,65.7999996 15.68,65.7000006 15.68,65.58 L15.68,56.64 L19.48,56.64 L19.48,65.58 C19.48,65.7000006 19.5199996,65.7999996 19.6,65.88 C19.6800004,65.9600004 19.7799994,66 19.9,66 L21.46,66 C21.5800006,66 21.6799996,65.9600004 21.76,65.88 C21.8400004,65.7999996 21.88,65.7000006 21.88,65.58 L21.88,56.64 L22.8,56.64 C22.9200006,56.64 23.0199996,56.6000004 23.1,56.52 C23.1800004,56.4399996 23.22,56.3400006 23.22,56.22 L23.22,54.7 C23.22,54.5799994 23.1800004,54.4800004 23.1,54.4 C23.0199996,54.3199996 22.9200006,54.28 22.8,54.28 L12.36,54.28 C12.2399994,54.28 12.1400004,54.3199996 12.06,54.4 C11.9799996,54.4800004 11.94,54.5799994 11.94,54.7 L11.94,56.22 C11.94,56.3400006 11.9799996,56.4399996 12.06,56.52 C12.1400004,56.6000004 12.2399994,56.64 12.36,56.64 L13.28,56.64 L13.28,63.9308591 L2.27014257,50.8702937 C0.885389804,49.2276154 0.484644815,46.9699016 1.21946554,44.9509983 L13.1829731,12.0815313 C13.9177939,10.0626279 15.6760128,8.59071275 17.7926882,8.22245008 L52.4444001,2.19368824 C54.5466609,1.82793345 56.6849969,2.6062241 58.0603195,4.23771572 L80.7298574,31.1297063 C82.1146102,32.7723846 82.5153552,35.0300984 81.7805345,37.0490017 L69.8170269,69.9184687 C69.0822061,71.9373721 67.3239872,73.4092872 65.2073118,73.7775499 L30.5555999,79.8063118 C28.4533391,80.1720666 26.3150031,79.3937759 24.9396805,77.7622843 L15.0242543,66 Z M53.12,45.88 C53.2000004,45.9600004 53.2999994,46 53.42,46 L54.98,46 C55.1000006,46 55.1999996,45.9600004 55.28,45.88 C55.3600004,45.7999996 55.4,45.7000006 55.4,45.58 L55.4,35.14 C55.4,34.8999988 55.3166675,34.6966675 55.15,34.53 C54.9833325,34.3633325 54.7800012,34.28 54.54,34.28 L47.76,34.28 C47.6399994,34.28 47.5400004,34.3199996 47.46,34.4 C47.3799996,34.4800004 47.34,34.5799994 47.34,34.7 L47.34,36.22 C47.34,36.3400006 47.3799996,36.4399996 47.46,36.52 C47.5400004,36.6000004 47.6399994,36.64 47.76,36.64 L53,36.64 L53,45.58 C53,45.7000006 53.0399996,45.7999996 53.12,45.88 Z M36.78,45.88 C36.8600004,45.9600004 36.9599994,46 37.08,46 L42.06,46 C42.9133376,46 43.6199972,45.7266694 44.18,45.18 C44.7400028,44.6333306 45.02,43.9466708 45.02,43.12 L45.02,35.14 C45.02,34.8999988 44.9366675,34.6966675 44.77,34.53 C44.6033325,34.3633325 44.4000012,34.28 44.16,34.28 L37.26,34.28 C37.1399994,34.28 37.0400004,34.3199996 36.96,34.4 C36.8799996,34.4800004 36.84,34.5799994 36.84,34.7 L36.84,36.22 C36.84,36.3400006 36.8799996,36.4399996 36.96,36.52 C37.0400004,36.6000004 37.1399994,36.64 37.26,36.64 L42.62,36.64 L42.62,43.12 C42.62,43.253334 42.5633339,43.3733328 42.45,43.48 C42.3366661,43.5866672 42.2066674,43.64 42.06,43.64 L37.08,43.64 C36.9599994,43.64 36.8600004,43.6799996 36.78,43.76 C36.6999996,43.8400004 36.66,43.9399994 36.66,44.06 L36.66,45.58 C36.66,45.7000006 36.6999996,45.7999996 36.78,45.88 Z M33.93,34.53 C33.7633325,34.3633325 33.5600012,34.28 33.32,34.28 L30.96,34.28 C30.8399994,34.28 30.7400004,34.3199996 30.66,34.4 C30.5799996,34.4800004 30.54,34.5799994 30.54,34.7 L30.54,36.06 C30.54,36.1800006 30.5799996,36.2799996 30.66,36.36 C30.7400004,36.4400004 30.8399994,36.48 30.96,36.48 L31.88,36.48 L31.88,43.1 C31.88,43.2466674 31.8266672,43.3733328 31.72,43.48 C31.6133328,43.5866672 31.4800008,43.64 31.32,43.64 L29.28,43.64 L29.28,34.7 C29.28,34.5799994 29.2400004,34.4800004 29.16,34.4 C29.0799996,34.3199996 28.9800006,34.28 28.86,34.28 L27.48,34.28 C27.3599994,34.28 27.2600004,34.3199996 27.18,34.4 C27.0999996,34.4800004 27.06,34.5799994 27.06,34.7 L27.06,43.64 L25.02,43.64 C24.8733326,43.64 24.7466672,43.5866672 24.64,43.48 C24.5333328,43.3733328 24.48,43.2466674 24.48,43.1 L24.48,36.48 L25.4,36.48 C25.5200006,36.48 25.6199996,36.4400004 25.7,36.36 C25.7800004,36.2799996 25.82,36.1800006 25.82,36.06 L25.82,34.7 C25.82,34.5799994 25.7800004,34.4800004 25.7,34.4 C25.6199996,34.3199996 25.5200006,34.28 25.4,34.28 L23.04,34.28 C22.7999988,34.28 22.5966675,34.3633325 22.43,34.53 C22.2633325,34.6966675 22.18,34.8999988 22.18,35.14 L22.18,43.08 C22.18,43.613336 22.3099987,44.1033311 22.57,44.55 C22.8300013,44.9966689 23.1833311,45.3499987 23.63,45.61 C24.0766689,45.8700013 24.566664,46 25.1,46 L31.24,46 C31.773336,46 32.2666644,45.8700013 32.72,45.61 C33.1733356,45.3499987 33.5299987,44.9966689 33.79,44.55 C34.0500013,44.1033311 34.18,43.613336 34.18,43.08 L34.18,35.14 C34.18,34.8999988 34.0966675,34.6966675 33.93,34.53 Z M46.68,66.02 C46.7600004,66.1000004 46.8599994,66.14 46.98,66.14 L52.6,66.14 C53.133336,66.14 53.6233311,66.0100013 54.07,65.75 C54.5166689,65.4899987 54.873332,65.1366689 55.14,64.69 C55.406668,64.2433311 55.54,63.753336 55.54,63.22 L55.54,55.14 C55.54,54.8999988 55.4566675,54.6966675 55.29,54.53 C55.1233325,54.3633325 54.9200012,54.28 54.68,54.28 L45.68,54.28 C45.5599994,54.28 45.4600004,54.3199996 45.38,54.4 C45.2999996,54.4800004 45.26,54.5799994 45.26,54.7 L45.26,56.22 C45.26,56.3400006 45.2999996,56.4399996 45.38,56.52 C45.4600004,56.6000004 45.5599994,56.64 45.68,56.64 L46.76,56.64 L46.76,60.56 C46.76,60.8000012 46.8433325,61.0033325 47.01,61.17 C47.1766675,61.3366675 47.3799988,61.42 47.62,61.42 L50.26,61.42 C50.3800006,61.42 50.4799996,61.3800004 50.56,61.3 C50.6400004,61.2199996 50.68,61.1200006 50.68,61 L50.68,59.52 C50.68,59.3999994 50.6400004,59.3000004 50.56,59.22 C50.4799996,59.1399996 50.3800006,59.1 50.26,59.1 L49.16,59.1 L49.16,56.64 L53.14,56.64 L53.14,63.24 C53.14,63.3866674 53.0866672,63.5133328 52.98,63.62 C52.8733328,63.7266672 52.7466674,63.78 52.6,63.78 L46.98,63.78 C46.8599994,63.78 46.7600004,63.8199996 46.68,63.9 C46.5999996,63.9800004 46.56,64.0799994 46.56,64.2 L46.56,65.72 C46.56,65.8400006 46.5999996,65.9399996 46.68,66.02 Z M32.1,65.88 C32.1800004,65.9600004 32.2799994,66 32.4,66 L35.42,66 C35.6600012,66 35.8633325,65.9166675 36.03,65.75 C36.1966675,65.5833325 36.28,65.3800012 36.28,65.14 L36.28,56.64 L40.46,56.64 L40.46,65.58 C40.46,65.7000006 40.4999996,65.7999996 40.58,65.88 C40.6600004,65.9600004 40.7599994,66 40.88,66 L42.44,66 C42.5600006,66 42.6599996,65.9600004 42.74,65.88 C42.8200004,65.7999996 42.86,65.7000006 42.86,65.58 L42.86,55.14 C42.86,54.8999988 42.7766675,54.6966675 42.61,54.53 C42.4433325,54.3633325 42.2400012,54.28 42,54.28 L32.4,54.28 C32.2799994,54.28 32.1800004,54.3199996 32.1,54.4 C32.0199996,54.4800004 31.98,54.5799994 31.98,54.7 L31.98,56.22 C31.98,56.3400006 32.0199996,56.4399996 32.1,56.52 C32.1800004,56.6000004 32.2799994,56.64 32.4,56.64 L33.88,56.64 L33.88,63.7 L32.4,63.7 C32.2799994,63.7 32.1800004,63.7399996 32.1,63.82 C32.0199996,63.9000004 31.98,63.9999994 31.98,64.12 L31.98,65.58 C31.98,65.7000006 32.0199996,65.7999996 32.1,65.88 Z M27.2,65.88 C27.2800004,65.9600004 27.3799994,66 27.5,66 L29.06,66 C29.1800006,66 29.2799996,65.9600004 29.36,65.88 C29.4400004,65.7999996 29.48,65.7000006 29.48,65.58 L29.48,55.14 C29.48,54.8999988 29.3966675,54.6966675 29.23,54.53 C29.0633325,54.3633325 28.8600012,54.28 28.62,54.28 L25.54,54.28 C25.4199994,54.28 25.3200004,54.3199996 25.24,54.4 C25.1599996,54.4800004 25.12,54.5799994 25.12,54.7 L25.12,56.22 C25.12,56.3400006 25.1599996,56.4399996 25.24,56.52 C25.3200004,56.6000004 25.4199994,56.64 25.54,56.64 L27.08,56.64 L27.08,65.58 C27.08,65.7000006 27.1199996,65.7999996 27.2,65.88 Z" id="Combined-Shape" fill="#2389FF"></path>
                </g>
            </g>
        </g>
    </g>
</svg>