<?xml version="1.0" encoding="UTF-8" standalone="no"?>
<!-- Created with Inkscape (http://www.inkscape.org/) -->

<svg
   version="1.1"
   id="svg25"
   xml:space="preserve"
   width="334.72638"
   height="244.28986"
   viewBox="0 0 334.72638 244.28985"
   xmlns="http://www.w3.org/2000/svg"
   xmlns:svg="http://www.w3.org/2000/svg"><defs
     id="defs29"><clipPath
       clipPathUnits="userSpaceOnUse"
       id="clipPath39"><path
         d="M 0,841.89 H 595.276 V 0 H 0 Z"
         id="path37" /></clipPath></defs><g
     id="g31"
     transform="matrix(1.3333333,0,0,-1.3333333,-229.48773,683.40492)"><g
       id="g33"><g
         id="g35"
         clip-path="url(#clipPath39)"><g
           id="g41"
           transform="translate(316.5322,407.6506)"><path
             d="m 0,0 v 14.33 c 0,7.982 -5.579,13.515 -13.515,13.515 -7.89,0 -13.467,-5.533 -13.467,-13.515 V 0 h 6.349 v 14.33 c 0,4.671 2.947,7.755 7.118,7.755 4.218,0 7.166,-3.084 7.166,-7.755 V 0 Z"
             style="fill:#17253a;fill-opacity:1;fill-rule:nonzero;stroke:none"
             id="path43" /></g><g
           id="g45"
           transform="translate(349.7773,422.7067)"><path
             d="M 0,0 C 0,7.438 -5.26,12.789 -13.197,12.789 -21.088,12.789 -26.303,7.438 -26.303,0 v -6.531 c 0,-2.448 -0.726,-3.128 -2.811,-3.128 h -1.27 v -5.397 h 4.671 c 4.126,0 5.76,1.905 5.76,6.122 V 0 c 0,4.126 2.63,7.029 6.756,7.029 4.173,0 6.848,-2.903 6.848,-7.029 V -15.056 H 0 Z"
             style="fill:#17253a;fill-opacity:1;fill-rule:nonzero;stroke:none"
             id="path47" /></g><g
           id="g49"
           transform="translate(380.5713,421.2556)"><path
             d="m 0,0 c 0,8.525 -6.394,14.285 -15.373,14.285 -3.899,0 -8.07,-1.361 -11.02,-3.537 l 2.722,-4.626 c 1.904,1.542 4.761,2.585 8.117,2.585 5.033,0 9.252,-3.719 9.252,-8.707 0,-5.169 -3.492,-8.707 -8.255,-8.707 -3.536,0 -5.939,1.814 -5.939,4.217 0,2.223 1.359,3.583 3.446,3.583 1.225,0 2.359,-0.454 3.22,-1.223 l 2.312,3.808 c -1.315,1.542 -3.855,2.585 -6.485,2.585 -4.671,0 -8.707,-3.446 -8.707,-8.707 0,-6.576 5.715,-9.841 12.471,-9.841 C -6.03,-14.285 0,-8.389 0,0"
             style="fill:#17253a;fill-opacity:1;fill-rule:nonzero;stroke:none"
             id="path51" /></g><g
           id="g53"
           transform="translate(411.0518,407.6506)"><path
             d="M 0,0 V 27.21 H -6.214 V 9.977 L -20.771,27.21 h -5.033 V 0 h 6.212 V 17.232 L -5.08,0 Z"
             style="fill:#17253a;fill-opacity:1;fill-rule:nonzero;stroke:none"
             id="path55" /></g><g
           id="g57"
           transform="translate(185.459,363.3732)"><path
             d="M 0,0 V 15.465 H -6.349 V -0.77 Z"
             style="fill:#17253a;fill-opacity:1;fill-rule:nonzero;stroke:none"
             id="path59" /></g><g
           id="g61"
           transform="translate(217.1138,351.6291)"><path
             d="m 0,0 v 15.056 c 0,7.437 -5.26,12.788 -13.197,12.788 -7.89,0 -13.106,-5.351 -13.106,-12.788 V 8.525 c 0,-2.448 -0.726,-3.128 -2.812,-3.128 h -1.269 V 0 h 4.671 c 4.126,0 5.759,1.905 5.759,6.122 v 8.934 c 0,4.127 2.63,7.029 6.757,7.029 4.173,0 6.848,-2.902 6.848,-7.029 L -6.349,0 Z"
             style="fill:#17253a;fill-opacity:1;fill-rule:nonzero;stroke:none"
             id="path63" /></g><g
           id="g65"
           transform="translate(242.6504,351.6291)"><path
             d="m 0,0 v 13.649 c 0,9.932 -5.215,14.058 -12.97,14.058 -4.126,0 -8.072,-1.586 -11.202,-3.989 l 2.858,-4.309 c 1.905,1.406 4.625,2.766 7.573,2.766 4.988,0 7.392,-3.128 7.392,-8.933 L -6.349,0 Z"
             style="fill:#17253a;fill-opacity:1;fill-rule:nonzero;stroke:none"
             id="path67" /></g><g
           id="g69"
           transform="translate(256.5752,357.0266)"><path
             d="M 0,0 H -10.113 V -5.397 H 16.188 V 0 H 11.11 c 2.268,2.176 3.674,5.215 3.674,9.023 0,7.709 -5.76,13.333 -13.969,13.333 -4.488,0 -8.615,-1.905 -11.609,-5.351 l 4.081,-3.673 c 1.816,2.176 4.173,3.31 6.985,3.31 4.671,0 8.163,-3.447 8.163,-8.118 C 8.435,3.672 4.896,0 0,0"
             style="fill:#17253a;fill-opacity:1;fill-rule:nonzero;stroke:none"
             id="path71" /></g><g
           id="g73"
           transform="translate(303.334,351.6291)"><path
             d="m 0,0 v 14.33 c 0,7.982 -5.579,13.514 -13.515,13.514 -7.89,0 -13.468,-5.532 -13.468,-13.514 V 0 h 6.349 v 14.33 c 0,4.67 2.947,7.755 7.119,7.755 4.218,0 7.166,-3.085 7.166,-7.755 V 0 Z"
             style="fill:#17253a;fill-opacity:1;fill-rule:nonzero;stroke:none"
             id="path75" /></g><g
           id="g77"
           transform="translate(327.1924,366.6848)"><path
             d="m 0,0 c 0.861,4.398 4.172,7.347 9.024,7.347 3.854,0 5.805,-1.679 5.759,-3.72 C 14.646,-0.952 6.666,-1.86 0,0 m 20.95,3.765 c 0,4.67 -4.081,9.114 -11.971,9.114 -8.39,0 -15.193,-6.077 -15.193,-15.102 0,-7.889 6.259,-13.423 14.738,-13.423 4.989,0 8.707,1.634 11.565,4.716 l -3.809,3.493 c -1.678,-1.542 -4.671,-2.811 -7.483,-2.811 -4.399,0 -7.663,2.041 -8.662,5.623 9.388,-3.085 20.815,-0.046 20.815,8.39"
             style="fill:#17253a;fill-opacity:1;fill-rule:nonzero;stroke:none"
             id="path79" /></g><g
           id="g81"
           transform="translate(359.3027,356.6174)"><path
             d="m 0,0 c -2.812,0 -4.807,0.861 -6.439,1.95 l -2.585,-4.535 c 2.676,-1.904 5.669,-2.947 9.295,-2.947 8.435,0 14.15,5.624 14.15,14.148 0,8.526 -5.715,14.15 -14.15,14.15 -3.626,0 -6.619,-1.044 -9.295,-2.95 l 2.629,-4.579 c 1.588,1.134 3.583,1.996 6.395,1.996 4.58,0 8.072,-3.492 8.072,-8.617 C 8.072,3.491 4.58,0 0,0"
             style="fill:#17253a;fill-opacity:1;fill-rule:nonzero;stroke:none"
             id="path83" /></g><g
           id="g85"
           transform="translate(398.7607,351.6291)"><path
             d="m 0,0 v 13.649 c 0,9.932 -5.215,14.058 -12.97,14.058 -4.126,0 -8.072,-1.586 -11.202,-3.989 l 2.858,-4.309 c 1.905,1.406 4.626,2.766 7.573,2.766 4.988,0 7.392,-3.128 7.392,-8.933 L -6.349,0 Z"
             style="fill:#17253a;fill-opacity:1;fill-rule:nonzero;stroke:none"
             id="path87" /></g><g
           id="g89"
           transform="translate(404.4316,379.7004)"><path
             d="m 0,0 v -28.071 h 6.349 v 26.892 c 0,6.349 4.626,7.346 9.886,4.489 l 2.494,4.581 C 10.838,12.743 0,10.928 0,0"
             style="fill:#17253a;fill-opacity:1;fill-rule:nonzero;stroke:none"
             id="path91" /></g><g
           id="g93"
           transform="translate(221.7378,486.405)"><path
             d="m 0,0 c 12.944,0 23.475,-10.531 23.475,-23.475 0,-12.943 -10.531,-23.474 -23.475,-23.474 -12.944,0 -23.476,10.531 -23.476,23.474 C -23.476,-10.531 -12.944,0 0,0 m 0,-51.15 c 15.261,0 27.676,12.415 27.676,27.675 0,15.261 -12.415,27.677 -27.676,27.677 -15.261,0 -27.677,-12.416 -27.677,-27.677 0,-15.26 12.416,-27.675 27.677,-27.675"
             style="fill:#17253a;fill-opacity:1;fill-rule:nonzero;stroke:none"
             id="path95" /></g><g
           id="g97"
           transform="translate(221.7378,508.3517)"><path
             d="m 0,0 c 25.046,0 45.421,-20.376 45.421,-45.421 0,-25.045 -20.375,-45.421 -45.421,-45.421 -25.045,0 -45.42,20.376 -45.42,45.421 C -45.42,-20.376 -25.045,0 0,0 m 0,-95.044 c 26.658,0 48.47,21.13 49.575,47.522 h 142.87 c 1.159,0 2.1,0.94 2.1,2.101 0,1.16 -0.941,2.1 -2.1,2.1 h -42.772 v 22.195 c 0,1.16 -0.941,2.1 -2.101,2.1 -1.159,0 -2.101,-0.94 -2.101,-2.1 v -22.195 h -11.554 v 42.295 c 0,1.16 -0.941,2.1 -2.101,2.1 -1.16,0 -2.101,-0.94 -2.101,-2.1 V -43.321 H 103.68 v 22.195 c 0,1.16 -0.94,2.1 -2.1,2.1 -1.161,0 -2.101,-0.94 -2.101,-2.1 V -43.321 H 49.575 C 48.47,-16.93 26.658,4.202 0,4.202 c -27.361,0 -49.622,-22.262 -49.622,-49.623 0,-27.363 22.261,-49.623 49.622,-49.623"
             style="fill:#17253a;fill-opacity:1;fill-rule:nonzero;stroke:none"
             id="path99" /></g><g
           id="g101"
           transform="translate(414.1826,333.5383)"><path
             d="m 0,0 h -236.484 c -1.16,0 -2.101,-0.94 -2.101,-2.101 0,-1.161 0.941,-2.101 2.101,-2.101 H 0 c 1.159,0 2.101,0.94 2.101,2.101 C 2.101,-0.94 1.159,0 0,0"
             style="fill:#17253a;fill-opacity:1;fill-rule:nonzero;stroke:none"
             id="path103" /></g></g></g></g></svg>
