<?xml version="1.0" encoding="UTF-8"?>
<svg width="78px" height="44px" viewBox="0 0 78 44" version="1.1" xmlns="http://www.w3.org/2000/svg" xmlns:xlink="http://www.w3.org/1999/xlink">
    <!-- Generator: sketchtool 49.1 (51147) - http://www.bohemiancoding.com/sketch -->
    <title>D3B67AE7-B15D-430E-82DB-347E40499C72</title>
    <desc>Created with sketchtool.</desc>
    <defs></defs>
    <g id="Page-1" stroke="none" stroke-width="1" fill="none" fill-rule="evenodd">
        <g id="HP-menu/default" transform="translate(-1142.000000, -26.000000)">
            <g id="Logo" transform="translate(1143.000000, 26.000000)">
                <g id="Group" transform="translate(-1.000000, 0.000000)">
                    <path d="M49.5,0 L77.5,0 C77.7761424,-5.07265313e-17 78,0.223857625 78,0.5 L78,43.5 C78,43.7761424 77.7761424,44 77.5,44 L49.5,44 C49.2238576,44 49,43.7761424 49,43.5 L49,0.5 C49,0.223857625 49.2238576,5.07265313e-17 49.5,0 Z" id="Rectangle-17-Copy-4" fill="#FF5A5F"></path>
                    <g id="Group-4-Copy-10" transform="translate(63.099998, 21.699999) rotate(-90.000000) translate(-63.099998, -21.699999) translate(48.099998, 16.199999)" stroke="#FFFFFF" stroke-linejoin="round" stroke-width="0.8">
                        <g id="Group-6" transform="translate(0.199999, 0.000000)">
                            <path d="M4.04999989,7.6499998 L4.04999989,10.3499997 L6.35869548,10.3499997 C7.07186316,10.3499997 7.6499998,9.77186309 7.6499998,9.05869541 L7.6499998,6.29999983" id="Path-12"></path>
                            <polyline id="Path-11" points="2.24999994 10.7999997 2.24999994 6.29999983 5.84999985 6.29999983 5.84999985 8.99999976"></polyline>
                            <path d="M19.483789,6.29999983 L0.449999988,6.29999983 L0.449999988,4.49999988 L19.3972983,4.49999988 C19.7233697,2.24219036 21.6956966,0.674999982 24.0766886,0.674999982 C26.685301,0.674999982 28.7999992,2.79045448 28.7999992,5.39999986 C28.7999992,8.00954523 26.685301,10.1249997 24.0766886,10.1249997 C21.853978,10.1249997 19.9874048,8.41904027 19.483789,6.29999983 Z M24.0766886,8.41110871 C25.7367147,8.41110871 27.0824317,7.06212323 27.0824317,5.39806531 C27.0824317,3.73400739 25.7367147,2.38502191 24.0766886,2.38502191 C22.4166624,2.38502191 21.0709454,3.73400739 21.0709454,5.39806531 C21.0709454,7.06212323 22.4166624,8.41110871 24.0766886,8.41110871 Z M14.0358104,4.49999988 L14.0358104,6.29999983" id="Combined-Shape"></path>
                        </g>
                    </g>
                    <path d="M39.8535,10.8585 C41.4485,10.8585 42.043,11.453 42.043,13.3815 L42.043,18.5 L38.4325,18.5 L38.476,17.311 L40.6365,17.2965 L40.6365,13.6135 C40.6365,13.0335 40.593,12.5695 40.5495,12.2215 C40.3465,12.0765 39.9405,12.033 39.5055,12.033 C38.8965,12.033 38.0845,12.2215 37.2725,12.671 L36.7505,18.5 L35.315,18.5 L35.9385,12.642 L35.3875,10.9165 L36.6635,10.8295 L36.9535,11.743 C38.0265,11.105 38.9255,10.8585 39.8535,10.8585 Z M31.0665,10.8875 C33.662,10.8875 34.01,11.25 34.01,14.3385 L34.01,14.904 C34.01,17.427 33.0965,18.5 30.559,18.5 L28.065,18.5 L28.065,17.3545 L30.3415,17.3545 C32.328,17.3545 32.589,16.731 32.589,14.672 L32.589,14.1355 C32.589,13.28 32.5745,12.5695 32.4875,12.091 C32.183,12.0475 31.777,12.0185 30.994,12.0185 L29.138,12.0185 L29.138,14.179 L30.617,14.2225 L30.617,15.1795 C30.1095,15.2085 29.602,15.223 29.0655,15.223 C28.1955,15.223 27.8185,15.02 27.8185,13.86 L27.8185,10.322 L28.9785,10.206 L29.109,10.8875 L31.0665,10.8875 Z M22.5405,10.8295 C25.658,10.8295 26.0785,11.163 26.0785,13.4685 L26.0785,18.5 L24.672,18.5 L24.672,13.57 C24.672,13.106 24.672,12.613 24.614,12.1055 C24.0775,12.0185 23.396,11.9895 22.642,11.9895 C22.3085,11.9895 21.888,11.9895 21.4385,12.004 L21.4385,16.673 C21.4385,17.8475 20.989,18.5435 19.365,18.5435 C19.075,18.5435 18.727,18.5 18.5095,18.442 L18.5095,17.3255 C18.7995,17.3545 18.959,17.3545 19.1475,17.3545 C19.858,17.3545 20.032,17.079 20.032,16.4265 L20.032,12.062 C19.597,12.091 19.162,12.1055 18.7415,12.1345 L18.6255,10.989 C19.858,10.8875 21.2645,10.8295 22.5405,10.8295 Z M13.333,10.8295 C16.668,10.8295 17.045,11.0905 17.045,13.2075 L17.045,18.5 L15.6385,18.5 L15.6385,13.106 C15.6385,12.7725 15.6385,12.41 15.595,12.091 C15.0585,12.004 14.319,11.9895 13.5215,11.9895 C13.1155,11.9895 12.637,11.9895 12.1295,12.004 L12.1295,18.5145 L10.7085,18.5145 L10.7085,15.107 C10.7085,13.773 10.7375,12.9175 10.8245,12.0475 L9.8965,12.091 L9.795,10.931 C10.9115,10.8585 12.173,10.8295 13.333,10.8295 Z M38.4615,24.8295 C41.3905,24.8295 41.9415,25.1485 41.9415,27.2075 L41.9415,32.5 L40.535,32.5 L40.535,27.3815 C40.535,26.932 40.535,26.4825 40.477,26.091 C39.9405,26.004 39.2735,25.9895 38.5485,25.9895 C37.693,25.9895 36.5765,26.033 35.634,26.1055 L35.547,24.9455 C36.446,24.873 37.49,24.8295 38.4615,24.8295 Z M35.779,30.499 C35.779,29.861 35.8225,29.049 35.924,28.208 C36.3155,28.1645 36.765,28.15 37.2,28.15 L37.2,32.5 L35.779,32.5 L35.779,30.499 Z M30.211,24.8295 C33.3285,24.8295 33.749,25.163 33.749,27.4685 L33.749,32.5 L32.3425,32.5 L32.3425,27.57 C32.3425,27.106 32.3425,26.613 32.2845,26.1055 C31.748,26.0185 31.0665,25.9895 30.3125,25.9895 C29.979,25.9895 29.5585,25.9895 29.109,26.004 L29.109,30.673 C29.109,31.8475 28.6595,32.5435 27.0355,32.5435 C26.7455,32.5435 26.3975,32.5 26.18,32.442 L26.18,31.3255 C26.47,31.3545 26.6295,31.3545 26.818,31.3545 C27.5285,31.3545 27.7025,31.079 27.7025,30.4265 L27.7025,26.062 C27.2675,26.091 26.8325,26.1055 26.412,26.1345 L26.296,24.989 C27.5285,24.8875 28.935,24.8295 30.211,24.8295 Z M21.482,32.5 L23.8455,26.062 L23.831,26.0185 L18.6255,26.0185 L18.5385,24.902 L25.02,24.902 L25.165,25.9895 L22.903,32.5 L21.482,32.5 Z M18.698,35.2985 L18.698,30.6005 C18.698,29.9335 18.7415,28.904 18.8285,28.034 C19.1765,28.034 19.742,28.005 20.09,28.005 L20.09,35.2985 L18.698,35.2985 Z M11.4335,32.5 L11.4625,31.311 L15.4645,31.311 L15.4935,31.253 C14.8265,30.412 14.0725,29.513 13.333,28.4545 L10.955,25.0325 L10.9695,24.9165 L12.3905,24.8005 L14.9425,28.672 L14.986,28.6575 L16.0735,24.8875 L17.4365,24.8875 C16.871,26.8885 16.378,28.237 15.7255,29.4695 L15.7255,29.513 L17.2045,31.369 L17.0305,32.5 L11.4335,32.5 Z M8.548,29.397 L8.548,26.033 L7.504,26.033 L7.388,24.8875 C7.7505,24.873 8.1855,24.873 8.519,24.873 C9.6355,24.873 9.969,25.0615 9.969,26.1055 L9.969,29.397 L8.548,29.397 Z M6.3005,31.2965 L7.4025,31.3545 L7.4025,32.5 L0.95,32.5 L0.95,31.311 L4.8795,31.311 L4.8795,27.077 C4.8795,26.7145 4.865,26.3955 4.807,26.0765 C4.43,26.033 3.995,26.004 3.4005,26.004 C2.719,26.004 1.7765,26.0185 1.0805,26.091 L0.979,24.9165 C1.7765,24.844 2.632,24.8295 3.386,24.8295 C5.764,24.8295 6.3005,25.134 6.3005,27.1495 L6.3005,31.2965 Z" id="מפתח-התקציב-copy-10" fill="#FE656A"></path>
                    <path d="M1,43 L43,43" id="Path-15-Copy" stroke="#FE656A"></path>
                    <path d="M1,1 L43,1" id="Path-15-Copy" stroke="#FE656A"></path>
                </g>
            </g>
        </g>
    </g>
</svg>