<?xml version="1.0" encoding="UTF-8"?>
<svg width="77px" height="44px" viewBox="0 0 77 44" version="1.1" xmlns="http://www.w3.org/2000/svg" xmlns:xlink="http://www.w3.org/1999/xlink">
    <!-- Generator: sketchtool 51.2 (57519) - http://www.bohemiancoding.com/sketch -->
    <title>322786DF-9396-4058-8BFE-89AB9B83E8AF</title>
    <desc>Created with sketchtool.</desc>
    <defs>
        <path d="M55.727185,10.77605 L51.8744453,12.1783325 L52.1480614,12.9300866 L56.0008011,11.5278041 L56.9584574,14.1589433 L54.7971645,14.9455897 L55.0707806,15.6973437 L57.2320736,14.9106974 L57.5740937,15.85039 L55.3576449,16.6571114 C54.8950776,16.8254721 54.3836095,16.5869706 54.2152487,16.1244034 L53.5624364,14.3308162 L55.7237294,13.5441699 L55.4501132,12.7924158 L52.9129432,13.7158702 C52.7053521,13.7914272 52.5983172,14.0209641 52.6738742,14.2285553 L53.4634946,16.3980195 C53.7829694,17.275769 54.7535114,17.7283402 55.631261,17.4088655 L57.8477098,16.6021441 L61.6534247,27.0582598 C59.8068723,28.4335786 58.9657434,30.8574678 59.734836,32.9705323 C60.702602,35.6294474 63.6433044,37.0000795 66.303036,36.0320163 C68.5064966,35.2300223 69.8602435,33.0497293 69.6570745,30.7673736 L74.1418711,29.1350412 C74.3494622,29.0594842 74.4564971,28.8299472 74.3809401,28.6223561 L73.7653038,26.9309094 C73.6897468,26.7233182 73.4602099,26.6162834 73.2526187,26.6918404 L68.7937989,28.3147181 C67.7323722,26.6858017 65.925164,25.8109465 64.0577588,26.0622223 L57.6915575,8.57122802 C57.6160005,8.36363686 57.3864636,8.25660203 57.1788724,8.33215903 L55.4874258,8.94779527 C55.2798346,9.02335228 55.1727998,9.25288922 55.2483568,9.46048038 L55.727185,10.77605 Z M60.7835398,22.3292271 L61.7232323,21.987207 L63.4201611,26.6494805 C63.4881642,26.8363174 63.6830764,26.9448438 63.8777149,26.9042448 C65.6241413,26.5399636 67.3537543,27.3761537 68.2747572,29.0000055 C68.3710957,29.1698632 68.5759993,29.2453328 68.7594988,29.1785445 L73.1503578,27.5804025 L73.4923779,28.5200951 L69.0850001,30.1242495 C68.9055873,30.1895504 68.7973364,30.3725456 68.826503,30.5612317 C69.1392332,32.5843634 67.9778939,34.5710757 66.0294199,35.2802622 C63.7848105,36.0972333 61.3032202,34.9405888 60.4865901,32.6969162 C59.8136007,30.847893 60.626746,28.6813377 62.3541847,27.5436416 C62.508925,27.4417292 62.5734215,27.2468867 62.5100501,27.0727753 L60.7835398,22.3292271 Z M60.5099237,21.577473 L56.1369189,9.56274131 L57.0766115,9.22072119 L61.4496162,21.2354529 L60.5099237,21.577473 Z M48.5,-5.45711382e-05 L76.5,-5.45711382e-05 C76.7761424,-5.45711382e-05 77,0.223803054 77,0.499945429 L77,43.5 C77,43.7761424 76.7761424,44 76.5,44 L48.5,44 C48.2238576,44 48,43.7761424 48,43.5 L48,0.499945429 C48,0.223803054 48.2238576,-5.45711382e-05 48.5,-5.45711382e-05 Z M37.7515,10.8295 C40.666,10.8295 40.9415,11.134 40.9415,13.396 L40.9415,18.5 L39.5205,18.5 L39.5205,13.28 C39.5205,12.816 39.5205,12.468 39.4915,12.0765 C39.0855,12.0185 38.491,12.004 37.795,12.004 C37.1135,12.004 36.374,12.033 35.5765,12.091 L35.475,10.931 C36.2435,10.873 36.9105,10.8295 37.7515,10.8295 Z M31.415,10.8295 C33.8075,10.8295 34.4455,11.192 34.4455,14.3385 C34.4455,17.543 33.8075,18.5 30.835,18.5 L29.066,18.5 L29.066,17.311 L30.6465,17.311 C32.749,17.311 32.9955,16.992 32.9955,14.3385 C32.9955,13.4395 32.981,12.6855 32.865,12.0765 C32.401,12.004 31.937,11.9895 31.4295,11.9895 C30.719,11.9895 29.8345,12.0185 29.0805,12.091 L28.9935,10.931 C29.791,10.844 30.748,10.8295 31.415,10.8295 Z M26.4995,10.902 L27.935,10.902 C27.935,17.543 26.1515,18.5725 23.0195,18.5725 C22.28,18.5725 21.1925,18.5145 20.4095,18.355 C20.308,17.8475 20.25,17.427 20.2065,17.0065 L19.5105,10.902 L20.9315,10.902 L21.352,14.8315 L21.4245,14.846 C22.28,14.6865 22.7585,14.2515 22.9325,13.019 L23.2225,10.902 L24.6,10.902 C24.4695,11.7575 24.3245,12.613 24.1795,13.483 C23.9185,15.078 22.831,15.6 21.4535,15.774 L21.613,17.3255 C22.077,17.398 22.4975,17.4125 22.9905,17.4125 C25.2525,17.4125 26.4995,16.963 26.4995,10.902 Z M38.317,24.8875 C40.9125,24.8875 41.2605,25.25 41.2605,28.3385 L41.2605,28.904 C41.2605,31.427 40.347,32.5 37.8095,32.5 L35.3155,32.5 L35.3155,31.3545 L37.592,31.3545 C39.5785,31.3545 39.8395,30.731 39.8395,28.672 L39.8395,28.1355 C39.8395,27.28 39.825,26.5695 39.738,26.091 C39.4335,26.0475 39.0275,26.0185 38.2445,26.0185 L36.3885,26.0185 L36.3885,28.179 L37.8675,28.2225 L37.8675,29.1795 C37.36,29.2085 36.8525,29.223 36.316,29.223 C35.446,29.223 35.069,29.02 35.069,27.86 L35.069,24.322 L36.229,24.206 L36.3595,24.8875 L38.317,24.8875 Z M29.791,24.8295 C32.9085,24.8295 33.329,25.163 33.329,27.4685 L33.329,32.5 L31.9225,32.5 L31.9225,27.57 C31.9225,27.106 31.9225,26.613 31.8645,26.1055 C31.328,26.0185 30.6465,25.9895 29.8925,25.9895 C29.559,25.9895 29.1385,25.9895 28.689,26.004 L28.689,30.673 C28.689,31.8475 28.2395,32.5435 26.6155,32.5435 C26.3255,32.5435 25.9775,32.5 25.76,32.442 L25.76,31.3255 C26.05,31.3545 26.2095,31.3545 26.398,31.3545 C27.1085,31.3545 27.2825,31.079 27.2825,30.4265 L27.2825,26.062 C26.8475,26.091 26.4125,26.1055 25.992,26.1345 L25.876,24.989 C27.1085,24.8875 28.515,24.8295 29.791,24.8295 Z M22.831,32.5 L22.831,26.033 L21.7725,26.033 L21.7,24.8875 C22.0625,24.873 22.454,24.873 22.8165,24.873 C23.9185,24.873 24.2375,25.076 24.2375,26.1055 L24.2375,32.5 L22.831,32.5 Z M16.5815,24.8295 C19.9165,24.8295 20.2935,25.0905 20.2935,27.2075 L20.2935,32.5 L18.887,32.5 L18.887,27.106 C18.887,26.7725 18.887,26.41 18.8435,26.091 C18.307,26.004 17.5675,25.9895 16.77,25.9895 C16.364,25.9895 15.8855,25.9895 15.378,26.004 L15.378,32.5145 L13.957,32.5145 L13.957,29.107 C13.957,27.773 13.986,26.9175 14.073,26.0475 L13.145,26.091 L13.0435,24.931 C14.16,24.8585 15.4215,24.8295 16.5815,24.8295 Z M0,44 L0,43 L42,43 L42,44 L0,44 Z M0,1 L0,2.03287907e-20 L42,2.03287907e-20 L42,1 L0,1 Z M61.3453668,32.384347 C61.9887605,34.1520569 63.946321,35.0619933 65.7174112,34.4173692 C67.4885015,33.772745 68.4031839,31.8173977 67.7597901,30.0496878 C67.1163964,28.281978 65.158836,27.3720416 63.3877457,28.0166657 C61.6166554,28.6612899 60.701973,30.6166372 61.3453668,32.384347 Z M62.0971209,32.1107309 C61.6049899,30.7586122 62.3050462,29.2620783 63.6613618,28.7684198 C65.0176774,28.2747613 66.5159051,28.9711852 67.0080361,30.323304 C67.500167,31.6754227 66.8001107,33.1719565 65.4437951,33.6656151 C64.0874795,34.1592736 62.5892518,33.4628497 62.0971209,32.1107309 Z" id="path-1"></path>
    </defs>
    <g id="Page-1" stroke="none" stroke-width="1" fill="none" fill-rule="evenodd">
        <g id="OP_about" transform="translate(-1177.000000, -26.000000)">
            <g id="HP--menu">
                <g id="Logo-Copy-2" transform="translate(1177.000000, 26.000000)">
                    <rect id="Background" x="0" y="0" width="77" height="44"></rect>
                    <mask id="mask-2" fill="white">
                        <use xlink:href="#path-1"></use>
                    </mask>
                    <use id="Combined-Shape" fill="#2389FF" xlink:href="#path-1"></use>
                </g>
            </g>
        </g>
    </g>
</svg>