<?xml version="1.0" encoding="UTF-8"?>
<svg width="56px" height="26px" viewBox="0 0 56 26" version="1.1" xmlns="http://www.w3.org/2000/svg" xmlns:xlink="http://www.w3.org/1999/xlink">
    <!-- Generator: Sketch 50 (54983) - http://www.bohemiancoding.com/sketch -->
    <title>midot</title>
    <desc>Created with Sketch.</desc>
    <defs>
        <polygon id="path-1" points="0.0349851064 0.234305882 2.64754894 0.234305882 2.64754894 3.03025412 0.0349851064 3.03025412"></polygon>
        <polygon id="path-3" points="0 25.7658471 55.766766 25.7658471 55.766766 0.306035294 0 0.306035294"></polygon>
    </defs>
    <g id="Symbols" stroke="none" stroke-width="1" fill="none" fill-rule="evenodd">
        <g id="footer" transform="translate(-225.000000, -18.000000)">
            <g id="midot" transform="translate(225.000000, 18.000000)">
                <path d="M12.5103404,3.71448235 L13.6074043,2.58822353 C13.7307234,2.46128235 13.9305957,2.46128235 14.0539149,2.58822353 L15.9171064,4.50121176 L17.7922128,2.57537647 C17.9155319,2.44874118 18.1154043,2.44874118 18.2384255,2.57537647 L19.3351915,3.70163529 C19.4588085,3.82857647 19.4588085,4.03382353 19.3351915,4.16045882 C19.3351915,4.16045882 17.7770213,5.77704706 16.8324681,6.74791765 C16.132766,7.46643529 15.9275319,9.3158 15.9275319,9.3158 C15.9275319,9.3158 15.7261702,7.475 15.0175319,6.74791765 L12.5103404,4.17330588 C12.3867234,4.04636471 12.3867234,3.84081176 12.5103404,3.71448235" id="Fill-1" fill="#F2CE1E"></path>
                <g id="Group-5" transform="translate(14.595745, 0.071729)">
                    <mask id="mask-2" fill="white">
                        <use xlink:href="#path-1"></use>
                    </mask>
                    <g id="Clip-4"></g>
                    <path d="M0.115187234,1.37390118 L1.14493191,0.316465882 C1.25186809,0.206654118 1.42433617,0.206654118 1.53037872,0.316465882 L2.56757021,1.38154824 C2.67420851,1.49074824 2.67420851,1.66724235 2.56757021,1.77644235 L1.34480426,3.03025412 L0.115187234,1.76910118 C0.00825106383,1.66020706 0.00825106383,1.48218353 0.115187234,1.37390118" id="Fill-3" fill="#F2CE1E" mask="url(#mask-2)"></path>
                </g>
                <path d="M53.9890638,18.5993906 C55.1677447,17.2216965 55.766766,15.4787788 55.766766,13.4192729 C55.766766,11.7809671 55.4257021,10.4100024 54.7525106,9.34186118 C54.0763404,8.27188471 53.3033617,7.47873176 52.4550213,6.98626118 C51.6674468,6.52866118 49.9972766,6.24449647 48.099234,6.24449647 L39.8651489,6.24449647 L39.8651489,8.67932 L40.1344255,8.67932 C40.7218298,8.67932 41.2011064,9.16873176 41.2011064,9.77101412 L41.202,20.6686847 L44.6334894,20.6686847 L44.6605957,17.1311553 L44.6597021,9.69179059 C44.6597021,9.15129647 45.1217021,8.67870824 45.6483404,8.67870824 L48.4304681,8.67870824 C49.154,8.67870824 49.7842979,8.83899059 50.3052766,9.15557882 C50.8277447,9.47430824 51.2688936,10.0316259 51.6162128,10.8122376 C51.9611489,11.5848965 52.1362979,12.4361671 52.1351064,13.3431082 C52.1351064,14.6293435 51.8300851,15.7656965 51.2271915,16.7212729 C50.6651064,17.6116965 49.6404255,17.8955553 48.6946809,18.0717435 L48.6937872,20.6417671 C51.0499574,20.5243082 52.9780851,19.7828494 53.9890638,18.5993906" id="Fill-6" fill="#043D6A"></path>
                <path d="M16.8164128,9.64514353 L16.8164128,20.6691435 L20.3402426,20.6691435 L20.3396468,6.24434353 L19.8383277,6.24434353 C18.003434,6.24434353 16.8164128,7.53853176 16.8164128,9.64514353" id="Fill-8" fill="#043D6A"></path>
                <path d="M11.2763745,9.96925647 L11.2769702,20.6690212 L14.8005021,20.6690212 L14.7999064,9.72730353 C14.7999064,9.72730353 15.3056936,6.24452706 11.1119489,6.24452706 L1.53862979,6.24452706 L1.5395234,17.0238212 C1.5395234,17.5627859 1.0775234,18.0365976 0.551182979,18.0365976 L0.000119148936,18.0365976 L0.000417021277,20.6690212 L5.10624681,20.6690212 L5.10565106,9.88880941 C5.10565106,9.35015059 5.56765106,8.87725647 6.09399149,8.87725647 L10.211183,8.87725647 C10.7985872,8.87725647 11.2763745,9.36666824 11.2763745,9.96925647" id="Fill-10" fill="#043D6A"></path>
                <mask id="mask-4" fill="white">
                    <use xlink:href="#path-3"></use>
                </mask>
                <g id="Clip-13"></g>
                <polygon id="Fill-12" fill="#043D6A" mask="url(#mask-4)" points="35.0089362 11.7512353 38.5321702 11.7512353 38.5321702 6.24474118 35.0089362 6.24474118"></polygon>
                <path d="M33.676166,8.87685882 L33.676166,6.24474118 L21.6689319,6.24474118 L21.6689319,8.87685882 L27.2814426,8.87685882 C27.8688468,8.87685882 28.3469319,9.36657647 28.3469319,9.96794118 L28.3469319,20.6686235 L31.9145489,20.6686235 L31.9145489,9.88963529 C31.9145489,9.63177647 32.0211872,9.37361176 32.2079532,9.1806 C32.3956128,8.98758824 32.6496979,8.87685882 32.9022936,8.87685882 L33.676166,8.87685882 Z" id="Fill-14" fill="#043D6A" mask="url(#mask-4)"></path>
                <path d="M1.47220426,25.0769694 L1.47220426,23.3551576 C1.47220426,23.0284753 1.31850213,22.8941929 1.01139574,22.8941929 C0.790374468,22.8941929 0.449012766,22.9412988 0.0966297872,23.1511341 L0.0966297872,22.6204282 C0.477310638,22.4274165 0.750459574,22.4044753 1.05160851,22.4044753 C1.56871489,22.4044753 1.97769362,22.67304 1.97769362,23.2673694 L1.97769362,25.0769694 L1.47220426,25.0769694 Z" id="Fill-15" fill="#000000" mask="url(#mask-4)"></path>
                <path d="M4.31914894,25.0769694 L4.31914894,23.3551576 C4.31914894,23.0284753 4.16544681,22.8941929 3.85923404,22.8941929 C3.68855319,22.8941929 3.4493617,22.9235576 3.19378723,23.0284753 L3.19378723,24.3070635 C3.19378723,24.7793459 2.9152766,25.1292753 2.36451064,25.1292753 L2.18221277,25.1292753 L2.18221277,24.6511812 C2.22748936,24.6569929 2.27902128,24.6624988 2.32429787,24.6624988 C2.47234043,24.6624988 2.688,24.5695106 2.688,24.2602635 L2.688,22.7602165 C3.21106383,22.4332282 3.52948936,22.4044753 3.89885106,22.4044753 C4.41595745,22.4044753 4.82493617,22.67304 4.82493617,23.2673694 L4.82493617,25.0769694 L4.31914894,25.0769694 Z" id="Fill-16" fill="#000000" mask="url(#mask-4)"></path>
                <polygon id="Fill-17" fill="#000000" mask="url(#mask-4)" points="5.56395745 25.077 6.06974468 25.077 6.06974468 22.4568118 5.56395745 22.4568118"></polygon>
                <polygon id="Fill-18" fill="#000000" mask="url(#mask-4)" points="6.77978298 22.4566588 6.77978298 24.0028941 6.84233617 24.0028941 7.28497447 23.5538588 7.28497447 22.4566588"></polygon>
                <path d="M9.05019574,25.0769694 L9.05019574,24.6104988 L10.3176426,24.6104988 L10.3176426,23.3551576 C10.3176426,23.0284753 10.1642383,22.8941929 9.85713191,22.8941929 C9.5783234,22.8941929 9.29445106,23.0284753 9.05019574,23.3260988 L9.05019574,22.7602165 C9.2488766,22.5207106 9.52768511,22.4044753 9.89704681,22.4044753 C10.4144511,22.4044753 10.8234298,22.67304 10.8234298,23.2673694 L10.8234298,24.6104988 L11.1871319,24.6104988 L11.1871319,25.0769694 L9.05019574,25.0769694 Z" id="Fill-19" fill="#000000" mask="url(#mask-4)"></path>
                <polygon id="Fill-20" fill="#000000" mask="url(#mask-4)" points="11.6471064 25.077 12.1522979 25.077 12.1522979 22.4568118 11.6471064 22.4568118"></polygon>
                <path d="M12.8632,23.6120682 L12.8632,22.4567506 L13.3800085,22.4567506 L13.3800085,23.6120682 C13.3800085,24.2669624 13.7100511,24.6624682 14.0058383,24.6624682 C14.5685191,24.6624682 14.8014553,24.2018094 14.8014553,23.6120682 C14.8014553,23.1101153 14.6650298,22.8195271 14.2956681,22.8195271 C14.1249872,22.8195271 13.9540085,22.90548 13.8860936,22.9819506 L13.8860936,22.5965388 C14.1077106,22.4331976 14.3120511,22.4044447 14.4434128,22.4044447 C14.9265617,22.4044447 15.3069447,22.7075741 15.3069447,23.6120682 C15.3069447,24.5575506 14.8127745,25.1292447 14.0168596,25.1292447 C13.3120936,25.1292447 12.8632,24.56948 12.8632,23.6120682" id="Fill-21" fill="#000000" mask="url(#mask-4)"></path>
                <path d="M17.0657021,25.7658165 L17.0657021,25.6547812 C17.2530638,25.5266165 17.3209787,25.2289929 17.2703404,25.0191576 C17.105617,25.0124282 16.9915319,24.8848753 16.9915319,24.6921694 C16.9915319,24.4991576 17.1339149,24.3593694 17.3269362,24.3593694 C17.5711915,24.3593694 17.7305532,24.5811341 17.7305532,24.9258635 C17.7305532,25.2580518 17.5145957,25.6376518 17.0657021,25.7658165" id="Fill-22" fill="#000000" mask="url(#mask-4)"></path>
                <path d="M18.1736979,25.0769694 L18.1736979,24.6104988 L19.4414426,24.6104988 L19.4414426,23.3551576 C19.4414426,23.0284753 19.2877404,22.8941929 18.980634,22.8941929 C18.7018255,22.8941929 18.4179532,23.0284753 18.1736979,23.3260988 L18.1736979,22.7602165 C18.3723787,22.5207106 18.6511872,22.4044753 19.0205489,22.4044753 C19.5379532,22.4044753 19.9472298,22.67304 19.9472298,23.2673694 L19.9472298,24.6104988 L20.310634,24.6104988 L20.310634,25.0769694 L18.1736979,25.0769694 Z" id="Fill-23" fill="#000000" mask="url(#mask-4)"></path>
                <polygon id="Fill-24" fill="#000000" mask="url(#mask-4)" points="20.7703404 25.077 21.2761277 25.077 21.2761277 22.4568118 20.7703404 22.4568118"></polygon>
                <path d="M21.9867021,23.6120682 L21.9867021,22.4567506 L22.5038085,22.4567506 L22.5038085,23.6120682 C22.5038085,24.2669624 22.8335532,24.6624682 23.1293404,24.6624682 C23.6920213,24.6624682 23.9249574,24.2018094 23.9249574,23.6120682 C23.9249574,23.1101153 23.7888298,22.8195271 23.4194681,22.8195271 C23.2484894,22.8195271 23.0778085,22.90548 23.0095957,22.9819506 L23.0095957,22.5965388 C23.2315106,22.4331976 23.4358511,22.4044447 23.5669149,22.4044447 C24.0500638,22.4044447 24.4307447,22.7075741 24.4307447,23.6120682 C24.4307447,24.5575506 23.9362766,25.1292447 23.1406596,25.1292447 C22.4355957,25.1292447 21.9867021,24.56948 21.9867021,23.6120682" id="Fill-25" fill="#000000" mask="url(#mask-4)"></path>
                <path d="M27.8542511,25.0769694 L27.8542511,23.3551576 C27.8542511,23.0284753 27.7008468,22.8941929 27.3940383,22.8941929 C27.2236553,22.8941929 26.9844638,22.9235576 26.7291872,23.0284753 L26.7291872,24.3070635 C26.7291872,24.7793459 26.4503787,25.1292753 25.8996128,25.1292753 L25.7176128,25.1292753 L25.7176128,24.6511812 C25.7631872,24.6569929 25.8141234,24.6624988 25.8594,24.6624988 C26.0077404,24.6624988 26.2231021,24.5695106 26.2231021,24.2602635 L26.2231021,22.7602165 C26.746166,22.4332282 27.0645915,22.4044753 27.4339532,22.4044753 C27.9504638,22.4044753 28.360634,22.67304 28.360634,23.2673694 L28.360634,25.0769694 L27.8542511,25.0769694 Z" id="Fill-26" fill="#000000" mask="url(#mask-4)"></path>
                <polygon id="Fill-27" fill="#000000" mask="url(#mask-4)" points="29.0979574 25.077 29.6043404 25.077 29.6043404 22.4568118 29.0979574 22.4568118"></polygon>
                <path d="M31.6629064,25.1298565 C30.8771191,25.1298565 30.3144383,24.5401153 30.3144383,23.7347271 L30.3144383,22.4567506 L30.8312468,22.4567506 L30.8312468,23.85708 C31.1666511,23.7289153 31.4290766,23.5771976 31.4290766,23.3202565 L31.4237149,22.4567506 L31.9408213,22.4567506 L31.9408213,23.2269624 C31.9408213,23.7466565 31.4740553,23.90388 31.0704383,24.0611035 L30.8940979,24.1256447 C31.0147362,24.4590565 31.2926511,24.6624682 31.6554596,24.6624682 C32.1904383,24.6624682 32.5255447,24.3125388 32.5255447,23.7466565 L32.5255447,22.4567506 L33.0429489,22.4567506 L33.0429489,23.7347271 C33.0429489,24.5633624 32.4796723,25.1298565 31.6629064,25.1298565" id="Fill-28" fill="#000000" mask="url(#mask-4)"></path>
                <path d="M34.6282553,25.0769694 L33.4403404,25.0769694 L33.4403404,24.6104988 L34.3714894,24.6104988 L33.4403404,22.4567812 L33.9905106,22.4567812 L34.8790638,24.5172047 C35.1063404,24.4174871 35.1682979,24.1960282 35.1682979,23.8984047 L35.1682979,22.4567812 L35.6737872,22.4567812 L35.6737872,23.8925929 C35.6737872,24.4817224 35.4357872,25.0769694 34.6282553,25.0769694" id="Fill-29" fill="#000000" mask="url(#mask-4)"></path>
                <polygon id="Fill-30" fill="#000000" mask="url(#mask-4)" points="36.9920213 25.1298565 36.5431277 24.9258329 37.3840213 22.9235271 36.0879787 22.9235271 36.0879787 21.9138094 36.5943617 21.9138094 36.5943617 22.4567506 38.1179787 22.4567506"></polygon>
            </g>
        </g>
    </g>
</svg>