<?xml version="1.0" encoding="UTF-8"?>
<svg width="75px" height="32px" viewBox="0 0 75 32" version="1.1" xmlns="http://www.w3.org/2000/svg" xmlns:xlink="http://www.w3.org/1999/xlink">
    <!-- Generator: Sketch 50 (54983) - http://www.bohemiancoding.com/sketch -->
    <title>migdal</title>
    <desc>Created with Sketch.</desc>
    <defs>
        <linearGradient x1="67.1216231%" y1="91.4329189%" x2="13.1285443%" y2="65.815962%" id="linearGradient-1">
            <stop stop-color="#0E2D6D" offset="0%"></stop>
            <stop stop-color="#F6921E" offset="100%"></stop>
        </linearGradient>
        <path d="M2.53824153,1.31943434 C-0.256144068,3.76533333 -1.00010593,10.2144646 3.34480932,11.4508283 C3.59618644,11.5222626 4.42118644,11.1272727 4.08654661,11.0319192 C0.739512712,10.0796768 0.696292373,5.7380202 2.01069915,3.12048485 C3.00985169,1.13163636 5.34025424,-0.401454545 7.47521186,1.02723232 C9.2628178,2.22351515 9.55741525,4.72016162 9.15222458,6.67054545 C9.07627119,7.03579798 9.93209746,6.70933333 10.034428,6.59555556 C12.2097458,4.17260606 16.4618644,4.87757576 16.6528602,8.49422222 C16.7707627,10.7293737 15.5551907,12.7712323 13.6795551,13.8773333 C12.1198093,14.797899 10.3099576,14.9446465 8.77849576,15.9447273 C8.25889831,16.2844444 9.07055085,16.3361616 9.33432203,16.1638788 C11.457839,14.7772121 14.0345339,14.761697 15.8834746,12.8187475 C17.3688559,11.2572121 18.2284958,8.45478788 17.0752119,6.45688889 C15.6400424,3.97090909 12.3177966,4.29608081 10.1895127,5.74351515 C10.4040254,3.59660606 9.75476695,1.12258586 7.60360169,0.289939394 C7.10911017,0.0985858586 6.57807203,0.0096969697 6.04067797,0.0096969697 C4.77044492,0.0096969697 3.46652542,0.506505051 2.53824153,1.31943434" id="path-2"></path>
    </defs>
    <g id="Symbols" stroke="none" stroke-width="1" fill="none" fill-rule="evenodd">
        <g id="footer" transform="translate(-295.000000, -14.000000)">
            <g id="migdal" transform="translate(295.000000, 14.000000)">
                <g id="Group-3" transform="translate(45.762712, 8.632566)">
                    <mask id="mask-3" fill="white">
                        <use xlink:href="#path-2"></use>
                    </mask>
                    <use id="Clip-2" fill="url(#linearGradient-1)" xlink:href="#path-2"></use>
                </g>
                <g id="Group-66" transform="translate(0.000000, 0.228525)">
                    <path d="M27.0043538,19.6026828 C27.0253284,19.6857535 27.0348623,19.778198 27.0316843,19.8793697 C27.0285064,19.9811879 27.0119809,20.0826828 26.9817903,20.184501 C26.9515996,20.2856727 26.9083792,20.3836121 26.8521292,20.4773495 C26.7965148,20.5710869 26.725964,20.6518949 26.6411123,20.7197737 C26.5928072,20.7595313 26.536875,20.7798949 26.4733157,20.7798949 C26.4129343,20.7798949 26.3601801,20.7621172 26.3144174,20.7268848 C26.2692903,20.6913293 26.2375106,20.6473697 26.2193962,20.5950061 C26.2012818,20.5426424 26.1981038,20.4889859 26.2101801,20.4333899 C26.2225742,20.3781172 26.2543538,20.3289859 26.3058369,20.2856727 C26.3659004,20.2397737 26.4075318,20.1874101 26.4304131,20.1289051 C26.4532945,20.0704 26.4682309,20.0112485 26.4758581,19.9511273 C26.4831674,19.8913293 26.4853919,19.8328242 26.4825318,19.7756121 C26.4796716,19.7187232 26.4815784,19.6647434 26.4895233,19.6143192 C26.4968326,19.5635717 26.5143114,19.5202586 26.5416419,19.4850263 C26.5689725,19.4494707 26.6140996,19.4226424 26.6776589,19.4042182 C26.7501165,19.3857939 26.8184428,19.3958141 26.8816843,19.4342788 C26.9452436,19.4727434 26.9862394,19.5286626 27.0043538,19.6026828" id="Fill-4" fill="#F6921E"></path>
                    <path d="M29.6457203,19.0764929 C29.6425424,19.134998 29.6260169,19.2057859 29.5958263,19.2888566 C29.5653178,19.3719273 29.5131992,19.4601697 29.4391525,19.5545535 C29.3647881,19.6482909 29.2637288,19.7449374 29.135339,19.8451394 C29.0063136,19.9453414 28.8407415,20.039402 28.6379873,20.1289374 C28.6227331,20.1350788 28.605572,20.1412202 28.5858686,20.1473616 C28.5664831,20.153503 28.5458263,20.1567354 28.5248517,20.1567354 C28.4488983,20.1567354 28.3885169,20.1337859 28.343072,20.0872404 C28.2979449,20.0410182 28.2690254,19.9880081 28.2569492,19.9282101 C28.2448729,19.8680889 28.2505932,19.8099071 28.2753814,19.7526949 C28.2992161,19.6958061 28.344661,19.6550788 28.4110805,19.6305131 C28.5410593,19.5842909 28.6516525,19.5335434 28.7425424,19.4779475 C28.8331144,19.4226747 28.9065254,19.3686949 28.9627754,19.3163313 C29.0183898,19.2642909 29.0593856,19.2151596 29.0851271,19.1689374 C29.1105508,19.1227152 29.1235805,19.0855434 29.1235805,19.0580687 C29.1235805,19.0241293 29.1105508,18.9911596 29.0851271,18.9588364 C29.0593856,18.9265131 29.0253814,18.9025939 28.9831144,18.887402 C28.9589619,18.8780283 28.9300424,18.8812606 28.8969915,18.8964525 C28.8633051,18.9119677 28.8264407,18.9303919 28.7857627,18.9517253 C28.7447669,18.9737051 28.7031356,18.9966545 28.6605508,19.0212202 C28.6186017,19.0457859 28.5753814,19.0609778 28.5315254,19.0674424 C28.4873517,19.0732606 28.4444492,19.0690586 28.4021822,19.0535434 C28.3595975,19.0380283 28.3205085,19.0024727 28.2842797,18.9475232 C28.2416949,18.8796444 28.2264407,18.8156444 28.2388347,18.7558465 C28.2505932,18.6957253 28.2817373,18.6401293 28.3316314,18.5893818 C28.3815254,18.5389576 28.4444492,18.494998 28.5200847,18.4581495 C28.5957203,18.421301 28.6751695,18.3928566 28.7584322,18.3724929 C28.8416949,18.3527758 28.9227331,18.3424323 29.0012288,18.3424323 C29.0800424,18.3424323 29.1480508,18.3534222 29.2052542,18.3747556 C29.3504873,18.4368162 29.4626695,18.5224727 29.5411653,18.6333414 C29.6199788,18.7442101 29.6546186,18.8919273 29.6457203,19.0764929 M31.8194492,17.8579071 C31.8737924,18.0395636 31.8836441,18.2241293 31.8490042,18.411604 C31.8140466,18.599402 31.7390466,18.7872 31.624322,18.974998 C31.5089619,19.162796 31.3573729,19.3489778 31.1679661,19.5335434 C30.9788771,19.7181091 30.7573729,19.8949172 30.5031356,20.0642909 C30.4608686,20.094998 30.4109746,20.1105131 30.3537712,20.1105131 C30.2870339,20.1105131 30.2311017,20.0920889 30.1856568,20.0549172 C30.1402119,20.0180687 30.1100212,19.9724929 30.0947669,19.9188364 C30.0795127,19.8648566 30.0795127,19.8099071 30.0947669,19.7526949 C30.1100212,19.6958061 30.14625,19.6489374 30.2037712,19.6117657 C30.6362924,19.3163313 30.9426483,19.0289778 31.1225212,18.7487354 C31.3027119,18.4688162 31.3624576,18.2257455 31.3020763,18.0192 C31.2715678,17.9212606 31.2188136,17.8304323 31.143178,17.7473616 C31.0675424,17.6642909 30.9683898,17.5925333 30.8457203,17.5327354 C30.7233686,17.4726141 30.575911,17.4257455 30.4036653,17.3918061 C30.2311017,17.3581899 30.0327966,17.3410586 29.8090678,17.3410586 L29.7772881,17.3410586 C29.5684958,17.3410586 29.3952966,17.3539879 29.2573729,17.3801697 C29.1200847,17.4063515 29.0101271,17.4364121 28.9284534,17.4700283 C28.8467797,17.5042909 28.7895763,17.5362909 28.7562076,17.566998 C28.722839,17.5980283 28.7047246,17.6177455 28.7015466,17.6274424 L28.724428,17.6594424 C28.7606568,17.7147152 28.7689195,17.7680485 28.7495339,17.8184727 C28.7295127,17.8695434 28.6948729,17.9112404 28.6449788,17.9432404 C28.5947669,17.9758869 28.5375636,17.9939879 28.4727331,17.9988364 C28.4075847,18.0033616 28.3491102,17.9855838 28.2979449,17.9458263 C28.2099153,17.8779475 28.1600212,17.8110384 28.1479449,17.7447758 C28.1358686,17.6788364 28.1447669,17.5931798 28.1752754,17.4887758 C28.2054661,17.3811394 28.2753814,17.2832 28.38375,17.195604 C28.4927542,17.1076848 28.6268644,17.0333414 28.7857627,16.971604 C28.9443432,16.9101899 29.1216737,16.8623515 29.3164831,16.8287354 C29.5116102,16.794796 29.7121398,16.779604 29.9177542,16.7825131 C30.1236864,16.7854222 30.3277119,16.8070788 30.5304661,16.8471596 C30.7332203,16.8872404 30.9200847,16.9509172 31.0910593,17.0385131 C31.2620339,17.1264323 31.4117161,17.237301 31.5404237,17.3711192 C31.6688136,17.5049374 31.761928,17.6672 31.8194492,17.8579071" id="Fill-6" fill="#F6921E"></path>
                    <path d="M35.6360593,14.7052606 C35.3366949,14.8684929 35.0589407,15.0960485 34.8034322,15.3882505 C34.5476059,15.681099 34.313072,16.0101495 34.0998305,16.3763717 C33.886589,16.7425939 33.6952754,17.1285333 33.525572,17.5348364 C33.3561864,17.9411394 33.2065042,18.3377455 33.0765254,18.7256242 C33.1187924,18.7288566 33.1572458,18.7411394 33.1925212,18.762796 C33.227161,18.7841293 33.2557627,18.8119273 33.2783263,18.8458667 C33.3012076,18.8794828 33.3155085,18.9179475 33.3215466,18.9612606 C33.3275847,19.0042505 33.3247246,19.0475636 33.3123305,19.0902303 C33.2973941,19.1364525 33.2649788,19.1855838 33.2150847,19.2379475 C33.1651907,19.2906343 33.1105297,19.3465535 33.0514195,19.4066747 C32.9926271,19.4664727 32.9351059,19.5304727 32.8791737,19.5980283 C32.8229237,19.6659071 32.7800212,19.739604 32.7498305,19.8194424 L32.7136017,19.9581091 C32.6951695,20.0195232 32.6621186,20.0680081 32.6134958,20.1035636 C32.5651907,20.1391192 32.5108475,20.1565737 32.4504661,20.1565737 C32.3687924,20.1565737 32.2998305,20.1258667 32.2438983,20.0641293 C32.1876483,20.0027152 32.1673093,19.927402 32.1825636,19.8381899 C32.1886017,19.8042505 32.1962288,19.772897 32.2051271,19.7434828 C32.2140254,19.7143919 32.2235593,19.6843313 32.2324576,19.6536242 C32.3080932,19.3733818 32.3986653,19.0656646 32.5044915,18.7301495 C32.6103178,18.3949576 32.7329873,18.0513616 32.8725,17.6987152 C33.0113771,17.3463919 33.1670975,16.9956848 33.339661,16.6462707 C33.5122246,16.2971798 33.7019492,15.9678061 33.9091525,15.6584727 C34.1166737,15.3491394 34.3426271,15.0698667 34.5876483,14.8206545 C34.8329873,14.5714424 35.0977119,14.3700687 35.381822,14.2158869 C35.4603178,14.1732202 35.5324576,14.1661091 35.5976059,14.1952 C35.6624364,14.2246141 35.7107415,14.2698667 35.742839,14.331604 C35.7746186,14.3930182 35.7841525,14.4599273 35.7723941,14.5323313 C35.7603178,14.6044121 35.7145551,14.6622707 35.6360593,14.7052606" id="Fill-8" fill="#F6921E"></path>
                    <path d="M34.9734852,17.1610828 C34.9582309,17.3055677 34.9388453,17.4377697 34.914375,17.5580121 C34.8902225,17.6779313 34.8593962,17.7933253 34.8212606,17.9041939 C34.7834428,18.0150626 34.7383157,18.1233455 34.6852436,18.2296889 C34.6324894,18.3357091 34.5695657,18.4472242 34.4971081,18.5642343 C34.4392691,18.6502141 34.3623623,18.693204 34.2654343,18.693204 C34.2139513,18.693204 34.1678708,18.6802747 34.1271928,18.6540929 C34.086197,18.6279111 34.053464,18.5942949 34.0293114,18.552598 C34.0051589,18.5112242 33.9930826,18.465002 33.9930826,18.4142545 C33.9930826,18.3635071 34.0083369,18.3134061 34.0388453,18.2639515 C34.1020869,18.1656889 34.1557945,18.0732444 34.1996504,17.9872646 C34.2435064,17.9009616 34.2803708,17.8133657 34.3108792,17.7241535 C34.3410699,17.6349414 34.3652225,17.5402343 34.3836547,17.4400323 C34.4014513,17.3404768 34.4182945,17.2270222 34.4335487,17.1009616 C34.442447,17.0117495 34.4770869,16.9480727 34.537786,16.9096081 C34.5981674,16.8711434 34.6623623,16.8549818 34.7306886,16.8608 C34.798697,16.8672646 34.8584428,16.8963556 34.9099258,16.9487192 C34.9614089,17.0010828 34.9823835,17.0718707 34.9734852,17.1610828" id="Fill-10" fill="#F6921E"></path>
                    <path d="M36.7707203,19.0764929 C36.7675424,19.134998 36.7510169,19.2057859 36.7208263,19.2888566 C36.6903178,19.3719273 36.6381992,19.4601697 36.5641525,19.5545535 C36.4897881,19.6482909 36.3887288,19.7449374 36.260339,19.8451394 C36.1313136,19.9453414 35.9657415,20.039402 35.7629873,20.1289374 C35.7477331,20.1350788 35.730572,20.1412202 35.7108686,20.1473616 C35.6914831,20.153503 35.6708263,20.1567354 35.6498517,20.1567354 C35.5738983,20.1567354 35.5135169,20.1337859 35.468072,20.0872404 C35.4229449,20.0410182 35.3940254,19.9880081 35.3819492,19.9282101 C35.3698729,19.8680889 35.3755932,19.8099071 35.4003814,19.7526949 C35.4242161,19.6958061 35.469661,19.6550788 35.5360805,19.6305131 C35.6660593,19.5842909 35.7766525,19.5335434 35.8675424,19.4779475 C35.9581144,19.4226747 36.0315254,19.3686949 36.0877754,19.3163313 C36.1433898,19.2642909 36.1843856,19.2151596 36.2101271,19.1689374 C36.2355508,19.1227152 36.2485805,19.0855434 36.2485805,19.0580687 C36.2485805,19.0241293 36.2355508,18.9911596 36.2101271,18.9588364 C36.1843856,18.9265131 36.1503814,18.9025939 36.1081144,18.887402 C36.0839619,18.8780283 36.0550424,18.8812606 36.0219915,18.8964525 C35.9883051,18.9119677 35.9514407,18.9303919 35.9107627,18.9517253 C35.8697669,18.9737051 35.8281356,18.9966545 35.7855508,19.0212202 C35.7436017,19.0457859 35.7003814,19.0609778 35.6565254,19.0674424 C35.6123517,19.0732606 35.5694492,19.0690586 35.5271822,19.0535434 C35.4845975,19.0380283 35.4455085,19.0024727 35.4092797,18.9475232 C35.3666949,18.8796444 35.3514407,18.8156444 35.3638347,18.7558465 C35.3755932,18.6957253 35.4067373,18.6401293 35.4566314,18.5893818 C35.5065254,18.5389576 35.5694492,18.494998 35.6450847,18.4581495 C35.7207203,18.421301 35.8001695,18.3928566 35.8834322,18.3724929 C35.9666949,18.3527758 36.0477331,18.3424323 36.1262288,18.3424323 C36.2050424,18.3424323 36.2730508,18.3534222 36.3302542,18.3747556 C36.4754873,18.4368162 36.5876695,18.5224727 36.6661653,18.6333414 C36.7449788,18.7442101 36.7796186,18.8919273 36.7707203,19.0764929 M38.9444492,17.8579071 C38.9987924,18.0395636 39.0086441,18.2241293 38.9740042,18.411604 C38.9390466,18.599402 38.8640466,18.7872 38.749322,18.974998 C38.6339619,19.162796 38.4823729,19.3489778 38.2929661,19.5335434 C38.1038771,19.7181091 37.8823729,19.8949172 37.6281356,20.0642909 C37.5858686,20.094998 37.5359746,20.1105131 37.4787712,20.1105131 C37.4120339,20.1105131 37.3561017,20.0920889 37.3106568,20.0549172 C37.2652119,20.0180687 37.2350212,19.9724929 37.2197669,19.9188364 C37.2045127,19.8648566 37.2045127,19.8099071 37.2197669,19.7526949 C37.2350212,19.6958061 37.27125,19.6489374 37.3287712,19.6117657 C37.7612924,19.3163313 38.0676483,19.0289778 38.2475212,18.7487354 C38.4277119,18.4688162 38.4874576,18.2257455 38.4270763,18.0192 C38.3965678,17.9212606 38.3438136,17.8304323 38.268178,17.7473616 C38.1925424,17.6642909 38.0933898,17.5925333 37.9707203,17.5327354 C37.8483686,17.4726141 37.700911,17.4257455 37.5286653,17.3918061 C37.3561017,17.3581899 37.1577966,17.3410586 36.9340678,17.3410586 L36.9022881,17.3410586 C36.6934958,17.3410586 36.5202966,17.3539879 36.3823729,17.3801697 C36.2450847,17.4063515 36.1351271,17.4364121 36.0534534,17.4700283 C35.9717797,17.5042909 35.9145763,17.5362909 35.8812076,17.566998 C35.847839,17.5980283 35.8297246,17.6177455 35.8265466,17.6274424 L35.849428,17.6594424 C35.8856568,17.7147152 35.8939195,17.7680485 35.8745339,17.8184727 C35.8545127,17.8695434 35.8198729,17.9112404 35.7699788,17.9432404 C35.7197669,17.9758869 35.6625636,17.9939879 35.5977331,17.9988364 C35.5325847,18.0033616 35.4741102,17.9855838 35.4229449,17.9458263 C35.3349153,17.8779475 35.2850212,17.8110384 35.2729449,17.7447758 C35.2608686,17.6788364 35.2697669,17.5931798 35.3002754,17.4887758 C35.3304661,17.3811394 35.4003814,17.2832 35.50875,17.195604 C35.6177542,17.1076848 35.7518644,17.0333414 35.9107627,16.971604 C36.0693432,16.9101899 36.2466737,16.8623515 36.4414831,16.8287354 C36.6366102,16.794796 36.8371398,16.779604 37.0427542,16.7825131 C37.2486864,16.7854222 37.4527119,16.8070788 37.6554661,16.8471596 C37.8582203,16.8872404 38.0450847,16.9509172 38.2160593,17.0385131 C38.3870339,17.1264323 38.5367161,17.237301 38.6654237,17.3711192 C38.7938136,17.5049374 38.886928,17.6672 38.9444492,17.8579071" id="Fill-12" fill="#F6921E"></path>
                    <path d="M42.7656992,18.1071192 C42.7656992,18.3194828 42.7104025,18.5389576 42.6001271,18.764897 C42.4895339,18.9911596 42.3195127,19.2193616 42.089428,19.4504727 C42.0411229,19.4966949 41.9727966,19.5603717 41.8850847,19.6418263 C41.7973729,19.723604 41.7036229,19.8034424 41.6038347,19.8819879 C41.5037288,19.9602101 41.4048941,20.0287354 41.3063771,20.0872404 C41.208178,20.1460687 41.1258686,20.1748364 41.0591314,20.1748364 C40.9895339,20.1748364 40.9313771,20.153503 40.8843432,20.1105131 C40.8376271,20.0672 40.8074364,20.0174222 40.7937712,19.9602101 C40.7801059,19.9036444 40.7832839,19.8457859 40.8026695,19.7872808 C40.8226907,19.729099 40.864322,19.6844929 40.9275636,19.6534626 C40.9911229,19.6227556 41.0591314,19.5826747 41.131589,19.5335434 C41.2043644,19.4844121 41.276822,19.431402 41.3495975,19.3741899 C41.4220551,19.317301 41.4910169,19.2594424 41.5561653,19.2012606 C41.6209958,19.1427556 41.6794703,19.0871596 41.7309534,19.034796 C41.9124153,18.8505535 42.0373093,18.6734222 42.1053178,18.5043717 C42.1733263,18.334998 42.2028814,18.1963313 42.1936653,18.0886949 C42.1904873,18.042796 42.18,17.9920485 42.1622034,17.9364525 C42.1437712,17.8811798 42.1173941,17.8281697 42.0827542,17.777099 C42.0477966,17.7263515 42.0061653,17.6794828 41.9578602,17.6364929 C41.9095551,17.5931798 41.8533051,17.5579475 41.7900636,17.5301495 C41.6356144,17.4658263 41.4751271,17.434796 41.3089195,17.4380283 C41.1423941,17.4409374 40.9822246,17.4648566 40.8277754,17.5094626 C40.6736441,17.5540687 40.5334958,17.6141899 40.4079661,17.689503 C40.2824364,17.7648162 40.1832839,17.841099 40.1108263,17.9180283 C40.0774576,17.9519677 40.0428178,17.978796 40.0062712,17.9988364 C39.9700424,18.0188768 39.9579661,18.0363313 39.9700424,18.0518465 C40.0154873,18.1316848 40.0199364,18.2073212 39.9837076,18.2777859 C39.9474788,18.348897 39.8944068,18.3986747 39.8248093,18.4280889 C39.7552119,18.4571798 39.6827542,18.4555636 39.6071186,18.4235636 C39.5311653,18.3912404 39.4752331,18.3120485 39.4390042,18.1856646 C39.4212076,18.1271596 39.4196186,18.0647758 39.4348729,17.9988364 C39.4494915,17.9325737 39.4733263,17.868897 39.5047881,17.8071596 C39.5368856,17.7457455 39.5743856,17.6878869 39.6185593,17.6339071 C39.6620975,17.5802505 39.7037288,17.5346747 39.7431356,17.4978263 C39.9033051,17.3501091 40.0790466,17.2285737 40.2697246,17.1332202 C40.4600847,17.0378667 40.6545763,16.9693414 40.8525636,16.9279677 C41.0508686,16.8865939 41.2485381,16.8733414 41.4449364,16.8885333 C41.6416525,16.9040485 41.8275636,16.9486545 42.0033051,17.0226747 C42.084661,17.0562909 42.1701483,17.1076848 42.2594492,17.1771798 C42.34875,17.2463515 42.4304237,17.3281293 42.5047881,17.4218667 C42.5788347,17.515604 42.6404873,17.6209778 42.6906992,17.7376646 C42.7405932,17.854998 42.7656992,17.9781495 42.7656992,18.1071192 M40.5779873,18.8088566 C40.5538347,18.9843717 40.5185593,19.1663515 40.4715254,19.3557657 C40.4248093,19.5448566 40.3606144,19.7627152 40.2786229,20.0090182 C40.1969492,20.2553212 40.0949364,20.5404121 39.9722669,20.8649374 C39.8499153,21.1897859 39.7021398,21.5766949 39.5298941,22.0259879 C39.5117797,22.0751192 39.4904873,22.137503 39.4663347,22.2128162 C39.4421822,22.2884525 39.4110381,22.3589172 39.3732203,22.4251798 C39.3354025,22.4911192 39.2886864,22.5421899 39.2327542,22.5774222 C39.1765042,22.6126545 39.1062712,22.6136242 39.0217373,22.5800081 C38.9400636,22.5457455 38.8908051,22.4959677 38.8742797,22.4300283 C38.8574364,22.3637657 38.8574364,22.2936242 38.8742797,22.2199273 C38.8908051,22.1459071 38.915911,22.0731798 38.9489619,22.0007758 C38.9823305,21.9280485 39.0064831,21.8692202 39.0217373,21.822998 C39.1911229,21.3827556 39.3354025,21.0084525 39.4548941,20.6991192 C39.5743856,20.3897859 39.6738559,20.1211798 39.7523517,19.893301 C39.7885805,19.7921293 39.8209958,19.6925737 39.8499153,19.595604 C39.8785169,19.4989576 39.9048941,19.4029576 39.9290466,19.3072808 C39.9531992,19.2119273 39.9754449,19.1149576 39.9948305,19.0163717 C40.0148517,18.9181091 40.0320127,18.814998 40.0472669,18.7070384 C40.0590254,18.6210586 40.0965254,18.5583515 40.1584958,18.5179475 C40.2204661,18.4778667 40.284661,18.4626747 40.3510805,18.4720485 C40.4178178,18.481099 40.475339,18.5134222 40.5236441,18.5690182 C40.5722669,18.6242909 40.5900636,18.7044525 40.5779873,18.8088566" id="Fill-14" fill="#F6921E"></path>
                    <path d="M46.0600424,17.2210424 C46.2567585,17.3593859 46.3905508,17.5193859 46.4617373,17.7007192 C46.5326059,17.882699 46.5567585,18.0717899 46.5341949,18.2686384 C46.5116314,18.4658101 46.449661,18.6620121 46.3482839,18.8572444 C46.2469068,19.0528 46.1204237,19.2318707 45.9694703,19.395103 C45.8178814,19.5580121 45.6494492,19.6989414 45.4632203,19.8172444 C45.2773093,19.9355475 45.0904449,20.0163556 44.9029449,20.0596687 C44.6941525,20.1026586 44.5117373,20.0926384 44.3560169,20.0296081 C44.1999788,19.9665778 44.0801695,19.8350222 43.9953178,19.6349414 C43.9800636,19.6074667 43.9679873,19.5790222 43.959089,19.5496081 C43.9498729,19.5201939 43.9409746,19.4917495 43.9317585,19.4639515 L43.9088771,19.3996283 C43.7909746,19.4736485 43.6816525,19.5635071 43.5799576,19.6695273 C43.4785805,19.7755475 43.379428,19.8783354 43.2828178,19.976598 L43.1172458,20.145002 C43.0609958,20.2022141 43.004428,20.2581333 42.9469068,20.3134061 C42.9195763,20.3382949 42.8900212,20.356396 42.8585593,20.3686788 C42.8267797,20.3809616 42.7943644,20.3874263 42.7609958,20.3874263 C42.7034746,20.3874263 42.6526271,20.3712646 42.609089,20.3389414 C42.5652331,20.3066182 42.5331356,20.2658909 42.51375,20.2167596 C42.4937288,20.1673051 42.4880085,20.1159111 42.4953178,20.0619313 C42.5032627,20.0082747 42.5296398,19.9597899 42.5747669,19.9164768 C42.716822,19.7781333 42.8553814,19.6365576 42.9901271,19.4917495 C43.1248729,19.3472646 43.2675636,19.2102141 43.4188347,19.0812444 C43.5459534,18.9736081 43.6616314,18.8966788 43.7661864,18.8504566 C43.8704237,18.8039111 43.9743432,18.7964768 44.0769915,18.8271838 C44.1615254,18.8520727 44.2266737,18.8911838 44.2721186,18.9448404 C44.3175636,18.9988202 44.3537924,19.0589414 44.3811229,19.125204 C44.4084534,19.1911434 44.4316525,19.2580525 44.4513559,19.3259313 C44.4710593,19.3934869 44.4990254,19.4519919 44.5352542,19.5011232 C44.5473305,19.5195475 44.5648093,19.5318303 44.5873729,19.5379717 C44.6102542,19.5441131 44.6344068,19.5463758 44.6601483,19.5447596 C44.6858898,19.5437899 44.7094068,19.5395879 44.7303814,19.5334465 C44.7516737,19.5273051 44.7694703,19.5227798 44.7847246,19.5195475 C44.8880085,19.4982141 45.0027331,19.4510222 45.1298517,19.3789414 C45.2569703,19.3065374 45.3783686,19.2140929 45.4953178,19.1019313 C45.6116314,18.9897697 45.7142797,18.8611232 45.8035805,18.7166384 C45.8931992,18.5718303 45.9542161,18.4131232 45.9872669,18.2408404 C46.0025212,18.1703758 46.0056992,18.1057293 45.9968008,18.0472242 C45.9872669,17.9887192 45.9710593,17.9363556 45.9469068,17.8901333 C45.9224364,17.8442343 45.8931992,17.8035071 45.8582415,17.7679515 C45.8232839,17.7327192 45.7880085,17.7026586 45.7514619,17.6777697 C45.6548517,17.6102141 45.5382203,17.5578505 45.4022034,17.521002 C45.2658686,17.4838303 45.1190466,17.4657293 44.9620551,17.4657293 C44.8047458,17.4657293 44.6426695,17.4880323 44.4764619,17.5326384 C44.3099364,17.5772444 44.1510381,17.6470626 44.0000847,17.7424162 C43.9241314,17.7918707 43.8523093,17.8041535 43.7843008,17.7795879 C43.7162924,17.754699 43.6641737,17.7133253 43.6279449,17.6548202 C43.5913983,17.5963152 43.5770975,17.5310222 43.5847246,17.4586182 C43.5920339,17.3865374 43.6336653,17.3254465 43.7096186,17.2763152 C43.8879025,17.1625374 44.0814407,17.0749414 44.2902331,17.013204 C44.4990254,16.9517899 44.7084534,16.9181737 44.9188347,16.9117091 C45.1288983,16.9055677 45.3326059,16.9278707 45.5290042,16.9786182 C45.7257203,17.0293657 45.9027331,17.1101737 46.0600424,17.2210424" id="Fill-16" fill="#F6921E"></path>
                    <path d="M52.1776271,17.9457939 C52.1566525,17.8132687 52.0927754,17.7285818 51.9869492,17.6917333 C51.8992373,17.6610263 51.8061229,17.6542384 51.7079237,17.6707232 C51.6097246,17.6878545 51.5102542,17.7211475 51.4107839,17.7702788 C51.310678,17.8194101 51.2124788,17.8785616 51.1155508,17.9480566 C51.0189407,18.0172283 50.9296398,18.0886626 50.8479661,18.1626828 C50.7662924,18.2363798 50.6928814,18.3071677 50.6277331,18.3747232 C50.5629025,18.442602 50.5120551,18.4965818 50.4761441,18.5363394 C50.3788983,18.6472081 50.2845127,18.7687434 50.1923517,18.9009455 C50.0998729,19.0334707 50.0067585,19.1782788 49.9130085,19.3350465 C50.085572,19.3505616 50.2555932,19.357996 50.4233898,19.357996 C50.5915042,19.357996 50.7618432,19.344097 50.934089,19.316299 C51.0913983,19.2888242 51.2502966,19.2358141 51.4107839,19.1572687 C51.5709534,19.0787232 51.7123729,18.9804606 51.8350424,18.8618343 C51.9577119,18.7435313 52.0527331,18.6064808 52.1207415,18.4510061 C52.1890678,18.2958545 52.2078178,18.1274505 52.1776271,17.9457939 M52.6902331,17.8394505 C52.7239195,18.0304808 52.7223305,18.2156929 52.6861017,18.3957333 C52.6495551,18.5757737 52.5828178,18.748703 52.4862076,18.9148444 C52.4134322,19.0347636 52.3266737,19.1482182 52.2252966,19.2542384 C52.1239195,19.3602586 52.0104661,19.4565818 51.8849364,19.5425616 C51.7594068,19.6288646 51.6233898,19.7028848 51.4765678,19.764299 C51.3297458,19.8257131 51.17625,19.8703192 51.0160805,19.8981172 C50.8587712,19.9259152 50.7109958,19.9427232 50.5733898,19.9488646 C50.4357839,19.9550061 50.3061229,19.9559758 50.1853602,19.9511273 C50.0645975,19.9462788 49.9501907,19.938198 49.8427754,19.9259152 C49.7353602,19.9136323 49.6346186,19.9013495 49.5408686,19.8890667 C49.5287924,19.9533899 49.5030508,20.0367838 49.4639619,20.1379556 C49.4245551,20.2397737 49.3803814,20.3483798 49.3323941,20.4634505 C49.284089,20.5788444 49.2345127,20.6958545 49.1846186,20.8144808 C49.1350424,20.9327838 49.091822,21.0397737 49.0555932,21.1351273 C49.0311229,21.2091475 48.9850424,21.2611879 48.9170339,21.2922182 C48.8487076,21.322602 48.7813347,21.322602 48.7149153,21.2922182 C48.6488136,21.2644202 48.6008263,21.2149657 48.5719068,21.144501 C48.5433051,21.0737131 48.5439407,21.0029253 48.5744492,20.9318141 C48.610678,20.8458343 48.6488136,20.752097 48.6879025,20.6502788 C48.7273093,20.5491071 48.7686229,20.4456727 48.8124788,20.3412687 C48.8566525,20.2365414 48.8995551,20.1321374 48.941822,20.0270869 C48.984089,19.9226828 49.0250847,19.822804 49.0644915,19.7274505 C49.0339831,19.7209859 49.0056992,19.7135515 48.9783686,19.7041778 C48.9510381,19.6951273 48.9224364,19.6857535 48.891928,19.6763798 C48.8102542,19.6518141 48.7565466,19.6036525 48.7308051,19.5309253 C48.7050636,19.4588444 48.7015678,19.3874101 48.7196822,19.316299 C48.7377966,19.2455111 48.7749788,19.1873293 48.830911,19.1411071 C48.8868432,19.0952081 48.9554873,19.0855111 49.037161,19.1133091 C49.130911,19.1411071 49.2310169,19.1689051 49.3368432,19.1963798 C49.4156568,19.0580364 49.5151271,18.9009455 49.6362076,18.7257535 C49.7572881,18.5502384 49.8920339,18.3756929 50.0401271,18.2017939 C50.1882203,18.0278949 50.3487076,17.8624 50.5212712,17.7056323 C50.6935169,17.5485414 50.8714831,17.4169859 51.0545339,17.3109657 C51.2375847,17.2049455 51.4212712,17.1325414 51.605911,17.0940768 C51.7902331,17.0556121 51.9720127,17.0685414 52.1502966,17.1331879 C52.2987076,17.1855515 52.4188347,17.2734707 52.5113136,17.396299 C52.6034746,17.5194505 52.6632203,17.6671677 52.6902331,17.8394505" id="Fill-18" fill="#F6921E"></path>
                    <path d="M55.6671928,17.4148848 C55.685625,17.4517333 55.6951589,17.4908444 55.6967479,17.5325414 C55.6983369,17.5739152 55.6913453,17.6133495 55.6764089,17.6505212 C55.6611547,17.6873697 55.6385911,17.7193697 55.6080826,17.7471677 C55.5782097,17.7746424 55.5429343,17.7950061 55.5038453,17.8072889 C55.4644386,17.8195717 55.3849894,17.8447838 55.2654979,17.8832485 C55.1460064,17.9217131 55.0077648,17.9711677 54.8504555,18.0309657 C54.6931462,18.0910869 54.5275742,18.1612283 54.3534216,18.2410667 C54.1792691,18.3212283 54.018464,18.4104404 53.8703708,18.508703 C53.7219597,18.6072889 53.5961123,18.7126626 53.493464,18.8248242 C53.3908157,18.9373091 53.3329767,19.0565818 53.3209004,19.1826424 C53.3151801,19.2350061 53.3278919,19.2857535 53.3596716,19.3348848 C53.3914513,19.3843394 53.4225953,19.4260364 53.4524682,19.4596525 C53.5525742,19.582804 53.7044809,19.6710465 53.9088242,19.7250263 C54.1128496,19.7786828 54.3620021,19.8055111 54.6550106,19.8055111 C54.730964,19.8055111 54.7945233,19.8326626 54.8460064,19.8863192 C54.8971716,19.940299 54.9229131,20.004299 54.9229131,20.077996 C54.9229131,20.1552485 54.8971716,20.2205414 54.8460064,20.2745212 C54.7945233,20.3281778 54.730964,20.3553293 54.6550106,20.3553293 C54.301303,20.3553293 53.9835064,20.3152485 53.7022564,20.2350869 C53.4210064,20.1552485 53.1972775,20.0136727 53.0307521,19.8103596 C52.9582945,19.7211475 52.9036335,19.6380768 52.8670869,19.5611475 C52.8308581,19.4842182 52.8060699,19.4127838 52.7924047,19.3468444 C52.7787394,19.2802586 52.7739725,19.2194909 52.7787394,19.1642182 C52.7835064,19.1086222 52.7901801,19.0565818 52.7993962,19.0074505 C52.8384852,18.8102788 52.930964,18.6305616 53.076197,18.4673293 C53.2214301,18.304097 53.3971716,18.1563798 53.6046928,18.0241778 C53.8118962,17.8919758 54.0381674,17.7733495 54.2831886,17.6686222 C54.5282097,17.5642182 54.7703708,17.4701576 55.0093538,17.3870869 C54.9486547,17.2917333 54.8822352,17.1895919 54.8097775,17.0803394 C54.7370021,16.9710869 54.6718538,16.8731475 54.6143326,16.7871677 C54.5628496,16.7131475 54.5485487,16.6407434 54.5714301,16.5702788 C54.5939936,16.4994909 54.6334004,16.4448646 54.6893326,16.4064 C54.7452648,16.3679354 54.8088242,16.3517737 54.8796928,16.3575919 C54.9508792,16.3640566 55.012214,16.4038141 55.0640148,16.4778343 C55.0729131,16.4904404 55.0922987,16.5188848 55.1228072,16.5631677 C55.1529979,16.6077737 55.1885911,16.6611071 55.2292691,16.722198 C55.2702648,16.7842586 55.3134852,16.850198 55.3586123,16.9209859 C55.4040572,16.9917737 55.4479131,17.0593293 55.4901801,17.124299 C55.532447,17.1886222 55.5696292,17.2471273 55.6014089,17.2994909 C55.6335064,17.3518545 55.6551165,17.3903192 55.6671928,17.4148848" id="Fill-20" fill="#F6921E"></path>
                    <path d="M2.956875,27.4704162 C2.92350636,27.6087596 2.87901483,27.7551838 2.82308263,27.9087192 C2.76683263,28.0625778 2.70518008,28.2174061 2.63685381,28.3725576 C2.56884534,28.5280323 2.4976589,28.6789818 2.42361229,28.8247596 C2.34956568,28.9711838 2.27774364,29.1072646 2.20814619,29.2336485 C2.10518008,29.4153051 2.01301907,29.5914667 1.93134534,29.7621333 C1.84967161,29.9328 1.77403602,30.1041131 1.70443856,30.2767192 C1.6348411,30.449002 1.57064619,30.6261333 1.51153602,30.8074667 C1.45242585,30.9891232 1.39585805,31.1811232 1.34151483,31.3844364 C1.32626059,31.4461737 1.29384534,31.4953051 1.24363347,31.5321535 C1.19373941,31.5693253 1.1384428,31.5874263 1.07806144,31.5874263 C1.03579449,31.5874263 0.995752119,31.5783758 0.957616525,31.5599515 C0.919798729,31.5415273 0.888972458,31.5163152 0.864819915,31.4836687 C0.840667373,31.4513455 0.823188559,31.414497 0.812701271,31.3728 C0.801896186,31.3314263 0.802849576,31.2877899 0.814925847,31.2415677 C0.896599576,30.9396687 0.977319915,30.6736485 1.05772246,30.4428606 C1.1378072,30.2120727 1.21725636,30.0068202 1.29575212,29.8267798 C1.37456568,29.6464162 1.45083686,29.4873859 1.52520127,29.3490424 C1.59924788,29.210699 1.66948093,29.0810828 1.73621822,28.9611636 C1.78134534,28.881002 1.83664195,28.7788606 1.90179025,28.6540929 C1.96693856,28.5296485 2.03176907,28.3942141 2.09691737,28.2481131 C2.16206568,28.1020121 2.22403602,27.9500929 2.28282839,27.7933253 C2.34193856,27.6365576 2.38801907,27.4865778 2.42138771,27.3433859 C2.45443856,27.2001939 2.47191737,27.0689616 2.47350636,26.9487192 C2.47509534,26.8288 2.44998941,26.7318303 2.39882415,26.6578101 C2.3473411,26.5841131 2.26153602,26.5272242 2.14236229,26.4871434 C2.02287076,26.4470626 1.88971398,26.422497 1.74289195,26.4131232 C1.59606992,26.4040727 1.44638771,26.4095677 1.29384534,26.4292848 C1.14098517,26.4496485 1.006875,26.4816485 0.891832627,26.5262545 C0.777108051,26.5711838 0.690667373,26.6274263 0.633146186,26.6949818 C0.575942797,26.7628606 0.568315678,26.8394667 0.610582627,26.9254465 C0.649989407,27.0059313 0.654438559,27.0796283 0.624247881,27.1471838 C0.594057203,27.2150626 0.548612288,27.2641939 0.487913136,27.294901 C0.42753178,27.3259313 0.361747881,27.3340121 0.290561441,27.3201131 C0.219692797,27.3065374 0.164396186,27.2580525 0.124989407,27.1749818 C0.00390889831,26.9319111 0.00549788136,26.6978909 0.129756356,26.4732444 C0.223188559,26.3009616 0.377002119,26.1632646 0.590243644,26.0601535 C0.803485169,25.9570424 1.04342161,25.8949818 1.30941737,25.8733253 C1.68473517,25.8426182 2.0009428,25.8639515 2.25804025,25.9379717 C2.51513771,26.0116687 2.71185381,26.147103 2.84787076,26.3442747 C2.956875,26.5042747 3.01439619,26.6810828 3.02043432,26.874699 C3.02647246,27.0689616 3.00518008,27.267103 2.956875,27.4704162" id="Fill-22" fill="#0E2D6D"></path>
                    <path d="M4.66751059,26.0578586 C4.65225636,26.2023434 4.63287076,26.3345455 4.60840042,26.4551111 C4.58424788,26.5750303 4.55342161,26.690101 4.51528602,26.8009697 C4.47746822,26.9118384 4.4323411,27.0204444 4.37926907,27.1264646 C4.32619703,27.2328081 4.2635911,27.344 4.19081568,27.4610101 C4.13329449,27.5469899 4.05638771,27.590303 3.95945975,27.590303 C3.90797669,27.590303 3.86189619,27.5773737 3.82121822,27.5511919 C3.78022246,27.5250101 3.7478072,27.4913939 3.72365466,27.449697 C3.69950212,27.408 3.68742585,27.3617778 3.68742585,27.3110303 C3.68742585,27.2602828 3.70236229,27.2101818 3.73255297,27.1610505 C3.79611229,27.0624646 3.84981992,26.9703434 3.89367585,26.8843636 C3.93753178,26.7980606 3.97471398,26.7104646 4.00490466,26.6209293 C4.03509534,26.5317172 4.05924788,26.4373333 4.07768008,26.3371313 C4.09579449,26.2372525 4.11231992,26.1241212 4.12757415,25.9977374 C4.13647246,25.9085253 4.17111229,25.8448485 4.23181144,25.8063838 C4.2921928,25.7679192 4.35670551,25.7517576 4.42471398,25.757899 C4.49272246,25.7640404 4.55246822,25.7934545 4.60395127,25.8454949 C4.65543432,25.8978586 4.6764089,25.9686465 4.66751059,26.0578586" id="Fill-24" fill="#0E2D6D"></path>
                    <path d="M7.84423729,26.4224323 C7.93798729,26.5856646 7.97739407,26.7579475 7.96213983,26.939604 C7.94720339,27.1209374 7.89635593,27.3019475 7.81023305,27.4816646 C7.72411017,27.6620283 7.60970339,27.8372202 7.46764831,28.0078869 C7.32527542,28.1788768 7.17400424,28.334998 7.01383475,28.4762505 C6.85334746,28.6181495 6.69286017,28.7419475 6.53269068,28.8482909 C6.37220339,28.9543111 6.23014831,29.033503 6.10620763,29.0858667 C6.07601695,29.1010586 6.04105932,29.1091394 6.00165254,29.1091394 C5.92919492,29.1091394 5.86944915,29.0865131 5.82241525,29.0419071 C5.77569915,28.997301 5.74582627,28.9459071 5.7340678,28.887402 C5.72199153,28.828897 5.72866525,28.7707152 5.75440678,28.7118869 C5.78014831,28.6533818 5.8278178,28.6107152 5.89741525,28.5829172 C6.01213983,28.5334626 6.14529661,28.4558869 6.2965678,28.3495434 C6.44783898,28.2435232 6.59625,28.1213414 6.74148305,27.9826747 C6.8867161,27.8440081 7.0182839,27.6962909 7.13618644,27.5395232 C7.25440678,27.3827556 7.33735169,27.2301899 7.38597458,27.0824727 C7.41330508,26.9964929 7.42442797,26.922796 7.41997881,26.8607354 C7.41521186,26.7996444 7.39963983,26.7456646 7.37230932,26.6994424 C7.2995339,26.5733818 7.20069915,26.4764121 7.07516949,26.4085333 C6.94963983,26.3409778 6.81330508,26.299604 6.66648305,26.2840889 C6.51997881,26.2685737 6.36997881,26.277301 6.21711864,26.309301 C6.06457627,26.3416242 5.92379237,26.3923717 5.79540254,26.4618667 C5.66669492,26.5310384 5.55864407,26.6179879 5.47061441,26.7227152 C5.38290254,26.8271192 5.33141949,26.9441293 5.31648305,27.0734222 C5.30440678,27.1626343 5.26722458,27.2263111 5.20525424,27.2647758 C5.1432839,27.3035636 5.07877119,27.3181091 5.01235169,27.3087354 C4.9459322,27.2996848 4.88682203,27.2686545 4.83533898,27.2162909 C4.78385593,27.1642505 4.76447034,27.0918465 4.77654661,26.999402 C4.80355932,26.7841293 4.88237288,26.5924525 5.01235169,26.4250182 C5.14264831,26.2569374 5.30122881,26.1179475 5.48872881,26.0070788 C5.67654661,25.8962101 5.88311441,25.8179879 6.1084322,25.7717657 C6.33375,25.7255434 6.55525424,25.7171394 6.77326271,25.7462303 C6.99095339,25.7756444 7.19466102,25.8448162 7.38375,25.9540687 C7.57283898,26.0633212 7.72633475,26.2194424 7.84423729,26.4224323" id="Fill-26" fill="#0E2D6D"></path>
                    <path d="M9.40528602,25.854901 C9.38431144,25.987103 9.35316737,26.1409616 9.31248941,26.3164768 C9.27149364,26.4919919 9.22382415,26.6765576 9.16916314,26.870497 C9.11481992,27.0641131 9.05380297,27.2632242 8.98547669,27.4678303 C8.91746822,27.6727596 8.84564619,27.8712242 8.77001059,28.0635475 C8.694375,28.2558707 8.61556144,28.4365576 8.53388771,28.6059313 C8.45221398,28.7749818 8.37054025,28.922699 8.28886653,29.0490828 C8.26471398,29.0920727 8.23229873,29.1234263 8.19130297,29.1434667 C8.150625,29.1635071 8.10899364,29.1738505 8.06672669,29.1738505 C8.01492585,29.1738505 7.96820975,29.160598 7.9259428,29.1344162 C7.88335805,29.1079111 7.8509428,29.0742949 7.82837924,29.0329212 C7.80549788,28.9912242 7.794375,28.9459717 7.794375,28.8965172 C7.794375,28.8473859 7.80962924,28.7979313 7.83950212,28.7488 C7.91227754,28.6353455 7.98568856,28.4999111 8.05973517,28.342497 C8.13378178,28.1857293 8.20560381,28.0173253 8.27520127,27.8372848 C8.34479873,27.6572444 8.41153602,27.4710626 8.47509534,27.2787394 C8.53833686,27.0867394 8.59585805,26.8986182 8.6473411,26.7156687 C8.69882415,26.5327192 8.74331568,26.3588202 8.78145127,26.1939717 C8.81926907,26.0294465 8.84882415,25.8856081 8.86979873,25.7624566 C8.881875,25.6732444 8.9196928,25.6108606 8.98325212,25.5756283 C9.04681144,25.5400727 9.11259534,25.5287596 9.18060381,25.5407192 C9.24861229,25.553002 9.30676907,25.5862949 9.35539195,25.6402747 C9.40369703,25.6939313 9.42054025,25.7656889 9.40528602,25.854901" id="Fill-28" fill="#0E2D6D"></path>
                    <path d="M12.4549258,26.2008566 C12.6150953,26.3550384 12.7310911,26.5185939 12.8019597,26.6924929 C12.8731462,26.8667152 12.9087394,27.0432 12.9087394,27.2232404 C12.9087394,27.403604 12.8785487,27.5817051 12.8178496,27.7588364 C12.7574682,27.9356444 12.6732521,28.1037253 12.5661547,28.2621091 C12.4587394,28.4204929 12.3322564,28.5656242 12.1870233,28.6981495 C12.0417903,28.8306747 11.8876589,28.9415434 11.7243114,29.0304323 C11.6756886,29.0517657 11.6318326,29.0627556 11.5927436,29.0627556 C11.5228284,29.0627556 11.465625,29.0420687 11.4201801,29.0003717 C11.3747352,28.958998 11.3451801,28.9105131 11.3318326,28.8552404 C11.3181674,28.7996444 11.3210275,28.7427556 11.3407309,28.6845737 C11.3604343,28.6257455 11.4020657,28.5795232 11.465625,28.5459071 C11.5714513,28.487402 11.6756886,28.4137051 11.7786547,28.3241697 C11.8816208,28.2349576 11.9744174,28.1363717 12.0576801,28.0287354 C12.1409428,27.921099 12.2099047,27.8057051 12.2642479,27.6825535 C12.3185911,27.5597253 12.3513242,27.4365737 12.3618114,27.3134222 C12.3722987,27.1905939 12.3564089,27.0680889 12.3141419,26.9465535 C12.271875,26.8250182 12.1946504,26.7102707 12.082786,26.6026343 C12.0252648,26.5470384 11.9413665,26.4933818 11.8310911,26.4410182 C11.7204979,26.3886545 11.6016419,26.3440485 11.4748411,26.3072 C11.3477225,26.2703515 11.2206038,26.2464323 11.0934852,26.2354424 C10.9663665,26.2247758 10.8605403,26.234796 10.7756886,26.265503 C10.751536,26.379604 10.7099047,26.5202101 10.6511123,26.6879677 C10.5920021,26.8557253 10.5239936,27.033503 10.4467691,27.2209778 C10.3695445,27.4087758 10.2878708,27.5978667 10.2017479,27.788897 C10.115625,27.979604 10.0329979,28.1551192 9.95418432,28.3151192 C9.87568856,28.4751192 9.80545551,28.6128162 9.74348517,28.7278869 C9.68119703,28.843604 9.63511653,28.9195636 9.60492585,28.9564121 C9.55058263,29.0272 9.48702331,29.0627556 9.41424788,29.0627556 C9.34179025,29.0627556 9.27886653,29.0420687 9.22611229,29.0003717 C9.17304025,28.958998 9.13903602,28.9017859 9.12409958,28.8297051 C9.10884534,28.757301 9.12854873,28.6858667 9.18289195,28.6150788 C9.20418432,28.5905131 9.23501059,28.5394424 9.27600636,28.4628364 C9.31668432,28.3859071 9.36371822,28.2921697 9.41647246,28.181301 C9.46954449,28.0704323 9.52770127,27.9479273 9.59126059,27.8141091 C9.65481992,27.6802909 9.71774364,27.5425939 9.77971398,27.4010182 C9.84168432,27.2594424 9.90143008,27.1194828 9.95895127,26.9811394 C10.0164725,26.8424727 10.0670021,26.7141495 10.1108581,26.5958465 C10.154714,26.4772202 10.1903072,26.3734626 10.2176377,26.2842505 C10.2446504,26.1947152 10.2583157,26.1284525 10.2583157,26.0857859 C10.2583157,26.0424727 10.2675318,26.0017455 10.2856462,25.9632808 C10.3037606,25.9248162 10.3295021,25.8934626 10.3628708,25.868897 C10.4626589,25.7916444 10.5767479,25.7392808 10.7054555,25.7114828 C10.8338453,25.6840081 10.9663665,25.6739879 11.1027013,25.6817455 C11.2387182,25.689503 11.3763242,25.7108364 11.5155191,25.7463919 C11.654714,25.7816242 11.7846928,25.8249374 11.9057733,25.8756848 C12.0268538,25.9261091 12.1349047,25.9810586 12.2302436,26.0395636 C12.3255826,26.0980687 12.4005826,26.1520485 12.4549258,26.2008566" id="Fill-30" fill="#0E2D6D"></path>
                    <path d="M16.4484852,25.9609535 C16.5272987,25.9855192 16.5794174,26.0317414 16.6051589,26.0996202 C16.6305826,26.1671758 16.633125,26.2340848 16.6118326,26.3003475 C16.5905403,26.3666101 16.5498623,26.4196202 16.4891631,26.4593778 C16.4287818,26.4994586 16.3531462,26.5059232 16.2625742,26.4781253 C16.108125,26.431903 15.9520869,26.4335192 15.7950953,26.4823273 C15.637786,26.5317818 15.4900106,26.6096808 15.3524047,26.715701 C15.2147987,26.8217212 15.0946716,26.9458424 14.9917055,27.0870949 C14.8887394,27.2289939 14.8178708,27.3686303 14.778464,27.507297 C14.7390572,27.639499 14.7149047,27.7552162 14.7060064,27.8531556 C14.6967903,27.9520646 14.6990148,28.037398 14.7126801,28.1094788 C14.7263453,28.1818828 14.7511335,28.2429737 14.7873623,28.2921051 C14.8239089,28.3412364 14.8677648,28.3826101 14.9192479,28.4165495 C15.0158581,28.4782869 15.1099258,28.5073778 15.2004979,28.5041455 C15.2910699,28.5012364 15.3781462,28.4821657 15.4614089,28.4462869 C15.5446716,28.4110545 15.6247564,28.3674182 15.7019809,28.3150545 C15.7792055,28.2626909 15.8526165,28.2187313 15.922214,28.183499 C15.9918114,28.1482667 16.0582309,28.127903 16.1217903,28.1233778 C16.1853496,28.1188525 16.2441419,28.147297 16.298803,28.2087111 C16.3499682,28.2643071 16.3744386,28.3296 16.3712606,28.4052364 C16.3684004,28.4805495 16.3394809,28.5442263 16.2851377,28.5965899 C16.1278284,28.7443071 15.9562182,28.8558222 15.7699894,28.9311354 C15.5840784,29.0067717 15.3984852,29.0442667 15.2141631,29.0442667 C14.9993326,29.0442667 14.8042055,28.9902869 14.6287818,28.8826505 C14.5744386,28.845802 14.5089725,28.7950545 14.4336547,28.7304081 C14.3577013,28.6657616 14.2944597,28.5752566 14.2429767,28.4582465 C14.1914936,28.3412364 14.1619386,28.1935192 14.1543114,28.0147717 C14.1470021,27.8366707 14.1822775,27.6149333 14.2610911,27.3505293 C14.3275106,27.1287919 14.4352436,26.9186909 14.5833369,26.7202263 C14.7314301,26.5217616 14.9055826,26.354004 15.1051589,26.2172768 C15.3047352,26.0802263 15.5205191,25.9855192 15.751875,25.9331556 C15.9832309,25.8811152 16.2155403,25.8901657 16.4484852,25.9609535 M14.7603496,25.4395798 C14.7028284,25.6024889 14.6475318,25.7676606 14.5947775,25.9357414 C14.5417055,26.1031758 14.4879979,26.2777212 14.4336547,26.4593778 C14.3729555,26.6659232 14.308125,26.8789333 14.2382097,27.0990545 C14.1689301,27.3188525 14.0923411,27.5373576 14.0093962,27.7542465 C13.9261335,27.9711354 13.8323835,28.1818828 13.7278284,28.3864889 C13.6235911,28.5914182 13.5063242,28.7798626 13.3763453,28.9521455 C13.3185064,29.019701 13.2460487,29.0533172 13.1583369,29.0533172 C13.1039936,29.0533172 13.0563242,29.0394182 13.0153284,29.0119434 C12.9746504,28.9844687 12.9428708,28.9482667 12.9199894,28.9036606 C12.8974258,28.8590545 12.8875742,28.8102465 12.8907521,28.7578828 C12.8936123,28.7058424 12.9117267,28.6567111 12.9450953,28.6104889 C13.1084428,28.4013576 13.2504979,28.1566707 13.3715784,27.8767515 C13.4926589,27.5968323 13.6029343,27.3039838 13.7027225,26.999499 C13.8028284,26.6950141 13.8965784,26.3908525 13.9842903,26.0879838 C14.0720021,25.7847919 14.161303,25.5055192 14.251875,25.2501657 C14.2823835,25.1638626 14.3313242,25.1092364 14.3996504,25.0862869 C14.4676589,25.0633374 14.5334428,25.0639838 14.5970021,25.0885495 C14.6605614,25.1131152 14.7110911,25.1564283 14.7489089,25.2178424 C14.7867267,25.2795798 14.7905403,25.3532768 14.7603496,25.4395798" id="Fill-32" fill="#0E2D6D"></path>
                    <path d="M20.2378284,25.4625293 C20.1138877,25.7240242 20.0020233,25.9716202 19.9019174,26.2056404 C19.8021292,26.4393374 19.7045657,26.679499 19.6092267,26.9254788 C19.5142055,27.1717818 19.4156886,27.4326303 19.3143114,27.7080242 C19.2129343,27.9834182 19.1017055,28.2921051 18.980625,28.6337616 C18.9656886,28.6764283 18.9497987,28.7197414 18.9332733,28.7627313 C18.9164301,28.8060444 18.8960911,28.845802 18.8719386,28.8826505 C18.8474682,28.919499 18.8166419,28.9489131 18.7788242,28.9705697 C18.7410064,28.991903 18.6933369,28.9996606 18.6358157,28.9935192 C18.5722564,28.9873778 18.5185487,28.9641051 18.4750106,28.9243475 C18.4308369,28.8842667 18.4028708,28.8335192 18.3907945,28.7717818 C18.3818962,28.7165091 18.3574258,28.6373172 18.3183369,28.5342061 C18.2789301,28.4314182 18.2318962,28.315701 18.177553,28.1883475 C18.1232097,28.0603475 18.0625106,27.9258828 17.9960911,27.7843071 C17.9293538,27.6427313 17.8629343,27.5040646 17.796197,27.3686303 C17.6328496,27.7626505 17.4793538,28.1272566 17.3357097,28.4627717 C17.1920657,28.7979636 17.0474682,29.0998626 16.9022352,29.367499 C16.8780826,29.4137212 16.844714,29.4489535 16.802447,29.4735192 C16.7601801,29.4980848 16.7147352,29.5103677 16.6664301,29.5103677 C16.6178072,29.5103677 16.5733157,29.4980848 16.5323199,29.4735192 C16.4916419,29.4489535 16.4598623,29.4172768 16.4372987,29.3788121 C16.4144174,29.3403475 16.4017055,29.2963879 16.3985275,29.2472566 C16.3956674,29.1981253 16.4061547,29.1502869 16.4303072,29.1043879 C16.6362394,28.7103677 16.825964,28.3011556 17.0001165,27.8767515 C17.1739513,27.451701 17.3439725,27.0334384 17.5104979,26.6209939 C17.5314725,26.5686303 17.5632521,26.527903 17.6058369,26.4988121 C17.6481038,26.469398 17.6935487,26.4532364 17.7418538,26.4503273 C17.7901589,26.4470949 17.8378284,26.4571152 17.8848623,26.4800646 C17.9318962,26.5033374 17.9687606,26.5395394 17.9960911,26.5886707 C18.0383581,26.6626909 18.0866631,26.751903 18.1413242,26.8563071 C18.1956674,26.9610343 18.252553,27.071903 18.3113453,27.1889131 C18.3704555,27.3056 18.4295657,27.4264889 18.4883581,27.5512566 C18.5474682,27.675701 18.602447,27.7982061 18.6542479,27.9181253 C18.7508581,27.6504889 18.8414301,27.4025697 18.9262818,27.1750141 C19.0111335,26.9474586 19.0956674,26.7270141 19.1805191,26.5149737 C19.265053,26.3026101 19.3537182,26.0918626 19.4458792,25.8824081 C19.5383581,25.6732768 19.6387818,25.4534788 19.747786,25.2223677 C19.7871928,25.139297 19.841536,25.0901657 19.9111335,25.0746505 C19.9807309,25.0594586 20.0465148,25.0668929 20.1084852,25.0979232 C20.1704555,25.1286303 20.2174894,25.1761455 20.2492691,25.2407919 C20.2810487,25.3057616 20.2772352,25.3794586 20.2378284,25.4625293" id="Fill-34" fill="#0E2D6D"></path>
                    <path d="M25.7925953,23.6023596 C25.4932309,23.7655919 25.2154767,23.9931475 24.9599682,24.2853495 C24.7041419,24.5778747 24.4696081,24.9069253 24.2563665,25.2731475 C24.043125,25.6393697 23.8518114,26.0256323 23.6824258,26.4319354 C23.5130403,26.8379152 23.3630403,27.2348444 23.2330614,27.6227232 C23.2753284,27.6256323 23.3140996,27.6379152 23.3487394,27.6595717 C23.3833792,27.6812283 23.4122987,27.708703 23.4351801,27.7426424 C23.4577436,27.7765818 23.4720445,27.8150465 23.4780826,27.8580364 C23.4841208,27.9013495 23.4812606,27.9443394 23.4688665,27.9870061 C23.4539301,28.0335515 23.4215148,28.0826828 23.3716208,28.1347232 C23.3217267,28.1874101 23.2670657,28.2433293 23.2082733,28.3034505 C23.1491631,28.3632485 23.0916419,28.4275717 23.0357097,28.4951273 C22.9794597,28.5630061 22.9365572,28.6363798 22.9063665,28.7165414 L22.8701377,28.8552081 C22.8520233,28.9166222 22.8186547,28.9651071 22.7703496,29.0003394 C22.7217267,29.0358949 22.6673835,29.0533495 22.6070021,29.0533495 C22.5250106,29.0533495 22.4563665,29.0229657 22.4004343,28.9612283 C22.3441843,28.8998141 22.3238453,28.8241778 22.3390996,28.7349657 C22.3451377,28.7010263 22.3527648,28.6696727 22.3616631,28.6405818 C22.3708792,28.6111677 22.3797775,28.5811071 22.3889936,28.5504 C22.4646292,28.2701576 22.5552013,27.9627636 22.6613453,27.6272485 C22.7671716,27.2917333 22.8898411,26.9481374 23.029036,26.5958141 C23.1679131,26.2434909 23.3239513,25.8924606 23.496197,25.5433697 C23.6687606,25.1939556 23.8584852,24.8645818 24.0656886,24.5552485 C24.2728919,24.2462384 24.4991631,23.9669657 24.7441843,23.7174303 C24.9895233,23.4685414 25.2539301,23.2668444 25.5383581,23.1129859 C25.6171716,23.069996 25.6889936,23.0628848 25.7541419,23.092299 C25.8189725,23.1217131 25.8675953,23.1666424 25.8990572,23.2283798 C25.9311547,23.2897939 25.9406886,23.356703 25.9286123,23.4291071 C25.916536,23.5015111 25.8714089,23.5590465 25.7925953,23.6023596" id="Fill-36" fill="#0E2D6D"></path>
                    <path d="M26.3914195,27.6456081 C26.3459746,27.569002 26.2735169,27.496598 26.1737288,27.4287192 C26.0739407,27.3611636 25.9617585,27.3272242 25.8378178,27.3272242 C25.8076271,27.3272242 25.7653602,27.3294869 25.7106992,27.3340121 C25.6563559,27.3388606 25.6020127,27.3479111 25.5473517,27.3618101 C25.4930085,27.3757091 25.4447034,27.3957495 25.4024364,27.4219313 C25.3598517,27.4481131 25.3341102,27.4843152 25.3252119,27.5305374 C25.3341102,27.5580121 25.3560381,27.5819313 25.3909958,27.6016485 C25.4256356,27.6220121 25.465678,27.6381737 25.5111229,27.6504566 C25.5565678,27.6627394 25.6064619,27.6727596 25.6611229,27.6801939 C25.7154661,27.6879515 25.7682203,27.6921535 25.8197034,27.6921535 C25.9255297,27.6921535 26.0300847,27.6873051 26.1330508,27.6782545 C26.2356992,27.6685576 26.321822,27.6578909 26.3914195,27.6456081 M28.0617585,26.7269818 C28.0617585,26.8811636 28.0356992,27.0217697 27.9848517,27.1494465 C27.9333686,27.2771232 27.8637712,27.3941333 27.7754237,27.5004768 C27.6880297,27.606497 27.5869703,27.7005576 27.4712924,27.7820121 C27.3565678,27.8634667 27.2342161,27.9336081 27.1039195,27.9917899 C27.1007415,28.1828202 27.0473517,28.3725576 26.9431144,28.5619717 C26.8382415,28.7513859 26.6787076,28.9071838 26.4641949,29.0303354 C26.421928,29.0581333 26.3764831,29.0720323 26.328178,29.0720323 C26.2585805,29.0720323 26.2013771,29.0519919 26.157839,29.0122343 C26.1139831,28.9721535 26.084428,28.9243152 26.0694915,28.8687192 C26.0542373,28.8134465 26.0558263,28.757204 26.0739407,28.7006384 C26.0920551,28.6434263 26.1314619,28.5965576 26.1918432,28.5597091 C26.2916314,28.4982949 26.3704449,28.4342949 26.4279661,28.3680323 C26.4851695,28.3017697 26.5248941,28.2348606 26.5458686,28.1673051 C26.421928,28.1918707 26.2795551,28.2112646 26.1193856,28.2251636 C25.9588983,28.2387394 25.7993644,28.2397091 25.6404661,28.2274263 C25.4815678,28.2151434 25.3325212,28.1873455 25.1933263,28.1443556 C25.0541314,28.1010424 24.9470339,28.035103 24.8713983,27.9458909 C24.7957627,27.8563556 24.7557203,27.7558303 24.7509534,27.6433455 C24.7465042,27.5311838 24.7684322,27.4219313 24.8167373,27.3155879 C24.8653602,27.2095677 24.9349576,27.1138909 25.0255297,27.0295273 C25.1164195,26.9448404 25.2206568,26.8856889 25.3385593,26.8517495 C25.5352754,26.7932444 25.7192797,26.7725576 25.8902542,26.7896889 C26.060911,26.806497 26.2159958,26.8488404 26.3555085,26.916396 C26.4943856,26.9842747 26.6154661,27.0679919 26.7184322,27.1678707 C26.8210805,27.2680727 26.9027542,27.3702141 26.9637712,27.4749414 C27.1144068,27.413204 27.2307203,27.3427394 27.3108051,27.2625778 C27.3908898,27.1824162 27.4503178,27.0996687 27.4900424,27.0133657 C27.5323093,26.9180121 27.5383475,26.8271838 27.5081568,26.7408808 C27.4776483,26.654901 27.4217161,26.581204 27.3397246,26.5194667 C27.2704449,26.467103 27.1903602,26.4218505 27.0997881,26.3833859 C27.0088983,26.3449212 26.9103814,26.3142141 26.8048729,26.2912646 C26.6987288,26.2676687 26.5881356,26.2502141 26.473411,26.2379313 C26.3583686,26.2256485 26.2433263,26.2195071 26.1282839,26.2195071 C25.9983051,26.2195071 25.8613347,26.2279111 25.7176907,26.2447192 C25.5740466,26.2618505 25.4386653,26.2841535 25.3115466,26.3116283 C25.184428,26.3394263 25.0725636,26.3694869 24.9756356,26.4018101 C24.8787076,26.4341333 24.8138771,26.4641939 24.7805085,26.4919919 C24.7986229,26.5256081 24.7979873,26.5753859 24.7782839,26.6419717 C24.7585805,26.7082343 24.7185381,26.7628606 24.657839,26.8055273 C24.6216102,26.8304162 24.584428,26.8436687 24.546928,26.8446384 C24.5091102,26.8462545 24.471928,26.8420525 24.4356992,26.8307394 C24.3991525,26.8200727 24.3654661,26.8039111 24.3333686,26.7825778 C24.3019068,26.7612444 24.2768008,26.7379717 24.2586864,26.7134061 C24.2342161,26.6856081 24.2161017,26.6487596 24.2043432,26.6025374 C24.1922669,26.5563152 24.189089,26.5065374 24.1951271,26.4525576 C24.2011653,26.398901 24.2170551,26.3442747 24.2427966,26.2886788 C24.2685381,26.2334061 24.3069915,26.1794263 24.3584746,26.1270626 C24.43125,26.0562747 24.5377119,25.9932444 24.6784958,25.9379717 C24.8192797,25.8823758 24.975,25.8361535 25.1459746,25.7993051 C25.3169492,25.7624566 25.4930085,25.7340121 25.6744703,25.7139717 C25.8559322,25.6939313 26.0256356,25.6842343 26.1829449,25.6842343 C26.4641949,25.6842343 26.7301907,25.7110626 26.9815678,25.7650424 C27.2323093,25.818699 27.4490466,25.9056485 27.6301907,26.0255677 C27.7576271,26.1086384 27.8612288,26.2117495 27.9413136,26.3345778 C28.0213983,26.4580525 28.0617585,26.5886384 28.0617585,26.7269818" id="Fill-38" fill="#0E2D6D"></path>
                    <path d="M31.020572,26.3116606 C31.0390042,26.3485091 31.0485381,26.3879434 31.0501271,26.4293172 C31.0517161,26.4710141 31.0447246,26.5101253 31.0297881,26.547297 C31.0145339,26.5841455 30.9919703,26.6161455 30.9614619,26.6439434 C30.931589,26.6717414 30.8966314,26.6917818 30.8572246,26.7040646 C30.8178178,26.7163475 30.7383686,26.7418828 30.6188771,26.7803475 C30.4993856,26.8188121 30.3611441,26.8679434 30.2038347,26.9280646 C30.0465254,26.9881859 29.8809534,27.058004 29.7068008,27.1381657 C29.5326483,27.218004 29.3718432,27.3072162 29.22375,27.405802 C29.075339,27.5040646 28.9494915,27.6097616 28.8468432,27.7219232 C28.7441949,27.8344081 28.6863559,27.9533576 28.6742797,28.0797414 C28.6685593,28.1321051 28.6812712,28.1828525 28.7130508,28.2316606 C28.7448305,28.2814384 28.7759746,28.3228121 28.8061653,28.3564283 C28.9059534,28.4795798 29.0578602,28.5681455 29.2622034,28.621802 C29.4662288,28.6757818 29.7153814,28.7026101 30.0087076,28.7026101 C30.0843432,28.7026101 30.1479025,28.7294384 30.1993856,28.7834182 C30.2505508,28.837398 30.2762924,28.901398 30.2762924,28.9750949 C30.2762924,29.0520242 30.2505508,29.1176404 30.1993856,29.171297 C30.1479025,29.2252768 30.0843432,29.2521051 30.0087076,29.2521051 C29.6546822,29.2521051 29.3368856,29.2120242 29.0556356,29.1321859 C28.7743856,29.0520242 28.5506568,28.9104485 28.3841314,28.7074586 C28.3116737,28.6182465 28.2570127,28.5351758 28.2204661,28.4582465 C28.1842373,28.3809939 28.1594492,28.3098828 28.1457839,28.2436202 C28.1321186,28.1773576 28.1273517,28.1165899 28.1321186,28.0609939 C28.1368856,28.0057212 28.1435593,27.9533576 28.1527754,27.9042263 C28.1918644,27.7070545 28.2843432,27.5273374 28.4295763,27.3641051 C28.5748093,27.201196 28.7508686,27.0534788 28.958072,26.9212768 C29.1652754,26.7890747 29.3915466,26.6701253 29.6365678,26.5657212 C29.881589,26.4609939 30.12375,26.3672566 30.3627331,26.2841859 C30.3020339,26.1888323 30.2356144,26.0863677 30.1631568,25.9771152 C30.0903814,25.8678626 30.0252331,25.7702465 29.9677119,25.6842667 C29.9162288,25.6102465 29.901928,25.5378424 29.9248093,25.4670545 C29.9473729,25.3962667 29.9867797,25.3416404 30.0427119,25.3031758 C30.0986441,25.2650343 30.1622034,25.2485495 30.233072,25.2546909 C30.3042585,25.2608323 30.3655932,25.3009131 30.4173941,25.3749333 C30.4262924,25.3872162 30.445678,25.4156606 30.4761864,25.4599434 C30.5063771,25.5048727 30.5419703,25.5578828 30.5826483,25.619297 C30.6236441,25.6810343 30.6668644,25.747297 30.7119915,25.8180848 C30.7574364,25.8885495 30.8016102,25.9561051 30.8435593,26.0210747 C30.8861441,26.0857212 30.9230085,26.143903 30.9547881,26.1965899 C30.9868856,26.2489535 31.0084958,26.2870949 31.020572,26.3116606" id="Fill-40" fill="#0E2D6D"></path>
                    <path d="M34.3745021,25.4625293 C34.2502436,25.7240242 34.1383792,25.9716202 34.0385911,26.2056404 C33.938803,26.4393374 33.8412394,26.679499 33.7455826,26.9254788 C33.6505614,27.1717818 33.5520445,27.4326303 33.4509852,27.7080242 C33.3492903,27.9834182 33.2383792,28.2921051 33.1172987,28.6337616 C33.1020445,28.6764283 33.0861547,28.7197414 33.069947,28.7627313 C33.0531038,28.8060444 33.032447,28.845802 33.0082945,28.8826505 C32.9841419,28.919499 32.9529979,28.9489131 32.9154979,28.9705697 C32.8773623,28.991903 32.8300106,28.9996606 32.7724894,28.9935192 C32.7089301,28.9873778 32.6552225,28.9641051 32.6113665,28.9243475 C32.5671928,28.8842667 32.5395445,28.8335192 32.5274682,28.7717818 C32.5182521,28.7165091 32.4940996,28.6373172 32.4546928,28.5342061 C32.415286,28.4314182 32.3685699,28.315701 32.3142267,28.1883475 C32.2598835,28.0603475 32.1988665,27.9258828 32.132447,27.7843071 C32.0660275,27.6427313 31.9992903,27.5040646 31.9328708,27.3686303 C31.7695233,27.7626505 31.6157097,28.1272566 31.4720657,28.4627717 C31.3284216,28.7979636 31.1841419,29.0998626 31.0389089,29.367499 C31.0147564,29.4137212 30.9813877,29.4489535 30.938803,29.4735192 C30.8968538,29.4980848 30.8510911,29.5103677 30.8031038,29.5103677 C30.7544809,29.5103677 30.7099894,29.4980848 30.6689936,29.4735192 C30.6283157,29.4489535 30.5962182,29.4172768 30.5736547,29.3788121 C30.5510911,29.3403475 30.5383792,29.2963879 30.5352013,29.2472566 C30.5320233,29.1981253 30.5425106,29.1502869 30.5669809,29.1043879 C30.7725953,28.7103677 30.9626377,28.3011556 31.1364725,27.8767515 C31.3103072,27.451701 31.4806462,27.0334384 31.6468538,26.6209939 C31.6681462,26.5686303 31.6999258,26.527903 31.7425106,26.4988121 C31.7847775,26.469398 31.8299047,26.4532364 31.8785275,26.4503273 C31.9268326,26.4470949 31.9745021,26.4571152 32.021536,26.4800646 C32.0682521,26.5033374 32.1051165,26.5395394 32.132447,26.5886707 C32.174714,26.6626909 32.2233369,26.751903 32.2776801,26.8563071 C32.3320233,26.9610343 32.3889089,27.071903 32.4480191,27.1889131 C32.5068114,27.3056 32.5662394,27.4264889 32.6250318,27.5512566 C32.6841419,27.675701 32.7391208,27.7982061 32.7906038,27.9181253 C32.887214,27.6504889 32.9781038,27.4025697 33.0629555,27.1750141 C33.1478072,26.9474586 33.2323411,26.7270141 33.3171928,26.5149737 C33.4014089,26.3026101 33.4903919,26.0918626 33.582553,25.8824081 C33.674714,25.6732768 33.7754555,25.4534788 33.8841419,25.2223677 C33.9235487,25.139297 33.9782097,25.0901657 34.0478072,25.0746505 C34.1170869,25.0594586 34.1828708,25.0668929 34.2451589,25.0979232 C34.3071292,25.1286303 34.3541631,25.1761455 34.385625,25.2407919 C34.4177225,25.3057616 34.4135911,25.3794586 34.3745021,25.4625293" id="Fill-42" fill="#0E2D6D"></path>
                    <path d="M39.2392055,25.5177697 C39.1031886,25.5177697 38.9706674,25.5478303 38.8422775,25.6076283 C38.7135699,25.6677495 38.5902648,25.7472646 38.4723623,25.8455273 C38.3544597,25.9441131 38.2422775,26.0562747 38.1364513,26.1826586 C38.030625,26.3087192 37.9340148,26.4380121 37.8459852,26.5702141 C37.7582733,26.7027394 37.6797775,26.8317091 37.6101801,26.9580929 C37.5402648,27.0841535 37.4846504,27.1963152 37.4423835,27.294901 C37.6327436,27.2612848 37.8075318,27.2179717 37.9664301,27.1659313 C38.1250106,27.1135677 38.274375,27.0518303 38.4132521,26.9810424 C38.552447,26.9105778 38.6849682,26.8297697 38.8104979,26.7386182 C38.9360275,26.6481131 39.0621928,26.5485576 39.1896292,26.4409212 C39.2226801,26.4134465 39.2595445,26.371103 39.3005403,26.3142141 C39.3412182,26.257002 39.379036,26.1939717 39.4139936,26.1248 C39.4486335,26.0556283 39.4769174,25.9854869 39.4978919,25.9150222 C39.5191843,25.8442343 39.5258581,25.7786182 39.5185487,25.718497 C39.5106038,25.658699 39.4858157,25.6102141 39.4435487,25.5733657 C39.4012818,25.5365172 39.3329555,25.5177697 39.2392055,25.5177697 M39.5388877,26.8656485 C39.3784004,27.0010828 39.2175953,27.1242343 39.0555191,27.2347798 C38.8937606,27.3456485 38.7218326,27.4432646 38.5403708,27.5279515 C38.3589089,27.6126384 38.1628284,27.6850424 37.9527648,27.7451636 C37.7423835,27.8049616 37.5116631,27.8505374 37.2606038,27.8812444 C37.2485275,27.9704566 37.2440784,28.0570828 37.2469386,28.1417697 C37.2501165,28.2267798 37.2660064,28.3033859 37.2949258,28.3725576 C37.3235275,28.4420525 37.3680191,28.5034667 37.4287182,28.5571232 C37.4890996,28.611103 37.5691843,28.6534465 37.6692903,28.6844768 C37.7417479,28.7058101 37.8218326,28.7129212 37.9095445,28.7048404 C37.9975742,28.6974061 38.0811547,28.6760727 38.1612394,28.6405172 C38.2416419,28.6052848 38.311875,28.5571232 38.3722564,28.4973253 C38.4329555,28.437204 38.4723623,28.3644768 38.4907945,28.2781737 C38.5085911,28.1889616 38.5495869,28.1272242 38.6128284,28.0936081 C38.6763877,28.0596687 38.7418538,28.049002 38.8082733,28.0609616 C38.8750106,28.0732444 38.9312606,28.1075071 38.9786123,28.1627798 C39.0253284,28.2180525 39.0412182,28.2904566 39.025964,28.3796687 C38.9986335,28.5147798 38.9474682,28.6372848 38.8718326,28.7465374 C38.7958792,28.8557899 38.7043538,28.9482343 38.5969386,29.0235475 C38.4898411,29.0988606 38.3722564,29.1567192 38.2454555,29.1968 C38.1186547,29.2365576 37.9896292,29.256598 37.8596504,29.256598 C37.6750106,29.256598 37.5097564,29.2258909 37.3629343,29.1641535 C37.2161123,29.1027394 37.0918538,29.0157899 36.9907945,28.9036283 C36.8890996,28.7911434 36.8137818,28.6566788 36.7638877,28.4999111 C36.7139936,28.342497 36.6949258,28.1689212 36.7070021,27.9778909 L36.7070021,27.9319919 C36.6860275,27.9352242 36.6637818,27.9365172 36.6412182,27.9365172 L36.5528708,27.9365172 C36.4619809,27.9365172 36.3939725,27.908396 36.3485275,27.8511838 C36.3030826,27.7942949 36.2795657,27.7319111 36.2782945,27.6643556 C36.2767055,27.5968 36.2976801,27.5334465 36.3418538,27.4749414 C36.3857097,27.4164364 36.4514936,27.3870222 36.5392055,27.3870222 C36.605625,27.3841131 36.6571081,27.3821737 36.6933369,27.3805576 C36.7298835,27.3789414 36.7734216,27.3750626 36.8249047,27.3689212 C36.9129343,27.1103354 37.0308369,26.8501333 37.1792479,26.5886384 C37.3270233,26.3271434 37.4945021,26.0873051 37.6804131,25.8688 C37.8666419,25.6502949 38.0633581,25.4631434 38.2702436,25.3079919 C38.4777648,25.1525172 38.6840148,25.0516687 38.8896292,25.0054465 C39.1168538,24.9530828 39.3097564,24.9469414 39.4686547,24.9870222 C39.627553,25.0267798 39.7527648,25.0962747 39.8452436,25.1948606 C39.9374047,25.2934465 39.9996928,25.4140121 40.0311547,25.557204 C40.0629343,25.7000727 40.0645233,25.8484364 40.0359216,26.0026182 C40.0070021,26.1564768 39.9510699,26.3093657 39.868125,26.4619313 C39.7845445,26.6141737 39.6749047,26.7489616 39.5388877,26.8656485" id="Fill-44" fill="#0E2D6D"></path>
                    <path d="M41.2223517,26.0578586 C41.2070975,26.2023434 41.1877119,26.3345455 41.1632415,26.4551111 C41.139089,26.5750303 41.1082627,26.690101 41.0701271,26.8009697 C41.0323093,26.9118384 40.9871822,27.0204444 40.9341102,27.1264646 C40.8813559,27.2328081 40.8184322,27.344 40.7459746,27.4610101 C40.6881356,27.5469899 40.6112288,27.590303 40.5143008,27.590303 C40.4628178,27.590303 40.4167373,27.5773737 40.3760593,27.5511919 C40.3350636,27.5250101 40.3023305,27.4913939 40.278178,27.449697 C40.2540254,27.408 40.2419492,27.3617778 40.2419492,27.3110303 C40.2419492,27.2602828 40.2572034,27.2101818 40.2877119,27.1610505 C40.3509534,27.0624646 40.404661,26.9703434 40.4485169,26.8843636 C40.4923729,26.7980606 40.5292373,26.7104646 40.5597458,26.6209293 C40.5899364,26.5317172 40.614089,26.4373333 40.6325212,26.3371313 C40.6503178,26.2372525 40.667161,26.1241212 40.6824153,25.9977374 C40.6913136,25.9085253 40.7259534,25.8448485 40.7866525,25.8063838 C40.8470339,25.7679192 40.9112288,25.7517576 40.9795551,25.757899 C41.0475636,25.7640404 41.1073093,25.7934545 41.1587924,25.8454949 C41.2102754,25.8978586 41.23125,25.9686465 41.2223517,26.0578586" id="Fill-46" fill="#0E2D6D"></path>
                    <path d="M44.0449576,25.5177697 C43.9089407,25.5177697 43.7764195,25.5478303 43.6480297,25.6076283 C43.519322,25.6677495 43.3960169,25.7472646 43.2781144,25.8455273 C43.1602119,25.9441131 43.0480297,26.0562747 42.9422034,26.1826586 C42.8363771,26.3087192 42.7397669,26.4380121 42.6517373,26.5702141 C42.5640254,26.7027394 42.4855297,26.8317091 42.4159322,26.9580929 C42.3460169,27.0841535 42.2904025,27.1963152 42.2481356,27.294901 C42.4384958,27.2612848 42.6132839,27.2179717 42.7721822,27.1659313 C42.9307627,27.1135677 43.0801271,27.0518303 43.2190042,26.9810424 C43.3581992,26.9105778 43.4907203,26.8297697 43.61625,26.7386182 C43.7417797,26.6481131 43.8679449,26.5485576 43.9953814,26.4409212 C44.0284322,26.4134465 44.0652966,26.371103 44.1062924,26.3142141 C44.1469703,26.257002 44.1847881,26.1939717 44.2197458,26.1248 C44.2543856,26.0556283 44.2826695,25.9854869 44.3036441,25.9150222 C44.3249364,25.8442343 44.3316102,25.7786182 44.3243008,25.718497 C44.3163559,25.658699 44.2915678,25.6102141 44.2493008,25.5733657 C44.2070339,25.5365172 44.1387076,25.5177697 44.0449576,25.5177697 M44.3446398,26.8656485 C44.1841525,27.0010828 44.0233475,27.1242343 43.8612712,27.2347798 C43.6995127,27.3456485 43.5275847,27.4432646 43.3461229,27.5279515 C43.164661,27.6126384 42.9685805,27.6850424 42.7585169,27.7451636 C42.5481356,27.8049616 42.3174153,27.8505374 42.0663559,27.8812444 C42.0542797,27.9704566 42.0498305,28.0570828 42.0526907,28.1417697 C42.0558686,28.2267798 42.0717585,28.3033859 42.100678,28.3725576 C42.1292797,28.4420525 42.1737712,28.5034667 42.2344703,28.5571232 C42.2948517,28.611103 42.3749364,28.6534465 42.4750424,28.6844768 C42.5475,28.7058101 42.6275847,28.7129212 42.7152966,28.7048404 C42.8033263,28.6974061 42.8869068,28.6760727 42.9669915,28.6405172 C43.0473941,28.6052848 43.1176271,28.5571232 43.1780085,28.4973253 C43.2387076,28.437204 43.2781144,28.3644768 43.2965466,28.2781737 C43.3143432,28.1889616 43.355339,28.1272242 43.4185805,28.0936081 C43.4821398,28.0596687 43.5476059,28.049002 43.6140254,28.0609616 C43.6807627,28.0732444 43.7370127,28.1075071 43.7843644,28.1627798 C43.8310805,28.2180525 43.8469703,28.2904566 43.8317161,28.3796687 C43.8043856,28.5147798 43.7532203,28.6372848 43.6775847,28.7465374 C43.6016314,28.8557899 43.5101059,28.9482343 43.4026907,29.0235475 C43.2955932,29.0988606 43.1780085,29.1567192 43.0512076,29.1968 C42.9244068,29.2365576 42.7953814,29.256598 42.6654025,29.256598 C42.4807627,29.256598 42.3155085,29.2258909 42.1686864,29.1641535 C42.0218644,29.1027394 41.8976059,29.0157899 41.7965466,28.9036283 C41.6948517,28.7911434 41.6195339,28.6566788 41.5696398,28.4999111 C41.5197458,28.342497 41.500678,28.1689212 41.5127542,27.9778909 L41.5127542,27.9319919 C41.4917797,27.9352242 41.4695339,27.9365172 41.4469703,27.9365172 L41.3586229,27.9365172 C41.2677331,27.9365172 41.1997246,27.908396 41.1542797,27.8511838 C41.1088347,27.7942949 41.0853178,27.7319111 41.0840466,27.6643556 C41.0824576,27.5968 41.1034322,27.5334465 41.1476059,27.4749414 C41.1914619,27.4164364 41.2572458,27.3870222 41.3449576,27.3870222 C41.4113771,27.3841131 41.4628602,27.3821737 41.499089,27.3805576 C41.5356356,27.3789414 41.5791737,27.3750626 41.6306568,27.3689212 C41.7186864,27.1103354 41.836589,26.8501333 41.985,26.5886384 C42.1327754,26.3271434 42.3002542,26.0873051 42.4861653,25.8688 C42.6723941,25.6502949 42.8691102,25.4631434 43.0759958,25.3079919 C43.2835169,25.1525172 43.4897669,25.0516687 43.6953814,25.0054465 C43.9226059,24.9530828 44.1155085,24.9469414 44.2744068,24.9870222 C44.4333051,25.0267798 44.5585169,25.0962747 44.6509958,25.1948606 C44.7431568,25.2934465 44.8054449,25.4140121 44.8369068,25.557204 C44.8686864,25.7000727 44.8702754,25.8484364 44.8416737,26.0026182 C44.8127542,26.1564768 44.756822,26.3093657 44.6738771,26.4619313 C44.5902966,26.6141737 44.4806568,26.7489616 44.3446398,26.8656485" id="Fill-48" fill="#0E2D6D"></path>
                    <path d="M50.2668114,26.1178505 C50.4635275,26.2565172 50.5973199,26.4165172 50.6688242,26.5978505 C50.739375,26.7795071 50.7638453,26.9689212 50.740964,27.1657697 C50.7184004,27.3629414 50.6564301,27.5588202 50.555053,27.7540525 C50.4536758,27.9496081 50.3271928,28.129002 50.1762394,28.2922343 C50.0246504,28.4548202 49.8562182,28.5957495 49.6703072,28.7143758 C49.4840784,28.8326788 49.297214,28.9134869 49.109714,28.9564768 C48.9009216,28.9997899 48.7188242,28.9897697 48.5631038,28.9264162 C48.4067479,28.8637091 48.2869386,28.7321535 48.2020869,28.5320727 C48.1868326,28.5042747 48.1747564,28.4758303 48.1658581,28.4464162 C48.1566419,28.4173253 48.1477436,28.3888808 48.1385275,28.3610828 L48.1156462,28.2964364 C47.9977436,28.3704566 47.8884216,28.4603152 47.7867267,28.5666586 C47.6853496,28.6726788 47.586197,28.7751434 47.4895869,28.8734061 C47.4352436,28.929002 47.379947,28.9849212 47.3240148,29.0421333 C47.2677648,29.0990222 47.211197,29.1549414 47.1536758,29.2105374 C47.1263453,29.235103 47.0967903,29.2535273 47.0653284,29.2658101 C47.0335487,29.2780929 47.0011335,29.2842343 46.9677648,29.2842343 C46.9102436,29.2842343 46.8593962,29.2680727 46.8158581,29.2357495 C46.7720021,29.2037495 46.7399047,29.162699 46.7205191,29.1135677 C46.7004979,29.0641131 46.6947775,29.0127192 46.7020869,28.9590626 C46.7100318,28.9050828 46.7364089,28.8569212 46.781536,28.8136081 C46.9235911,28.6749414 47.0621504,28.5336889 47.1968962,28.3888808 C47.3316419,28.244396 47.4743326,28.1073455 47.6256038,27.9780525 C47.7527225,27.8704162 47.8684004,27.7934869 47.9729555,27.7472646 C48.0771928,27.7010424 48.1811123,27.6936081 48.2837606,27.7243152 C48.3682945,27.7488808 48.4334428,27.7879919 48.4788877,27.8419717 C48.5243326,27.8959515 48.5605614,27.9560727 48.5878919,28.0220121 C48.6152225,28.0882747 48.6384216,28.1551838 48.658125,28.2227394 C48.6778284,28.2906182 48.7057945,28.3488 48.7420233,28.3982545 C48.7540996,28.4163556 48.7715784,28.4286384 48.7941419,28.435103 C48.8170233,28.4412444 48.8411758,28.4435071 48.8669174,28.4418909 C48.8926589,28.440598 48.9161758,28.4367192 48.9371504,28.4302545 C48.9584428,28.4244364 48.9765572,28.4195879 48.9914936,28.4163556 C49.0947775,28.3950222 49.2095021,28.3481535 49.3366208,28.2757495 C49.4637394,28.2033455 49.5851377,28.1112242 49.7020869,27.9987394 C49.8184004,27.8865778 49.9213665,27.7579313 50.0103496,27.6134465 C50.0999682,27.4689616 50.1609852,27.3102545 50.194036,27.1379717 C50.2092903,27.0675071 50.2124682,27.0025374 50.2035699,26.9443556 C50.194036,26.8858505 50.1778284,26.8334869 50.1536758,26.7872646 C50.1292055,26.7410424 50.0999682,26.7003152 50.0650106,26.6647596 C50.0303708,26.6295273 49.9947775,26.5994667 49.9582309,26.574901 C49.8616208,26.5073455 49.7449894,26.4549818 49.6089725,26.4181333 C49.4726377,26.3809616 49.3258157,26.3625374 49.1688242,26.3625374 C49.0115148,26.3625374 48.8494386,26.3848404 48.6832309,26.4294465 C48.5167055,26.4743758 48.3578072,26.5441939 48.2068538,26.6395475 C48.1309004,26.689002 48.0590784,26.7012848 47.9910699,26.6767192 C47.9230614,26.6518303 47.8709428,26.6101333 47.834714,26.5519515 C47.7981674,26.4934465 47.7838665,26.4278303 47.7914936,26.3554263 C47.798803,26.2833455 47.8404343,26.2225778 47.9163877,26.1734465 C48.0946716,26.0593455 48.2882097,25.9717495 48.4973199,25.9100121 C48.7057945,25.848598 48.9152225,25.8149818 49.1256038,25.8085172 C49.3356674,25.8023758 49.539375,25.825002 49.7360911,25.8757495 C49.9324894,25.9261737 50.1095021,26.0069818 50.2668114,26.1178505" id="Fill-50" fill="#0E2D6D"></path>
                    <path d="M52.2549153,25.854901 C52.2336229,25.987103 52.2024788,26.1409616 52.1618008,26.3164768 C52.1208051,26.4919919 52.0734534,26.6765576 52.0187924,26.870497 C51.9644492,27.0641131 51.9031144,27.2632242 51.8351059,27.4678303 C51.7670975,27.6727596 51.6949576,27.8712242 51.619322,28.0635475 C51.5440042,28.2558707 51.4651907,28.4365576 51.3835169,28.6059313 C51.3018432,28.7749818 51.2201695,28.922699 51.138178,29.0490828 C51.1140254,29.0920727 51.081928,29.1234263 51.0409322,29.1434667 C50.9999364,29.1635071 50.9583051,29.1738505 50.9160381,29.1738505 C50.8645551,29.1738505 50.817839,29.160598 50.775572,29.1344162 C50.7329873,29.1079111 50.7002542,29.0742949 50.6776907,29.0329212 C50.6551271,28.9912242 50.6440042,28.9459717 50.6440042,28.8965172 C50.6440042,28.8473859 50.6589407,28.7979313 50.6891314,28.7488 C50.7619068,28.6353455 50.835,28.4999111 50.9093644,28.342497 C50.983411,28.1857293 51.0552331,28.0173253 51.1248305,27.8372848 C51.194428,27.6572444 51.2608475,27.4710626 51.3244068,27.2787394 C51.3879661,27.0867394 51.4454873,26.8986182 51.4969703,26.7156687 C51.5481356,26.5327192 51.5929449,26.3588202 51.6307627,26.1939717 C51.6685805,26.0294465 51.6981356,25.8856081 51.7191102,25.7624566 C51.7315042,25.6732444 51.769322,25.6108606 51.8328814,25.5756283 C51.8961229,25.5400727 51.9619068,25.5287596 52.0302331,25.5407192 C52.0982415,25.553002 52.1563983,25.5862949 52.2050212,25.6402747 C52.2533263,25.6939313 52.2698517,25.7656889 52.2549153,25.854901" id="Fill-52" fill="#0E2D6D"></path>
                    <path d="M55.2497669,24.502303 C54.9875847,24.6564848 54.7308051,24.8439596 54.4737076,25.0563232 C54.2166102,25.2686869 53.9830297,25.5062626 53.7726483,25.7693737 C53.5622669,26.0324848 53.3862076,26.3211313 53.2438347,26.6349899 C53.1014619,26.9485253 53.015339,27.2856566 52.9851483,27.6457374 C52.9698941,27.8396768 52.995,28.0064646 53.0598305,28.1464242 C53.1249788,28.2867071 53.2196822,28.3949899 53.3436229,28.4719192 C53.4586653,28.5459394 53.5676695,28.5827879 53.6703178,28.5827879 C53.7732839,28.5827879 53.8867373,28.5475556 54.0109958,28.4764444 C54.1377966,28.4027475 54.2382203,28.3167677 54.3125847,28.2181818 C54.3866314,28.119596 54.4425636,28.0158384 54.4803814,27.9065859 C54.5181992,27.7973333 54.5417161,27.6851717 54.5509322,27.5694545 C54.5598305,27.4543838 54.5636441,27.341899 54.5623729,27.2326465 C54.5607839,27.1233939 54.5582415,27.0202828 54.5553814,26.9233131 C54.5525212,26.8263434 54.5576059,26.7419798 54.5712712,26.6695758 C54.5849364,26.5971717 54.6113136,26.5396364 54.6507203,26.4963232 C54.6898093,26.4533333 54.7505085,26.432 54.8325,26.432 C54.9017797,26.432 54.9647034,26.4523636 55.0203178,26.4940606 C55.0765678,26.5357576 55.1118432,26.5932929 55.1270975,26.6669899 C55.1572881,26.8366869 55.1687288,27.0147879 55.1614195,27.2025859 C55.1534746,27.3903838 55.1270975,27.5759192 55.0819703,27.7588687 C55.0365254,27.9421414 54.9720127,28.1160404 54.88875,28.2802424 C54.8058051,28.4450909 54.7034746,28.5902222 54.5823941,28.7166061 C54.4616314,28.8429899 54.3218008,28.9435152 54.1629025,29.0191515 C54.0040042,29.0941414 53.8263559,29.1319596 53.6296398,29.1319596 C53.5689407,29.1319596 53.5139619,29.128404 53.4640678,29.1203232 C53.4141737,29.1128889 53.3671398,29.1006061 53.3232839,29.0834747 C53.279428,29.0666667 53.2362076,29.0466263 53.1939407,29.0233535 C53.1513559,29.000404 53.1062288,28.9735758 53.0579237,28.9425455 C52.8430932,28.8074343 52.6826059,28.6241616 52.5767797,28.3933737 C52.4709534,28.1625859 52.4255085,27.9027071 52.4404449,27.6134141 C52.4620551,27.2071111 52.5510381,26.8263434 52.7083475,26.4711111 C52.8656568,26.1155556 53.0623729,25.7881212 53.298178,25.4878384 C53.5346186,25.1878788 53.7990254,24.9176566 54.0904449,24.6755556 C54.9920339,23.9266263 56.2473305,23.5345455 56.9798517,23.2853333 C57.048178,23.2623838 57.4149153,23.4395152 57.3777331,23.4980202 C57.3777331,23.4980202 55.7601483,24.2023434 55.2497669,24.502303" id="Fill-54" fill="#0E2D6D"></path>
                    <polygon id="Fill-56" fill="#0E2D6D" points="64.3541631 28.1585455 64.3541631 25.8244848 62.5900742 25.8244848 62.5900742 24.6417778 61.4345657 24.6417778 61.4345657 26.951596 63.1996081 26.951596 63.1996081 27.8217374 62.0806462 29.6405657 63.4443114 29.6405657"></polygon>
                    <polygon id="Fill-58" fill="#0E2D6D" points="67.9777754 26.9682101 67.9777754 25.8262303 64.6485381 25.8262303 64.6485381 26.9682101 66.2747034 26.9682101 66.2747034 29.6397253 67.4340254 29.6397253 67.4340254 26.9682101"></polygon>
                    <polygon id="Fill-60" fill="#0E2D6D" points="70.5563136 29.6437333 70.5563136 26.6063192 69.8279237 25.824097 68.3225212 25.824097 68.3225212 26.9583192 69.3982627 26.9583192 69.3982627 27.5763394 68.1934958 28.5777131 68.1934958 29.746198 68.5599153 29.746198 69.4357627 28.8097939 69.4557839 28.8097939 69.5199788 29.6437333"></polygon>
                    <polygon id="Fill-62" fill="#0E2D6D" points="74.8940466 29.6437333 74.8940466 26.6063192 74.1656568 25.824097 71.0070763 25.824097 71.0070763 26.9515313 71.52 26.9515313 71.0556992 29.6437333 72.2862076 29.6437333 72.6726483 26.9515313 73.7366314 26.9515313 73.7366314 28.5088646 73.0346186 28.5088646 73.0346186 29.6437333"></polygon>
                    <path d="M61.4014831,23.6434101 L62.5105932,22.0938343 L73.7777542,22.0938343 L74.8941737,23.6434101 L61.4014831,23.6434101 Z M64.3356992,19.2862384 L67.503178,19.2862384 L67.503178,17.7395717 L64.3356992,17.7395717 L64.3356992,19.2862384 Z M68.7877119,19.2862384 L71.9539195,19.2862384 L71.9539195,17.7395717 L68.7877119,17.7395717 L68.7877119,19.2862384 Z M71.9586864,17.1095919 L68.7877119,17.1095919 C68.7638771,16.7485414 68.4858051,16.4657131 68.1470339,16.4657131 C67.8098517,16.4657131 67.5324153,16.7485414 67.5079449,17.1095919 L64.3356992,17.1095919 L64.3356992,15.5642182 L71.9586864,15.5642182 L71.9586864,17.1095919 Z M63.5485169,13.3820768 L67.5034958,13.3820768 L67.5034958,14.9335919 L64.3356992,14.9335919 L63.5485169,13.3820768 Z M68.7877119,13.3820768 L72.748411,13.3820768 L71.9586864,14.9335919 L68.7877119,14.9335919 L68.7877119,13.3820768 Z M62.4143008,11.2060768 L64.1373941,11.2060768 L64.1373941,11.8958545 L65.0189619,11.8958545 L65.0189619,11.2060768 L66.5170551,11.2060768 L66.5170551,11.8958545 L67.3989407,11.8958545 L67.3989407,11.2060768 L68.8992585,11.2060768 L68.8992585,11.8958545 L69.7754237,11.8958545 L69.7754237,11.2060768 L71.2751059,11.2060768 L71.2751059,11.8958545 L72.1569915,11.8958545 L72.1569915,11.2060768 L73.8775424,11.2060768 L73.0887712,12.7550061 L68.7877119,12.7550061 C68.7877119,12.3700364 68.4997881,12.061996 68.1470339,12.061996 C67.7939619,12.061996 67.5034958,12.3700364 67.5034958,12.7550061 L63.2087924,12.7550061 L62.4143008,11.2060768 Z M64.5807203,0.31670303 L65.9612288,0.31670303 L65.9612288,1.05593535 L66.4398305,1.05593535 L66.4398305,0.31670303 L67.909322,0.31670303 L67.909322,1.05593535 L68.3879237,1.05593535 L68.3879237,0.31670303 L69.8507415,0.31670303 L69.8507415,1.05593535 L70.3306144,1.05593535 L70.3306144,0.31670303 L71.7174788,0.31670303 L71.7174788,1.86692525 L64.5807203,1.86692525 L64.5807203,0.31670303 Z M64.3356992,6.85084444 L71.9586864,6.85084444 L71.1645127,8.40494545 L65.1346398,8.40494545 L64.3356992,6.85084444 Z M65.1346398,10.5780364 L71.1597458,10.5780364 L71.1597458,9.02652121 L65.1346398,9.02652121 L65.1346398,10.5780364 Z M65.5407839,6.2263596 L70.7539195,6.2263596 L70.7539195,4.67452121 L65.5407839,4.67452121 L65.5407839,6.2263596 Z M65.5407839,4.04454141 L70.7539195,4.04454141 L70.7539195,2.49722828 L65.5407839,2.49722828 L65.5407839,4.04454141 Z M72.828178,21.4654707 L63.4674788,21.4654707 L62.9847458,21.4654707 L64.0970339,19.9142788 L64.2581568,19.9142788 L72.0375,19.9142788 L72.1957627,19.9142788 L73.3080508,21.4654707 L72.828178,21.4654707 Z" id="Fill-64" fill="#0E2D6D"></path>
                </g>
            </g>
        </g>
    </g>
</svg>