<?xml version="1.0" encoding="UTF-8"?>
<svg width="78px" height="44px" viewBox="0 0 78 44" version="1.1" xmlns="http://www.w3.org/2000/svg" xmlns:xlink="http://www.w3.org/1999/xlink">
    <!-- Generator: sketchtool 48.2 (47327) - http://www.bohemiancoding.com/sketch -->
    <title>C6C5EEFF-3B67-4CB2-A8B5-5807E434DB31</title>
    <desc>Created with sketchtool.</desc>
    <defs></defs>
    <g id="HP-menu/focused" stroke="none" stroke-width="1" fill="none" fill-rule="evenodd" transform="translate(-1142.000000, -26.000000)">
        <g id="Logo" transform="translate(1143.000000, 26.000000)">
            <g id="Group" transform="translate(-1.000000, 0.000000)">
                <path d="M49.5,0 L77.5,0 C77.7761424,-5.07265313e-17 78,0.223857625 78,0.5 L78,43.5 C78,43.7761424 77.7761424,44 77.5,44 L49.5,44 C49.2238576,44 49,43.7761424 49,43.5 L49,0.5 C49,0.223857625 49.2238576,5.07265313e-17 49.5,0 Z" id="Rectangle-17-Copy-4" fill="#FF5A5F"></path>
                <g id="Group-4-Copy-10" transform="translate(63.099998, 21.699999) rotate(-90.000000) translate(-63.099998, -21.699999) translate(48.099998, 16.199999)" stroke="#FFFFFF" stroke-linejoin="round" stroke-width="0.8">
                    <g id="Group-6" transform="translate(0.199999, 0.000000)">
                        <path d="M4.04999989,7.6499998 L4.04999989,10.3499997 L6.35869548,10.3499997 C7.07186316,10.3499997 7.6499998,9.77186309 7.6499998,9.05869541 L7.6499998,6.29999983" id="Path-12"></path>
                        <polyline id="Path-11" points="2.24999994 10.7999997 2.24999994 6.29999983 5.84999985 6.29999983 5.84999985 8.99999976"></polyline>
                        <path d="M19.483789,6.29999983 L0.449999988,6.29999983 L0.449999988,4.49999988 L19.3972983,4.49999988 C19.7233697,2.24219036 21.6956966,0.674999982 24.0766886,0.674999982 C26.685301,0.674999982 28.7999992,2.79045448 28.7999992,5.39999986 C28.7999992,8.00954523 26.685301,10.1249997 24.0766886,10.1249997 C21.853978,10.1249997 19.9874048,8.41904027 19.483789,6.29999983 Z M24.0766886,8.41110871 C25.7367147,8.41110871 27.0824317,7.06212323 27.0824317,5.39806531 C27.0824317,3.73400739 25.7367147,2.38502191 24.0766886,2.38502191 C22.4166624,2.38502191 21.0709454,3.73400739 21.0709454,5.39806531 C21.0709454,7.06212323 22.4166624,8.41110871 24.0766886,8.41110871 Z M14.0358104,4.49999988 L14.0358104,6.29999983" id="Combined-Shape"></path>
                    </g>
                </g>
                <text id="מפתח-התקציב-copy-9" font-family="AbrahamTRIAL-Regular, Abraham TRIAL" font-size="14.5" font-weight="normal" line-spacing="14" fill="#FE656A">
                    <tspan x="8.5765" y="20.5">מפתח</tspan>
                    <tspan x="0" y="34.5">התקציב</tspan>
                </text>
                <path d="M1,43 L43,43" id="Path-15-Copy" stroke="#FE656A"></path>
                <path d="M1,1 L43,1" id="Path-15-Copy" stroke="#FE656A"></path>
            </g>
        </g>
    </g>
</svg>