<?xml version="1.0" encoding="UTF-8"?>
<svg width="83px" height="79px" viewBox="0 0 83 79" version="1.1" xmlns="http://www.w3.org/2000/svg" xmlns:xlink="http://www.w3.org/1999/xlink">
    <!-- Generator: sketchtool 50.2 (55047) - http://www.bohemiancoding.com/sketch -->
    <title>F1A500B7-C317-4812-A279-965E51B0D6D8</title>
    <desc>Created with sketchtool.</desc>
    <defs></defs>
    <g id="Page-1" stroke="none" stroke-width="1" fill="none" fill-rule="evenodd">
        <g id="hp:-suppliers" transform="translate(-1168.000000, -8.000000)">
            <g id="HP--menu" transform="translate(-2.000000, -5.000000)">
                <g id="open_procure_logo" transform="translate(1163.000000, 0.708990)">
                    <rect id="Background" x="8" y="11" width="82" height="82"></rect>
                    <path d="M51.4881683,11.7907899 L81.9881683,29.3075564 C83.8512393,30.3775557 85,32.3620498 85,34.5105219 L85,69.4894781 C85,71.6379502 83.8512393,73.6224443 81.9881683,74.6924436 L51.4881683,92.2092101 C49.6377848,93.2719227 47.3622152,93.2719227 45.5118317,92.2092101 L15.0118317,74.6924436 C13.1487607,73.6224443 12,71.6379502 12,69.4894781 L12,34.5105219 C12,32.3620498 13.1487607,30.3775557 15.0118317,29.3075564 L45.5118317,11.7907899 C47.3622152,10.7280773 49.6377848,10.7280773 51.4881683,11.7907899 Z" id="Polygon" fill="#2389FF" transform="translate(48.500000, 52.000000) rotate(20.000000) translate(-48.500000, -52.000000) "></path>
                    <text id="רכש-פתוח" font-family="AbrahamTRIAL-Regular, Abraham TRIAL" font-size="20" font-weight="normal" line-spacing="20" fill="#000000">
                        <tspan x="21.86" y="50">רכש</tspan>
                        <tspan x="13" y="70">פתוח</tspan>
                    </text>
                </g>
            </g>
        </g>
    </g>
</svg>