<?xml version="1.0" encoding="UTF-8"?>
<svg width="103px" height="44px" viewBox="0 0 103 44" version="1.1" xmlns="http://www.w3.org/2000/svg" xmlns:xlink="http://www.w3.org/1999/xlink">
    <!-- Generator: sketchtool 49.3 (51167) - http://www.bohemiancoding.com/sketch -->
    <title>CE53D361-0648-4DDF-8680-BED271B61C4E</title>
    <desc>Created with sketchtool.</desc>
    <defs></defs>
    <g id="Symbols" stroke="none" stroke-width="1" fill="none" fill-rule="evenodd">
        <g id="HP--menu-2" transform="translate(-1113.000000, -26.000000)">
            <g id="Logo" transform="translate(1112.000000, 26.000000)">
                <g id="Page-1" transform="translate(1.000000, 0.000000)">
                    <g id="Group-3" transform="translate(58.000000, 0.000000)">
                        <path d="M43.4796581,0 C43.8996556,0 44.2411,0.224 44.2411,0.5 L44.2411,43.5 C44.2411,43.776 43.8996556,44 43.4796581,44 L0.787589293,44 C0.366544381,44 0.0251,43.776 0.0251,43.5 L0.0251,0.5 C0.0251,0.224 0.366544381,0 0.787589293,0 L43.4796581,0 Z" id="Fill-1" fill="#FE8255"></path>
                        <g id="Group-5" transform="translate(4.000000, 8.000000)" stroke="#FFFFFF" stroke-linejoin="round" stroke-width="0.8">
                            <path d="M17.8062,24.1372 C20.8252,26.6202 25.7732,28.2872 34.7602,26.3152 L34.7602,2.1312 C34.7602,1.3262 34.0442,0.7102 33.2482,0.8302 L22.4902,2.4592 C19.3852,2.9292 16.2272,2.9292 13.1222,2.4592 L2.3642,0.8302 C1.5682,0.7102 0.8512,1.3262 0.8512,2.1312 L0.8512,26.3152 C9.8392,28.2872 14.7872,26.6202 17.8062,24.1372" id="Stroke-29"></path>
                            <path d="M22.0435,23.8276 C23.6885,24.5326 25.6745,24.8896 27.9445,24.8896 C29.3665,24.8896 30.9365,24.7496 32.6205,24.4736 L32.6205,3.8906 C32.6205,3.4986 32.2725,3.1986 31.8845,3.2576 L23.1085,4.5846 C21.3575,4.8496 19.5735,4.9846 17.8065,4.9846 C16.0375,4.9846 14.2545,4.8496 12.5035,4.5846 L3.7285,3.2576 C3.3405,3.1986 2.9915,3.4986 2.9915,3.8906 L2.9915,24.4736 C4.6765,24.7496 6.2465,24.8896 7.6675,24.8896 C9.8875,24.8896 11.8355,24.5486 13.4565,23.8746" id="Stroke-31"></path>
                            <path d="M21.5172,9.1304 C22.8002,10.1964 23.6182,11.8044 23.6182,13.6034 C23.6182,20.1324 17.8062,24.1374 17.8062,24.1374" id="Stroke-33"></path>
                            <path d="M17.8062,24.1372 C17.8062,24.1372 17.4982,23.9252 17.0242,23.5192" id="Stroke-35"></path>
                            <path d="M16.3297,22.8862 C14.6077,21.2252 11.9947,17.9822 11.9947,13.6032 C11.9947,10.3942 14.5967,7.7922 17.8067,7.7922 C18.6867,7.7922 19.5227,7.9882 20.2707,8.3392" id="Stroke-37" stroke-dasharray="1.888,0.944"></path>
                            <path d="M20.6959,8.5601 C20.9869,8.7271 21.2599,8.9181 21.5159,9.1301" id="Stroke-39"></path>
                            <path d="M20.8609,13.4624 C20.8609,15.1494 19.4929,16.5174 17.8059,16.5174 C16.1189,16.5174 14.7519,15.1494 14.7519,13.4624 C14.7519,11.7754 16.1189,10.4084 17.8059,10.4084 C19.4929,10.4084 20.8609,11.7754 20.8609,13.4624 Z" id="Stroke-41"></path>
                        </g>
                    </g>
                    <path d="M0.088,43 L52.026,43" id="Stroke-4" stroke="#FE8255"></path>
                    <path d="M0.088,1 L52.026,1" id="Stroke-6" stroke="#FE8255"></path>
                    <path d="M20.9083,13.6772 C21.3003,13.6342 21.7493,13.6192 22.1843,13.6192 L22.1843,17.9682 L20.7633,17.9682 L20.7633,15.9682 C20.7633,15.3302 20.8073,14.5182 20.9083,13.6772 M26.9253,12.6772 L26.9253,17.9682 L25.5183,17.9682 L25.5183,12.8512 C25.5183,12.4022 25.5183,11.9522 25.4603,11.5612 C24.9243,11.4742 24.2573,11.4592 23.5323,11.4592 C22.6773,11.4592 21.5603,11.5032 20.6193,11.5752 L20.5323,10.4162 C21.4303,10.3432 22.4743,10.3002 23.4453,10.3002 C26.3743,10.3002 26.9253,10.6182 26.9253,12.6772" id="Fill-8" fill="#5A32D1"></path>
                    <path d="M34.8566,13.8081 L34.8566,14.3731 C34.8566,16.8951 33.9436,17.9681 31.4066,17.9681 L28.9136,17.9681 L28.9136,16.8231 L31.1896,16.8231 C33.1746,16.8231 33.4366,16.2001 33.4366,14.1411 L33.4366,13.6051 C33.4366,12.7491 33.4216,12.0391 33.3356,11.5611 C33.0306,11.5171 32.6246,11.4891 31.8416,11.4891 L29.9866,11.4891 L29.9866,13.6481 L31.4646,13.6921 L31.4646,14.6491 C30.9576,14.6781 30.4506,14.6921 29.9146,14.6921 C29.0446,14.6921 28.6676,14.4891 28.6676,13.3291 L28.6676,9.7921 L29.8266,9.6771 L29.9576,10.3581 L31.9146,10.3581 C34.5086,10.3581 34.8566,10.7201 34.8566,13.8081" id="Fill-10" fill="#5A32D1"></path>
                    <path d="M42.8888,12.851 L42.8888,17.968 L39.2798,17.968 L39.3238,16.78 L41.4838,16.765 L41.4838,13.083 C41.4838,12.503 41.4398,12.039 41.3958,11.691 C41.1938,11.546 40.7868,11.503 40.3528,11.503 C39.7428,11.503 38.9318,11.691 38.1198,12.141 L37.5978,17.968 L36.1628,17.968 L36.7858,12.112 L36.2358,10.387 L37.5108,10.3 L37.8008,11.213 C38.8738,10.575 39.7728,10.329 40.7008,10.329 C42.2948,10.329 42.8888,10.923 42.8888,12.851" id="Fill-12" fill="#5A32D1"></path>
                    <path d="M44.9494,13.6772 C45.3414,13.6342 45.7904,13.6192 46.2254,13.6192 L46.2254,17.9682 L44.8044,17.9682 L44.8044,15.9682 C44.8044,15.3302 44.8484,14.5182 44.9494,13.6772 M50.9664,12.6772 L50.9664,17.9682 L49.5594,17.9682 L49.5594,12.8512 C49.5594,12.4022 49.5594,11.9522 49.5014,11.5612 C48.9654,11.4742 48.2984,11.4592 47.5734,11.4592 C46.7184,11.4592 45.6014,11.5032 44.6604,11.5752 L44.5734,10.4162 C45.4714,10.3432 46.5154,10.3002 47.4864,10.3002 C50.4154,10.3002 50.9664,10.6182 50.9664,12.6772" id="Fill-14" fill="#5A32D1"></path>
                    <path d="M7.5675,30.3378 L7.5675,35.3678 L6.1615,35.3678 L6.1615,30.4398 C6.1615,29.9758 6.1615,29.4828 6.1025,28.9758 C5.5665,28.8888 4.8845,28.8588 4.1315,28.8588 C3.7975,28.8588 3.3785,28.8588 2.9285,28.8738 L2.9285,33.5418 C2.9285,34.7158 2.4785,35.4118 0.8555,35.4118 C0.5655,35.4118 0.2175,35.3678 0.0005,35.3098 L0.0005,34.1938 C0.2905,34.2228 0.4495,34.2228 0.6375,34.2228 C1.3485,34.2228 1.5225,33.9478 1.5225,33.2958 L1.5225,28.9318 C1.0875,28.9608 0.6525,28.9758 0.2325,29.0048 L0.1165,27.8588 C1.3485,27.7578 2.7545,27.6998 4.0305,27.6998 C7.1465,27.6998 7.5675,28.0328 7.5675,30.3378" id="Fill-16" fill="#5A32D1"></path>
                    <path d="M9.8751,28.9028 L8.8311,28.9028 L8.7151,27.7578 C9.0771,27.7428 9.5121,27.7428 9.8461,27.7428 C10.9621,27.7428 11.2951,27.9318 11.2951,28.9758 L11.2951,32.2658 L9.8751,32.2658 L9.8751,28.9028 Z" id="Fill-18" fill="#5A32D1"></path>
                    <path d="M20.1828,30.3378 L20.1828,35.3678 L18.7768,35.3678 L18.7768,30.4398 C18.7768,29.9758 18.7768,29.4828 18.7178,28.9758 C18.1818,28.8888 17.4998,28.8588 16.7468,28.8588 C16.4128,28.8588 15.9938,28.8588 15.5438,28.8738 L15.5438,33.5418 C15.5438,34.7158 15.0938,35.4118 13.4708,35.4118 C13.1808,35.4118 12.8328,35.3678 12.6158,35.3098 L12.6158,34.1938 C12.9058,34.2228 13.0648,34.2228 13.2528,34.2228 C13.9638,34.2228 14.1378,33.9478 14.1378,33.2958 L14.1378,28.9318 C13.7028,28.9608 13.2678,28.9758 12.8478,29.0048 L12.7318,27.8588 C13.9638,27.7578 15.3698,27.6998 16.6458,27.6998 C19.7618,27.6998 20.1828,28.0328 20.1828,30.3378" id="Fill-20" fill="#5A32D1"></path>
                    <path d="M26.9679,30.2656 L26.9679,35.3686 L25.5479,35.3686 L25.5479,30.1496 C25.5479,29.6856 25.5479,29.3376 25.5189,28.9466 C25.1129,28.8886 24.5189,28.8736 23.8219,28.8736 C23.1419,28.8736 22.4019,28.9026 21.6049,28.9606 L21.5029,27.8016 C22.2719,27.7436 22.9389,27.6996 23.7799,27.6996 C26.6929,27.6996 26.9679,28.0046 26.9679,30.2656" id="Fill-22" fill="#5A32D1"></path>
                    <path d="M34.9279,34.2231 L34.9279,35.3681 L28.4779,35.3681 L28.4779,34.1801 L32.4069,34.1801 L32.4069,29.9471 C32.4069,29.5841 32.3919,29.2651 32.3329,28.9461 C31.9559,28.9031 31.5219,28.8741 30.9279,28.8741 C30.2459,28.8741 29.3039,28.8891 28.6089,28.9611 L28.5069,27.7861 C29.3039,27.7141 30.1589,27.7001 30.9129,27.7001 C33.2899,27.7001 33.8259,28.0041 33.8259,30.0191 L33.8259,34.1651 L34.9279,34.2231 Z" id="Fill-24" fill="#5A32D1"></path>
                    <path d="M42.7726,30.0771 L42.7726,35.3681 L41.3666,35.3681 L41.3666,29.9751 C41.3666,29.6421 41.3666,29.2801 41.3236,28.9611 C40.7876,28.8741 40.0476,28.8591 39.2506,28.8591 C38.8446,28.8591 38.3666,28.8591 37.8586,28.8741 L37.8586,35.3831 L36.4386,35.3831 L36.4386,31.9761 C36.4386,30.6421 36.4666,29.7871 36.5536,28.9171 L35.6266,28.9611 L35.5246,27.8011 C36.6406,27.7291 37.9026,27.7001 39.0616,27.7001 C42.3956,27.7001 42.7726,27.9611 42.7726,30.0771" id="Fill-26" fill="#5A32D1"></path>
                    <path d="M44.9484,31.0776 C45.3404,31.0336 45.7894,31.0196 46.2244,31.0196 L46.2244,35.3686 L44.8034,35.3686 L44.8034,33.3676 C44.8034,32.7296 44.8474,31.9176 44.9484,31.0776 M50.9654,30.0776 L50.9654,35.3686 L49.5584,35.3686 L49.5584,30.2506 C49.5584,29.8016 49.5584,29.3526 49.5004,28.9606 C48.9644,28.8736 48.2974,28.8596 47.5724,28.8596 C46.7174,28.8596 45.6004,28.9026 44.6594,28.9756 L44.5714,27.8156 C45.4704,27.7436 46.5144,27.6996 47.4854,27.6996 C50.4144,27.6996 50.9654,28.0186 50.9654,30.0776" id="Fill-28" fill="#5A32D1"></path>
                </g>
            </g>
        </g>
    </g>
</svg>